SplineFontDB: 3.0
FontName: Experiment-Sinhala
FullName: Experiment-Sinhala
FamilyName: Experiment-Sinhala
Weight: Regular
Copyright: Copyright (c) 2015, Pathum Egodawatta
UComments: "2015-9-29: Created with FontForge (http://fontforge.org)"
Version: 0.001
ItalicAngle: 0
UnderlinePosition: -99
UnderlineWidth: 49
Ascent: 750
Descent: 250
InvalidEm: 0
LayerCount: 5
Layer: 0 0 "Back" 1
Layer: 1 0 "Fore" 0
Layer: 2 0 "Back 3" 1
Layer: 3 0 "s1" 1
Layer: 4 0 "Back 2" 1
PreferredKerning: 4
XUID: [1021 779 -1439063335 14876943]
FSType: 0
OS2Version: 0
OS2_WeightWidthSlopeOnly: 0
OS2_UseTypoMetrics: 1
CreationTime: 1443542790
ModificationTime: 1463877852
PfmFamily: 17
TTFWeight: 400
TTFWidth: 5
LineGap: 122
VLineGap: 0
OS2TypoAscent: 879
OS2TypoAOffset: 0
OS2TypoDescent: -250
OS2TypoDOffset: 0
OS2TypoLinegap: 122
OS2WinAscent: 879
OS2WinAOffset: 0
OS2WinDescent: 49
OS2WinDOffset: 0
HheadAscent: 779
HheadAOffset: 0
HheadDescent: -27
HheadDOffset: 0
OS2Vendor: 'PfEd'
Lookup: 4 0 0 "'abvs' Above Base Substitutions in Sinhala lookup 0" { "'abvs' Above Base Substitutions in Sinhala lookup 0-1"  "'abvs' Above Base Substitutions in Sinhala lookup 0-2"  } ['abvs' ('DFLT' <'dflt' > 'sinh' <'dflt' > ) ]
Lookup: 4 0 0 "si_akhands" { "si_akhands subtable"  } ['akhn' ('sinh' <'dflt' > ) ]
Lookup: 4 0 0 "si_reph" { "si_reph subtable"  } ['rphf' ('sinh' <'dflt' > ) ]
Lookup: 4 0 0 "si_halant_1" { "si_halant_1 subtable"  } ['abvs' ('sinh' <'dflt' > ) ]
Lookup: 4 0 0 "si_halant_2" { "si_halant_2 subtable"  } ['abvs' ('sinh' <'dflt' > ) ]
Lookup: 4 0 0 "si_halant_3" { "si_halant_3 subtable"  } ['abvs' ('sinh' <'dflt' > ) ]
Lookup: 4 0 0 "si_abvs_1" { "si_abvs_1 subtable"  } ['abvs' ('sinh' <'dflt' > ) ]
Lookup: 4 0 0 "si_abvs_2" { "si_abvs_2 subtable"  } ['abvs' ('sinh' <'dflt' > ) ]
Lookup: 4 0 0 "si_abvs_3" { "si_abvs_3 subtable"  } ['abvs' ('sinh' <'dflt' > ) ]
Lookup: 4 0 0 "si_abvs_4" { "si_abvs_4 subtable"  } ['abvs' ('sinh' <'dflt' > ) ]

StartChar: si_Tta
Encoding: 34 3495 0
GlifName: si_T_ta
Width: 809
VWidth: 16
Flags: HMW
LayerCount: 5
Back
SplineSet
368.064453125 334 m 1
 342.064453125 346 308.064453125 352 275.064453125 350 c 0
 204.991210938 345.8515625 131.9296875 292.790039062 131.064453125 208 c 0
 129.977539062 108.803710938 214.56640625 42.294921875 382.064453125 43 c 4
 571.850585938 43.794921875 665.34375 185.697265625 671.064453125 327 c 0
 679.772460938 540.58984375 584.08984375 673.365234375 373.064453125 676 c 0
 237.897460938 677.537109375 136.064453125 595 133.064453125 595 c 1
 100.064453125 648 l 0
 150.918945312 685.638671875 261.47265625 734.567382812 375.064453125 734 c 0
 602.788085938 732.85546875 743.565429688 561.63671875 743.064453125 332 c 0
 742.6171875 105.602539062 599.963867188 -56.892578125 376.064453125 -59 c 0
 170.45703125 -60.677734375 53.400390625 38.0029296875 50.064453125 176 c 0
 46.775390625 320.966796875 169.049804688 394.418945312 280.064453125 398 c 0
 342.064453125 400 382.064453125 379 382.064453125 379 c 1
 368.064453125 334 l 1
EndSplineSet
Fore
SplineSet
45 202 m 4
 45 360.491666667 172 449 287 449 c 4
 344 449 381 430 381 430 c 5
 383 414 372 388 367 382 c 5
 344 392 316 398 287 398 c 4
 203 398 117 341.97515528 117 234 c 4
 117 133.719101124 222 59 386 59 c 4
 601.897689769 59 692.801980198 207 699 364 c 4
 706.218068536 555.636363636 601.040498442 704 368 704 c 4
 235 704 160 641 157 641 c 5
 145 653 133 673 139 701 c 5
 190 738 279 766 372 766 c 4
 604.942408377 766 770.157068063 603.015037594 764 357 c 4
 757.837398374 121 620.20596206 -43 385 -43 c 4
 173 -43 45 60.0555555556 45 202 c 4
EndSplineSet
Layer: 2
SplineSet
389.189453125 272 m 5
 243.189453125 288 140.189453125 252 142.189453125 158 c 4
 143.189453125 94 196.189453125 42 336.189453125 43 c 4
 505.189453125 44 613.88671875 173.225585938 622.189453125 326 c 4
 632.189453125 510 528.885742188 659.0234375 335.189453125 648 c 4
 212.189453125 641 119.189453125 580 116.189453125 580 c 5
 93.189453125 627 l 5
 133.189453125 651 238.189453125 706 366.189453125 706 c 4
 583.189453125 705 703.189453125 537 693.189453125 321 c 4
 683.291992188 107.228515625 560.189453125 -56 314.189453125 -58 c 4
 178.189453125 -59 59.189453125 8 59.189453125 137 c 4
 59.189453125 291 218.189453125 335 340.189453125 328 c 5
 350.189453125 388 317.189453125 438 225.189453125 438 c 5
 199.189453125 357 l 5
 148.189453125 350 113.189453125 379 122.189453125 425 c 4
 132.189453125 481 190.189453125 500 237.189453125 500 c 4
 313.189453125 500 396.189453125 469 397.189453125 359 c 4
 397.189453125 323 389.189453125 272 389.189453125 272 c 5
EndSplineSet
EndChar

StartChar: si_Pa
Encoding: 46 3508 1
GlifName: si_P_a
Width: 818
VWidth: 6
Flags: HMW
LayerCount: 5
Back
SplineSet
505.01953125 352 m 1
 457.01953125 333 l 1
 449.01953125 358 442.01953125 384 442.01953125 426 c 0
 443.01953125 512 524.01953125 556 585.01953125 556 c 0
 668.01953125 556 720.01953125 507 720.01953125 427 c 0
 720.01953125 349 623.01953125 309 623.01953125 309 c 1
 607.01953125 326 l 1
 641.071289062 347.129882812 655.903320312 377.10546875 656.01953125 417 c 0
 656.154296875 463 622.01953125 494 563.01953125 494 c 0
 516.01953125 494 480.01953125 462 480.01953125 419 c 0
 480.01953125 367 505.01953125 352 505.01953125 352 c 1
124.01953125 209 m 0
 123.01953125 124 208.01953125 45 393.01953125 45 c 0
 568.01953125 45 668.470703125 127.008789062 670.01953125 216 c 0
 671.794921875 318.00390625 554.01953125 348 457.01953125 333 c 1
 477.01953125 373 l 1
 622.01953125 402 745.01953125 331 741.01953125 193 c 0
 736.01953125 29 569.01953125 -59 388.01953125 -59 c 0
 194.01953125 -59 43.01953125 33 45.01953125 180 c 0
 47.01953125 339 213.01953125 394 321.01953125 384 c 1
 297.01953125 345 l 1
 304.01953125 365 317.392578125 386.33203125 313.01953125 415 c 0
 304.01953125 474 244.01953125 505 176.01953125 490 c 0
 209.01953125 511 l 1
 154.01953125 409 l 1
 113.01953125 411 86.6201171875 436.013671875 88.01953125 471 c 0
 90.01953125 521 147.01953125 557 207.01953125 557 c 0
 277.01953125 557 349.01953125 517 351.01953125 439 c 0
 352.01953125 402 346.01953125 370 337.01953125 333 c 1
 213.01953125 351 125.01953125 287 124.01953125 209 c 0
EndSplineSet
Fore
SplineSet
40 200 m 0
 40 366 174.732421875 420.689453125 276 421 c 0
 305 421.088867188 333 413 341 412 c 1
 307 379 l 1
 313 396 322 415 322 438 c 0
 322 495 265.884765625 529 213 529 c 0
 202 529 190 528 179 525 c 1
 212 546 l 1
 157 437 l 1
 117 439 87 469 87 503 c 0
 87 555 129 592 205 592 c 0
 289 592 362 535 362 451 c 0
 362 417 357 394 347 365 c 1
 333 369 310 374 277 374 c 0
 157.161789772 374 109 301.456521739 109 233 c 0
 109 148.500466087 191.839650508 60.9311190518 395 60 c 0
 611.850585938 58.9541685268 695 143.874285714 695 239 c 0
 695 329.304347826 609.708007812 373 544 373 c 0
 496.978515625 373 477.95703125 367 462 362 c 1
 477 408 l 1
 499 415 523 422 550 422 c 0
 675.343283582 422 761 340.048780488 761 222 c 4
 761 45.9634387352 587.467773438 -36 390 -36 c 0
 191.373046875 -36 40 52.5419921875 40 200 c 0
444 448 m 0
 445.41015625 535.979492188 520.439453125 592.915039062 604 592 c 0
 682.416992188 591.141601562 744 540 744 467 c 0
 744 373.408203125 644 347 644 347 c 1
 641 364 l 1
 661.245117188 385.461914062 678 400.274414062 678 447 c 0
 678 492.40234375 641.311523438 531 586 531 c 0
 521.302734375 531 484 492.052734375 484 444 c 0
 484 402 501 389 501 389 c 1
 462 362 l 1
 454 387 443.487304688 416.002929688 444 448 c 0
EndSplineSet
EndChar

StartChar: si_Va
Encoding: 55 3520 2
GlifName: si_V_a
Width: 818
VWidth: 16
Flags: HMW
LayerCount: 5
Back
SplineSet
385.052734375 284 m 5
 249.556640625 301.37890625 122.518554688 252.458984375 127.052734375 158 c 4
 130.122070312 87.791015625 218.32421875 45.1572265625 364.052734375 46 c 4
 558.052734375 47.1220703125 666.052734375 174.791015625 666.052734375 339 c 4
 666.052734375 547.71875 556.994140625 679.712890625 341.052734375 677 c 4
 218.116210938 675.456054688 131.36328125 606 128.052734375 606 c 5
 96.052734375 660 l 5
 138.2890625 688.125 218.431640625 735.633789062 357.052734375 735 c 4
 564.869140625 734.018554688 729.052734375 582.319335938 729.052734375 331 c 4
 729.052734375 111.353515625 597.467773438 -48.5791015625 374.052734375 -58 c 4
 191.609375 -65.2548828125 48.40234375 8.0341796875 45.052734375 137 c 4
 41.296875 299.32421875 238.4921875 339.377929688 353.052734375 332 c 5
 353.052734375 402 303.052734375 438 211.052734375 438 c 5
 185.052734375 357 l 5
 134.052734375 350 99.8134765625 378.857421875 108.052734375 425 c 4
 118.052734375 481 176.052734375 500 223.052734375 500 c 4
 299.052734375 500 389.051757812 463 393.052734375 359 c 4
 394.436523438 323.026367188 385.052734375 284 385.052734375 284 c 5
EndSplineSet
Fore
SplineSet
50 163 m 0
 50 310 213.38576779 367 337 367 c 0
 346 367 355 367 363 366 c 1
 363 436 303 472 231 472 c 1
 175 391 l 1
 150 391 118 409 117 448 c 0
 116 504 173 537 232 537 c 0
 310 537 406 488 406 379 c 0
 406 345 398 314 398 314 c 1
 380 316 359 317 341 317 c 0
 219.117647059 317 117 272 117 193 c 0
 117 116 212 61 382 62 c 0
 587.371794872 63.009765625 711 206.36328125 711 376 c 4
 711 583.150390625 574.258064516 709 353 709 c 0
 230 709 148 649 146 649 c 1
 135 656.5 123 681.8125 127 709 c 1
 169 737 248 767 360 767 c 0
 593.297709924 767 773 619 773 364 c 0
 773 126 629.823218998 -41 374 -41 c 0
 193 -41 50 36 50 163 c 0
EndSplineSet
EndChar

StartChar: si_Ra
Encoding: 53 3515 4
GlifName: si_R_a
Width: 741
VWidth: 25
Flags: HMW
LayerCount: 5
Back
SplineSet
42.513671875 234.995117188 m 4
 35.27602182 502.370054697 290.389225838 576.115697054 451.37890625 782.920898438 c 5
 479.632153743 815.903787478 493.248290985 851.296589552 498.642578125 881.994140625 c 5
 499.641601562 882.022460938 500.642588117 882.025015062 501.640625 882.077148438 c 4
 527.879427667 883.240112026 558.156818213 870.858844599 569.0078125 834.6796875 c 5
 562.048519197 716.601025621 359.758452661 607.343519117 203.172851562 492.642578125 c 4
 151.246557549 450.415883222 98.6032461971 399.869448355 102.682617188 261.872070312 c 4
 106.595095855 123.791814131 226.620173723 43.3020243846 363.77734375 46.927734375 c 4
 538.432862526 51.5447023336 618.171875 176.129947331 614.791992188 293.99609375 c 4
 610.4765625 450.81376333 478.317382812 512.368454741 352.853515625 506.223632812 c 4
 181.658254808 497.04619021 100.282920138 375.260856987 102.682617188 261.872070312 c 5
 99.3948475126 319.241964004 88.8807634593 354.133595255 116.983398438 426.223632812 c 5
 115.665039062 429.655273438 210.44436479 559.730522452 380.243164062 564.586914062 c 4
 514.720703125 568.433087271 684.056203609 480.844009759 688.291015625 287.030273438 c 4
 692.012752489 113.482977546 580.636071767 -43.1580580364 370.444335938 -49.0908203125 c 4
 169.853387294 -54.7525957784 46.8176946983 79.8272186282 42.513671875 234.995117188 c 4
EndSplineSet
Fore
SplineSet
42.513671875 234.995117188 m 0
 34.5679498739 502.370054697 314.63932422 576.115697054 491.37890625 782.920898438 c 1
 519.632153743 815.903787478 533.248290985 851.296589552 538.642578125 881.994140625 c 1
 539.641601562 882.022460938 540.642588117 882.025015062 541.640625 882.077148438 c 0
 567.879427667 883.240112026 598.156818213 870.858844599 609.0078125 834.6796875 c 1
 601.287597575 716.601025621 376.879353375 607.343519117 203.172851562 492.642578125 c 0
 151.246557549 450.415883222 98.6032461971 399.869448355 102.682617188 261.872070312 c 0
 106.595095855 121.864613925 226.620173723 40.2514199808 363.77734375 43.927734375 c 4
 540.520256866 48.6007633521 621.212269648 170.650201239 617.791992188 293.99609375 c 0
 613.287237676 454.502683996 481.838400615 517.513224405 356.853515625 511.223632812 c 0
 182.921001804 501.858398438 100.244551214 377.581054688 102.682617188 261.872070312 c 1
 99.3948475126 319.241964004 88.8807634593 354.133595255 116.983398438 426.223632812 c 1
 115.665039062 429.655273438 210.44436479 559.730522452 380.243164062 564.586914062 c 0
 513.411060434 568.474659036 681.097445371 479.938865813 685.291015625 284.030273438 c 0
 688.977624828 110.482977546 578.652174348 -46.1580580364 370.444335938 -52.0908203125 c 4
 169.853387294 -57.8123851736 46.8176946983 78.1886169439 42.513671875 234.995117188 c 0
EndSplineSet
EndChar

StartChar: si_Ca
Encoding: 27 3488 5
GlifName: si_C_a
Width: 862
VWidth: 16
Flags: HMW
LayerCount: 5
Back
SplineSet
49.751953125 327 m 5
 470.751953125 333 l 1
 465.751953125 283 l 1
 142.751953125 283 l 1
 48.751953125 271 l 5
 49.751953125 327 l 5
EndSplineSet
Refer: 2 3520 N 1 0 0 1 79.7519 0 2
Fore
SplineSet
36 309 m 5
 31 331 30 351 36 367 c 5
 415 367 l 5
 417 324 l 5
 121 324 l 5
 36 309 l 5
EndSplineSet
Refer: 2 3520 S 1 0 0 1 46 0 2
Layer: 2
SplineSet
470.293945312 225.029296875 m 5
 469.268554688 225.029296875 434.405273438 225.541992188 391.338867188 225.541992188 c 4
 315.313476562 225.541992188 213.946289062 217.26953125 213.946289062 152.739257812 c 5
 216.052734375 117.782226562 267.540039062 54.419921875 409.283203125 53.2763671875 c 4
 559.501953125 52.064453125 626.666015625 170.841796875 626.666015625 336.284179688 c 5
 626.666015625 521.017578125 560.528320312 628.779296875 391.338867188 636.2109375 c 5
 304.180664062 632.109375 153.9609375 569.047851562 150.884765625 569.047851562 c 5
 134.478515625 610.576171875 l 4
 171.905273438 637.236328125 302.129882812 696.196289062 392.364257812 695.68359375 c 4
 602.569335938 694.658203125 708.697265625 548.540039062 708.697265625 331.157226562 c 4
 708.697265625 112.749023438 621.5390625 -37.470703125 405.181640625 -37.470703125 c 4
 248.809570312 -37.470703125 135.50390625 25.078125 135.50390625 147.099609375 c 4
 135.50390625 277.32421875 283.16015625 289.116210938 283.16015625 289.116210938 c 5
 396.978515625 292.192382812 l 5
 470.293945312 225.029296875 l 5
396.978515625 290.141601562 m 5
 389.288085938 372.172851562 l 5
 389.288085938 372.172851562 366.216796875 416.264648438 281.109375 416.264648438 c 4
 274.95703125 356.279296875 l 5
 205.743164062 355.25390625 l 5
 198.565429688 365.5078125 193.951171875 392.680664062 193.951171875 409.599609375 c 4
 193.951171875 459.84375 251.885742188 479.326171875 299.053710938 479.326171875 c 4
 390.313476562 479.326171875 465.166992188 437.28515625 473.370117188 328.081054688 c 4
 470.293945312 225.029296875 l 5
 396.978515625 290.141601562 l 5
EndSplineSet
EndChar

StartChar: si_Sa
Encoding: 58 3523 6
GlifName: si_S_a
Width: 912
VWidth: 6
Flags: HMW
LayerCount: 5
Back
SplineSet
60 379 m 1xf8
 438 381 l 1
 440 336 l 1
 144 335 l 1
 59 322 l 1
 60 379 l 1xf8
568 373 m 1
 601 384 l 1
 700.491210938 410.330078125 886 380.840820312 886 186 c 0
 886 64 811.377929688 -45 680 -45 c 0
 575 -45 508 22 493 126 c 1
 491 123 530 129 528 126 c 1
 510.119140625 25 441.748046875 -43.1982421875 325 -44 c 0
 192.470703125 -44.91015625 120.172851562 54.9951171875 122 154 c 0
 124.165039062 268 218.35546875 346 253 347 c 1
 347 338 l 1
 260.861328125 324.103515625 182.854492188 266.251953125 184 183 c 0
 184.899414062 112.950195312 236.522460938 64.845703125 325 62 c 0
 392.15625 59.83984375 490 88.2900390625 493 214 c 1
 528 215 l 1
 531 100.411132812 604.994140625 64.4326171875 685 64 c 0
 764.806640625 63.599609375 820.400390625 113.7890625 822 195 c 0xfa
 824.384765625 310.975585938 726.305664062 383.813476562 563 328 c 1
 558 350.166992188 553.391601562 374.670898438 553 398 c 0
 551 500 624 568 708 570 c 0
 774.981445312 571.594726562 851 532 851 452 c 0
 851 356 758 330 758 330 c 1
 742 337 l 1
 742 337 781 374.990234375 781 424 c 0xfc
 781 465 740.879882812 513.047851562 677 509 c 0
 640.995117188 506.71875 598 472 593 411 c 0
 589.227539062 364.98046875 609 353 609 353 c 1
 568 373 l 1
409 364 m 1
 412 398 412 417 400 445 c 0
 386 480 331 508 281 503 c 0
 230 419 l 1
 200 422 176 439 176 476 c 0
 176 543 248 568 301 568 c 0
 381 568 454.29296875 518.05078125 457 433 c 0
 458.56640625 383.791015625 449 358.083007812 440 337 c 1
 409 364 l 1
EndSplineSet
Fore
SplineSet
15 352 m 1
 12 374 15 396 21 409 c 1
 400 409 l 1
 402 367 l 1
 106 367 l 1
 15 352 l 1
75 175 m 4
 75 301.121827411 173 377 209 377 c 2
 305 377 l 1
 207 365.333333333 140 286.848484848 140 202 c 0
 140 131.331054688 199.071528597 66 309 66 c 0
 375.189453125 66 452.31640625 106.063720703 457 236 c 1
 470 241 483 242 496 240 c 1
 499 119.98136646 563.361445783 69 656 69 c 0
 762.251540094 69 813 137.295302013 813 228 c 0
 813 315 735.533742331 378 630 378 c 0
 603.125 378 573.5625 373 544 359 c 1
 539 383 534 406 534 432 c 0
 534 533 601.818908608 596.786596526 691 598 c 0
 766 598.959349593 831 554.829268293 831 480 c 0
 831 379.789473684 750 361 750 361 c 1
 734 361 l 1
 734 361 766 385.502810362 766 434 c 0
 766 485.526083467 732.680412371 533 665 533 c 0
 624.142857143 533 574 500 574 430 c 0
 574 393 590 383 590 383 c 1
 549 403 l 1
 577.2290625 413.833521792 600.7434375 424 645 424 c 0
 750.357798165 424 877 355.417475728 877 216 c 0
 877 87.8101265823 807.240829346 -31 648 -31 c 0
 531.092783505 -31 473.613402062 42.011627907 459 151 c 1
 459 150 460 150 462 150 c 0
 469 150 484 152 491 152 c 0
 493 152 494 152 494 151 c 0
 476.98046875 42.276604272 414.029296875 -32 296 -32 c 0
 135.031800763 -32 75 74.1009098469 75 175 c 4
134 504 m 0
 134 567 196 598 259 598 c 0
 344 598 419 546 419 453 c 0
 419 420 410 387 402 367 c 1
 374 394 l 1
 375 405 379 415 379 424 c 0
 379 492 326 529 256 529 c 1
 202 439 l 1
 162 442 134 467 134 504 c 0
EndSplineSet
EndChar

StartChar: si_Ka
Encoding: 21 3482 7
GlifName: si_K_a
Width: 1103
VWidth: 6
Flags: HMW
LayerCount: 5
Back
SplineSet
93 462 m 4
 93 520.901933429 137.544776119 576 220 576 c 4
 316.203257415 576 361.646864295 488.389442485 332 410 c 4
 316.274762835 368.420810984 304.538643973 373.439496852 298 363 c 4
 256 352 l 5
 280.315185547 371.963867188 296 411.892578125 296 438 c 4
 296 483.741737123 267.284058658 510.017947099 242 510.045898438 c 4
 219.747490865 510.07049842 206.828624637 497.591422681 200 486 c 5
 179 391 l 5
 113.152297794 389.792094983 93 428.401264392 93 462 c 4
75 108 m 5
 160.267833481 245.591796875 228.002636374 320.6953125 301 401 c 4
 310 396 l 4
 383.005484682 489.507779729 541.681015153 585 679 585 c 4
 914.207225819 585 1040 439.349206349 1040 275 c 4
 1040 113.075601375 961.922879678 -26.5889358113 816 -29 c 4
 757 -30 717 -5 717 -5 c 5
 715 12.1428571429 732 44.2857142857 746 55 c 5
 746 55 766 26 826 26 c 4
 915.375 26 969 135.116706731 969 230 c 4
 969 417.752918715 781.865203762 495 641 495 c 4
 530.398532953 495 432.534818492 448.679073034 351 383 c 4
 346 376 l 4
 263.674674701 284.751953125 195.069712564 232.451171875 110 80 c 5
 110 80 69 90 75 108 c 5
129 108 m 5
 120 143 l 5
 135.332892923 153.28527114 150.667107077 161 166 161 c 4
 234.078766661 161 231.666899129 56 325 56 c 4
 371.525427476 56 418.050854953 90.7904698989 419 188 c 5
 430 192 445 192 454 189 c 5
 454.922379488 87.3692891157 518.827371273 54.1968603883 561 56 c 4
 612.715534891 58.0221697923 652 107.603931726 652 183 c 4
 652 256.963671875 578.641876517 354 436 354 c 4
 360.655188519 354 286.587657099 322.950555099 247 300 c 5
 303 361 l 5
 315.072214674 365.000093006 391.532863451 402 469 402 c 4
 592.33892345 402 722 323.999858033 722 185 c 4
 722 58.0715771484 649.180550655 -28 555 -28 c 4
 472.883103894 -28 438.076693992 26.7368421053 430 68 c 5
 442 68 l 5
 436.484318505 30.2173913043 394.541821087 -28 327 -28 c 4
 178.767565913 -28 208.354094667 123 153 123 c 4
 137.253968254 123 136.285714286 117 129 108 c 5
EndSplineSet
Fore
SplineSet
98 406 m 1048
93 462 m 0,0,1
 93 520.901933429 137.544776119 576 220 576 c 0,2,3
 317.06221507 576 361.90129282 491.418072705 333 415 c 0,4,5
 317.274762835 373.420810984 305.538643973 378.439496852 299 368 c 0,6,-1
 257 357 l 1,7,8
 281.315185547 376.963867188 297 416.892578125 297 443 c 0,9,10
 297 485.567251266 267.752279367 510.017429486 242 510.045898438 c 0,11,12
 219.747490865 510.07049842 206.828624637 497.591422681 200 486 c 1,13,-1
 179 391 l 1,14,15
 113.152297794 389.792094983 93 428.401264392 93 462 c 0,0,1
50 125 m 1,16,17
 148.151 255.074615698 221.973365853 328.082555022 306 404 c 4,18,-1
 311 401 l 0,19,20
 381.82916942 486.192759102 536.091607062 576.029615029 669 585 c 0,21,22
 912.944087828 601.464516129 1062.06771091 436.12062097 1062 266 c 0,23,24
 1061.93918764 113.211675731 986.891041154 -29.785522973 828 -32 c 0,25,26
 754.979427652 -33.0176935011 719 -6 719 -6 c 1,27,28
 717.068965517 10.5714285714 733.482758621 41.6428571429 747 52 c 1,29,30
 747 52 777.45 23 831 23 c 0,31,32
 926.625 23 984 133.721364183 984 230 c 0,33,34
 984 417.752918715 794.035806045 506.56817258 651 499 c 0,35,36
 537.138619792 492.975476495 436.06520941 450.848078506 352 388 c 0,37,-1
 335 375 l 0,38,39
 240.116210938 282.827148438 173.04635028 235.995820887 75 82 c 1,40,41
 75 82 44.48046875 96.072265625 50 125 c 1,16,17
81 93 m 1,42,-1
 81 133 l 1,43,44
 103.332554408 155.665283204 125.667445592 167 148 167 c 0,45,46
 227.235274755 167 231.054670064 64 312 64 c 0,47,48
 360.010281545 64 408.020507812 119.2578125 409 204 c 1,49,50
 420 208 435 212 444 209 c 1,51,52
 444.991210938 112.71875 495.673699975 61.2974378415 559 63 c 0,53,54
 610.733311642 64.3908783349 650 112.57228087 650 185 c 0,55,56
 650 259.396207968 597.629989915 357 438 357 c 0,57,58
 362.256538723 357 287.797115602 327.100534539 248 305 c 1,59,-1
 304 366 l 1,60,61
 316.290387228 369.707403274 394.132854959 404 473 404 c 0,62,63
 602.388900945 404 722 324.202619739 722 182 c 0,64,65
 722 56.859301414 649.180550655 -28 555 -28 c 0,66,67
 466.313752205 -28 428.722829511 26.7368421053 420 68 c 1,68,-1
 432 68 l 1,69,70
 426.436356057 29.4302536232 384.129141271 -30 316 -30 c 0,71,72
 170.702363608 -30 207.971555667 127 125 127 c 0,73,74
 96.1322751323 127 94.3571428572 113.4 81 93 c 1,42,-1
EndSplineSet
Layer: 2
SplineSet
92 460 m 4
 92 518.901933429 140.052238806 574 229 574 c 4
 318.28194518 574 355.249193594 502.229388268 345 428 c 4
 336.674874442 368.727539062 330.461635045 375.881835938 327 361 c 4
 283 350 l 5
 296.373352051 369.963867188 305 409.892578125 305 436 c 4
 305 481.741737123 273.093395454 508.016767092 245 508.045898438 c 4
 220.628204281 508.07049842 206.478969841 495.591422681 199 484 c 5
 178 389 l 5
 112.152297794 387.792094983 92 426.401264392 92 460 c 4
77 166 m 5
 77 222 l 5
 85 206 103 200 119 200 c 4
 179 200 255 311.375 320 398 c 4
 342 406 l 5
 438.919254658 513 550.273291925 581 674 581 c 4
 848 581 999 465 999 266 c 4
 999 110 907.622137405 -31 730 -31 c 4
 669.345794393 -31 620 -7 620 -5 c 5
 613 8.05263157895 626 48.298245614 638 57 c 5
 651 48 683 23 737 23 c 4
 861.592178771 23 926 139.401746725 926 247 c 4
 926 395.05907173 808.326241135 489 654 489 c 4
 548.101045296 489 464.665505226 464.111111111 347 349 c 5
 334 349 l 5
 272 258.611650485 206 153 129 153 c 4
 112 153 95 157 77 166 c 5
35 234 m 5
 46 240 72 236 80 233 c 5
 77 89.9411764706 258 62 362 62 c 4
 471 62 567 121.904458599 567 227 c 4
 567 287.931034483 516 341 416 341 c 4
 356 341 306 319.022222222 267 298 c 5
 297 331 l 5
 310 335 367 383 449 383 c 4
 545 383 633 315 633 213 c 4
 633 108 581 -29 351 -29 c 4
 175 -29 33 88.4664031621 35 234 c 5
EndSplineSet
Layer: 3
SplineSet
93 462 m 4
 93 520.901933429 137.544776119 576 220 576 c 4
 316.203257415 576 361.646864295 488.389442485 332 410 c 4
 316.274762835 368.420810984 304.538643973 373.439496852 298 363 c 4
 256 352 l 5
 280.315185547 371.963867188 296 411.892578125 296 438 c 4
 296 483.741737123 267.284058658 510.017947099 242 510.045898438 c 4
 219.747490865 510.07049842 206.828624637 497.591422681 200 486 c 5
 179 391 l 5
 113.152297794 389.792094983 93 428.401264392 93 462 c 4
53 97 m 5
 144.304494258 238.348569486 216.834681427 315.502693046 295 398 c 4
 310 396 l 4
 383.005484682 489.507779729 541.681015153 585 679 585 c 4
 914.207225819 585 1040 439.349206349 1040 275 c 4
 1040 113.075601375 961.921838911 -26.526748493 816 -29 c 4
 757 -30 717 -5 717 -5 c 5
 715 12.1428571429 732 44.2857142857 746 55 c 5
 746 55 766 26 826 26 c 4
 915.375 26 969 135.116706731 969 230 c 4
 969 417.752918715 787.570532915 495 651 495 c 4
 536.584689262 495 435.346363957 448.679073034 351 383 c 4
 346 376 l 4
 255.651443846 281.36097841 180.36040489 227.116587046 87 69 c 5
 87 69 47.1714285714 79 53 97 c 5
101 97 m 5
 98 132 l 5
 113.332892923 142.28527114 128.667107077 150 144 150 c 4
 215.932281755 150 213.38389342 64 312 64 c 4
 361.990086969 64 411.980173939 103.257714147 413 188 c 5
 424 192 439 192 448 189 c 5
 448.956860964 92.7182738991 515.248160038 61.356578255 559 63 c 4
 610.715534891 64.9425568083 650 112.57228087 650 185 c 4
 650 259.396207968 597.629989915 357 438 357 c 4
 361.857888927 357 287.006574106 324.225585937 247 300 c 5
 303 361 l 5
 315.363111413 365.195219494 393.666185462 404 473 404 c 4
 602.388900945 404 722 324.202619739 722 182 c 4
 722 56.859301414 649.180550655 -28 555 -28 c 4
 468.941492881 -28 432.464375303 26.7368421053 424 68 c 5
 436 68 l 5
 430.100618922 30.2173913043 385.240382554 -28 313 -28 c 4
 174.548849093 -28 188.899110514 112 131 112 c 4
 111.317460317 112 110.107142857 106 101 97 c 5
EndSplineSet
EndChar

StartChar: si_Ta
Encoding: 40 3501 8
GlifName: si_T_a
Width: 1105
VWidth: 6
Flags: HMW
LayerCount: 5
Back
SplineSet
70 428 m 4
 70 506 133 572 226 572 c 4
 299 572 348 522 348 467 c 4
 348 443 332 408 327 402 c 5
 292 392 l 5
 303 413 307 432 307 449 c 4
 307 493 272 517 234 517 c 4
 189 517 158 489 154 439 c 5
 194 384 l 5
 181 361 159 349 138 349 c 4
 95 349 70 382 70 428 c 4
55 106 m 5
 155 255 219 335 319 427 c 4
 326 433 335 433 342 439 c 4
 442 523 560 581 694 581 c 4
 905 581 1050 448 1050 270 c 4
 1050 97 953 -32 794 -32 c 4
 716 -32 695 -10 695 -10 c 5
 693 6 704 32 722 44 c 5
 722 44 752 21 800 21 c 4
 917 21 977 139 970 259 c 4
 961 420 827 493 659 493 c 4
 564 493 452 454 359 388 c 4
 342 376 353 381 339 369 c 4
 242 287 187 217 87 80 c 5
 87 80 56 89 55 106 c 5
107 120 m 5
 109 151 l 5
 119 159 142 176 179 176 c 4
 261 176 279 68 447 68 c 4
 563 68 623 130 623 213 c 4
 623 329 509 363 448 363 c 4
 365 363 303 339 270 320 c 5
 300 355 l 5
 313 360 374 405 454 405 c 4
 557 405 691 360 691 209 c 4
 691 104 622 -27 422 -26 c 4
 327 -26 239 15 208 74 c 4
 183 122 157 146 107 120 c 5
EndSplineSet
Fore
SplineSet
1040 265 m 0
 1040 122.302734375 959.618164062 -23 791 -23 c 0
 708.272460938 -23 685 3 685 3 c 1
 682.77734375 17.193359375 695 47.3544921875 715 58 c 1
 715 58 744.883789062 30 799 30 c 0
 913.296875 30 969.61225 157.579391183 960 265 c 0
 946.091796875 428.40234375 817 497 649 497 c 0
 551.150390625 497 445.790039062 464 350 388 c 0
 333.69921875 375.06640625 344 381 330 369 c 0
 234.540039062 292.077399381 171.413085938 192.516601562 88 64 c 1
 88 64 53.84375 79 63 106 c 1
 143 227.434017595 219 340.395894428 319 427 c 0
 320.826171875 427.5 323.173828125 427.5 325 428 c 0
 429.829101562 518.506835938 543.528320312 581 684 581 c 0
 895 581 1040 443 1040 265 c 0
110 107 m 1
 109 138 l 1
 117.571428571 146 137.285714286 163 169 163 c 0
 254.306451613 163 252.225806452 61 427 61 c 0
 543 61 616 130 616 213 c 0
 616 319 511 354 440 354 c 0
 357 354 303 337.266601562 270 317 c 1
 310 365 l 1
 323 370 360 399 450 399 c 4
 548 399 681 352 681 201 c 0
 681 96 595.42175892 -25.3531687839 432 -26 c 0
 332.336990656 -26.3615189476 261.009765625 -6.8623046875 218 78 c 0
 190.353515625 124.526367188 140 133 110 107 c 1
77 455 m 0
 77 516.485351562 124 574 211 574 c 0
 301.821289062 574 344.999830892 501.230505698 329 428 c 0
 316.049804688 368.727539062 276.384765625 365.881835938 271 351 c 0
 257 350 l 1
 276.452148438 369.963867188 289 409.892578125 289 436 c 0
 289 479.202148438 255.498047907 504.005631993 226 504.045898438 c 0
 210.9765625 504.06640625 190.991210938 497.665039062 183 484 c 1
 162 379 l 1
 96.91796875 377.70703125 77 419.03515625 77 455 c 0
EndSplineSet
Layer: 2
SplineSet
664.805664062 -22.5302734375 m 13
 678.134765625 34.111328125 l 4
 687.159179688 34.099609375 706.455078125 26.2783203125 735.044921875 26.2783203125 c 4
 842.7109375 26.2783203125 886.338867188 139.078125 885.306640625 238.608398438 c 4
 883.854492188 378.5703125 764.032226562 462.880859375 634.043945312 464.584960938 c 4
 529.596679688 465.955078125 442.329101562 437.892578125 356.67578125 382.830078125 c 5
 225.38671875 288.540039062 173.408203125 235.71875 70.591796875 73.0078125 c 5
 70.591796875 73.0078125 28.9296875 94.48828125 34.1904296875 103.76953125 c 4
 99.2392578125 218.547851562 198.015625 315.069335938 296.177734375 406.313476562 c 5
 303.817382812 412.305664062 311.510742188 418.155273438 319.249023438 423.856445312 c 5
 404.521484375 496.668945312 528.9765625 555.073242188 642.247070312 556.157226562 c 4
 812.309570312 557.784179688 972.8125 460.306640625 976.138671875 271.93359375 c 4
 979.505859375 81.2705078125 868.12109375 -24.0751953125 738.12109375 -31.71484375 c 4
 697.10546875 -34.125 672.31640625 -22.5107421875 664.805664062 -22.5302734375 c 13
261.827148438 365.756835938 m 5
 298.607421875 440.026367188 257.99609375 496.55859375 215.684570312 497.6015625 c 4
 172.61328125 498.662109375 147.16796875 465.461914062 142.881835938 431.381835938 c 5
 172.618164062 376.010742188 l 5
 158.875976562 352.084960938 135.270507812 339.463867188 113.658203125 340.846679688 c 4
 87.947265625 342.491210938 65.0576171875 363.958007812 64.9521484375 409.791015625 c 4
 64.7900390625 480.055664062 118.264648438 565.857421875 230.040039062 558.985351562 c 4
 317.0078125 553.638671875 345.684570312 473.038085938 318.229492188 408.823242188 c 4
 303.038085938 373.291992188 314.888671875 391.560546875 301.817382812 374.985351562 c 5
 261.827148438 365.756835938 l 5
166.978515625 228.354492188 m 5
 154.853515625 101.243164062 271.122070312 60.1318359375 383.848632812 57.626953125 c 4
 546.915039062 54.0029296875 597.430664062 113.750976562 597.642578125 200.668945312 c 4
 597.880859375 299.25 509.338867188 339.16015625 416.1484375 343.477539062 c 4
 344.134765625 346.815429688 272.36328125 318.712890625 240.293945312 301.157226562 c 5
 297.715820312 365.244140625 l 5
 310.689453125 369.670898438 383.37109375 394.450195312 444.859375 393.487304688 c 4
 555.221679688 391.759765625 695.172851562 347.966796875 684.80078125 178.110351562 c 4
 678.413085938 73.5126953125 609.323242188 -40.947265625 370.518554688 -40.982421875 c 4
 219.58203125 -41.00390625 106.379882812 57.7041015625 134.678710938 189.90234375 c 5
 166.978515625 228.354492188 l 5
EndSplineSet
EndChar

StartChar: si_Na
Encoding: 44 3505 9
GlifName: si_N_a
Width: 1064
VWidth: 6
Flags: HMW
LayerCount: 5
Back
SplineSet
112 460 m 4
 112 518.901933429 160.052238806 574 249 574 c 4
 338.28194518 574 375.249193594 502.229388268 365 428 c 4
 356.674874442 368.727539062 350.461635045 375.881835938 347 361 c 4
 303 350 l 5
 316.373352051 369.963867188 325 409.892578125 325 436 c 4
 325 481.741737123 293.093395454 508.016767092 265 508.045898438 c 4
 240.628204281 508.07049842 226.478969841 495.591422681 219 484 c 5
 198 389 l 5
 132.152297794 387.792094983 112 426.401264392 112 460 c 4
97 166 m 5
 97 222 l 5
 105 206 123 200 139 200 c 4
 199 200 275 311.375 340 398 c 4
 362 406 l 5
 458.919254658 513 570.273291925 581 694 581 c 4
 868 581 1019 465 1019 266 c 4
 1019 110 927.622137405 -31 750 -31 c 4
 689.345794393 -31 640 -7 640 -5 c 5
 633 8.05263157895 646 48.298245614 658 57 c 5
 671 48 703 23 757 23 c 4
 881.592178771 23 946 139.401746725 946 247 c 4
 946 395.05907173 828.326241135 489 674 489 c 4
 568.101045296 489 484.665505226 464.111111111 367 349 c 5
 354 349 l 5
 292 258.611650485 226 153 149 153 c 4
 132 153 115 157 97 166 c 5
55 234 m 5
 66 240 92 236 100 233 c 5
 97 89.9411764706 278 62 382 62 c 4
 491 62 587 121.904458599 587 227 c 4
 587 287.931034483 536 341 436 341 c 4
 376 341 326 319.022222222 287 298 c 5
 317 331 l 5
 330 335 387 383 469 383 c 4
 565 383 653 315 653 213 c 4
 653 108 601 -29 371 -29 c 4
 195 -29 53 88.4664031621 55 234 c 5
EndSplineSet
Fore
SplineSet
112 460 m 4
 112 518.901933429 160.052238806 574 249 574 c 4
 338.28194518 574 375.249193594 502.229388268 365 428 c 4
 356.674874442 368.727539062 350.461635045 375.881835938 347 361 c 4
 303 350 l 5
 316.373352051 369.963867188 325 409.892578125 325 436 c 4
 325 481.741737123 290.966288485 508.016767092 261 508.045898438 c 4
 238.747490865 508.07049842 225.828624637 495.591422681 219 484 c 5
 198 389 l 5
 132.152297794 387.792094983 112 426.401264392 112 460 c 4
97 166 m 1
 97 222 l 1
 105 206 123 200 139 200 c 0
 199 200 275 311.375 340 398 c 0
 362 406 l 1
 456.583850931 513 565.254658385 581 686 581 c 0
 858.929230769 581 1009 468.682539683 1009 276 c 0
 1009 114.747474747 917.622137405 -31 740 -31 c 0
 684.859813085 -31 640 -7 640 -5 c 1
 633 8.05263157895 646 48.298245614 658 57 c 1
 669.686868687 48 698.454545455 23 747 23 c 0
 871.592178771 23 936 144.598253275 936 257 c 0
 936 398.94092827 819.191489362 489 666 489 c 0
 562.860627178 489 481.599303135 464.111111111 367 349 c 1
 354 349 l 1
 292 258.611650485 226 153 149 153 c 0
 132 153 115 157 97 166 c 1
55 234 m 1
 66 240 92 236 100 233 c 1
 97 89.9411764706 278 62 382 62 c 0
 491 62 587 121.904458599 587 227 c 0
 587 287.931034483 536 341 436 341 c 0
 376 341 326 319.022222222 287 298 c 1
 317 331 l 1
 330 335 387 383 469 383 c 0
 565 383 653 315 653 213 c 0
 653 108 601 -29 371 -29 c 0
 195 -29 53 88.4664031621 55 234 c 1
EndSplineSet
Layer: 2
SplineSet
24.73046875 83.3212890625 m 0
 134.731445312 297.014648438 353.709960938 541.3203125 591.771484375 550.064453125 c 0
 746.357421875 555.743164062 908.02734375 475.564453125 925.151367188 277.120117188 c 0
 937.249023438 136.918945312 852.514648438 -32.3037109375 701.48828125 -32.724609375 c 0
 666.108398438 -32.8232421875 649.193359375 -21.2685546875 649.193359375 -21.2685546875 c 1
 665.599609375 26.412109375 l 1
 665.599609375 26.412109375 673.897460938 18.8330078125 699.436523438 18.7900390625 c 0
 785.080078125 18.646484375 845.70703125 119.120117188 839.446289062 228.4140625 c 0
 831.440429688 368.154296875 718.657226562 447.84765625 593.822265625 452.852539062 c 0
 504.807617188 456.421875 427.23046875 437.952148438 346.703125 388.016601562 c 1
 215.415039062 293.7265625 112.6796875 133.239257812 66.2587890625 52.5595703125 c 1
 66.2587890625 52.5595703125 19.84765625 73.8359375 24.73046875 83.3212890625 c 0
255.956054688 381.197265625 m 1
 292.737304688 455.466796875 239.260742188 494.984375 186.7421875 492.534179688 c 0
 161.099609375 491.3359375 123.352539062 470.6484375 119.06640625 436.568359375 c 1
 148.802734375 376.0703125 l 0
 127.51171875 339.00390625 92.4970703125 333.344726562 65.74609375 345.686523438 c 0
 65.74609375 345.686523438 36.1318359375 362.216796875 36.009765625 414.977539062 c 0
 35.8486328125 485.2421875 89.052734375 553.598632812 185.716796875 553.91796875 c 0
 272.662109375 554.205078125 316.743164062 503.859375 320.049804688 444.771484375 c 0
 322.208984375 406.189453125 301.328125 391.620117188 288.255859375 375.044921875 c 1
 255.956054688 381.197265625 l 1
173.412109375 214.571289062 m 1
 143.765625 169.486328125 170.6484375 68.28515625 261.083007812 67.9404296875 c 0
 300.061523438 67.7919921875 351.549804688 94.390625 352.342773438 189.596679688 c 1
 406.17578125 189.44921875 l 0
 407.696289062 86.783203125 467.221679688 67.1904296875 502.049804688 67.9404296875 c 0
 557.461914062 69.1337890625 591.771484375 124.158203125 591.771484375 184.834960938 c 0
 591.771484375 299.41796875 505.07421875 343.943359375 381.053710938 343.537109375 c 0
 319.274414062 343.3359375 283.412109375 323.899414062 251.341796875 306.34375 c 1
 308.763671875 369.91796875 l 1
 321.73828125 374.344726562 358.533203125 385.482421875 389.256835938 388.419921875 c 0
 473.75390625 396.5 659.959960938 373.965820312 659.959960938 167.916015625 c 0
 659.959960938 53.0576171875 604.990234375 -34.349609375 499.486328125 -34.7705078125 c 0
 385.387695312 -35.2236328125 382.591796875 53.5849609375 382.591796875 53.5849609375 c 1
 382.591796875 53.5849609375 361.025390625 -33.5771484375 258.51953125 -33.9677734375 c 0
 104.490234375 -34.5556640625 103.685546875 125.875 125.21875 164.327148438 c 0
 173.412109375 214.571289062 l 1
EndSplineSet
EndChar

StartChar: anusvara
Encoding: 1 3458 10
GlifName: anusvara
Width: 588
VWidth: 30
Flags: HMW
LayerCount: 5
Back
SplineSet
120 225 m 0
 120 135 165.049804688 67.998046875 283 67 c 0
 373.046875 66.23828125 438.099609375 143.999023438 439 224 c 4
 440.125 323.993164062 371 393 264 387 c 0
 194.109375 383.081054688 120 318 120 225 c 0
55 194 m 0
 55 345 173 443 294 443 c 0
 445 443 523 335 523 214 c 0
 523 93 436 -25 285 -25 c 0
 134 -25 55 73 55 194 c 0
EndSplineSet
Fore
SplineSet
120 255 m 0
 120 165 165 97 284 97 c 0
 374 97 439 175 439 256 c 0
 439 351 376 417 277 417 c 0
 198 417 120 353 120 255 c 0
55 224 m 0
 55 375 173 473 294 473 c 0
 445 473 523 365 523 244 c 0
 523 123 436 5 285 5 c 0
 134 5 55 103 55 224 c 0
EndSplineSet
EndChar

StartChar: si_A
Encoding: 3 3461 12
GlifName: si_A_
Width: 795
VWidth: 13
Flags: HMW
LayerCount: 5
Back
SplineSet
364 -57.5380859375 m 0
 153.625 -57.1875 52.4326171875 37.0244140625 54 157 c 0
 55.8642578125 305.000976562 183.197265625 381 323 383 c 0
 356.912109375 383.546875 385.2578125 381.401367188 402.384765625 378.52734375 c 1
 403.505859375 468.180664062 340.708007812 504.435546875 271 497 c 1
 215 408 l 1
 169 411 141 448 150 484 c 0
 166 546 225 567 288 567 c 0
 360 567 432 527 446 443 c 0
 455.095703125 388.426757812 439 334 439 334 c 1
 329.883789062 352.869140625 188.782226562 312.513671875 175 179 c 0
 164.526367188 81.240234375 240.35546875 4.236328125 408 4.8173828125 c 0
 529.96875 5.240234375 602.526367188 50.912109375 665 88.599609375 c 1
 696 47 l 1
 624.354492188 -10.3515625 511.6953125 -57.7841796875 364 -57.5380859375 c 0
506 406.842773438 m 1
 507.64453125 463.158203125 496.786132812 528.805664062 565 568 c 1
 594 546.889648438 l 1
 593.51171875 491.823242188 726 455.326171875 726 386 c 0
 726 313.143554688 634 241.561523438 545 234 c 1
 536 274 l 1
 593 284 652 321.561523438 652 378 c 0
 652 426 566.39453125 468.649414062 566 507.856445312 c 1
 554.118164062 493.653320312 558.6328125 470 558.6328125 421.313476562 c 0
 556 -378 l 1
 506 -378 l 1
 506 406.842773438 l 1
438.465820312 371.448242188 m 1
 439.303710938 371.296875 440.147460938 371.146484375 441 371 c 1
 441 371.776367188 440.05859375 371.853515625 438.465820312 371.448242188 c 1
EndSplineSet
Fore
SplineSet
32 174 m 0
 32 342 208 413 350 413 c 0
 379 413 403 411 418 409 c 1
 419 492 350 538 286 538 c 0
 281 538 277 538 272 537 c 1
 216 448 l 1
 176 451 149 479 149 510 c 0
 149 572.722297396 212.352539062 609 273 609 c 0
 386 609 459 544 459 438 c 0
 459 398 449 364 449 364 c 1
 432 367 415 368 397 368 c 0
 286 368 133 319 133 186 c 0
 133 81.2158203125 253 19 428 19 c 0
 568 19 656 60 710 103 c 1
 726 98 736 70 736 53 c 1
 675 16 582 -43 395 -43 c 0
 183 -43 32 44.1875 32 174 c 0
526 -348 m 1
 526 488 l 6
 526 537 528 588 585 621 c 5
 614 600 l 5
 614 545 756 468 756 399 c 4
 756 326 674 265 565 267 c 5
 565 321 l 5
 632 311 682 335 682 391 c 4
 682 459 601 481 579 551 c 13
 579 -348 l 1
 560.720703125 -351.837890625 541.75390625 -353.73828125 526 -348 c 1
EndSplineSet
EndChar

StartChar: si_I
Encoding: 7 3465 16
GlifName: si_I_
Width: 867
VWidth: 16
Flags: HMW
LayerCount: 5
Fore
SplineSet
214 -250 m 1
 241.26079825 -320.186379928 319.448986305 -358.116000379 403 -362 c 0
 545.642860039 -368.12978226 634.621302567 -288.592289106 634 -206 c 0
 633.120361329 -84.8810166877 481 -68 481 -68 c 1
 391 -59 l 1
 419 -96 l 1
 477.307270549 -105.685701217 541.030846748 -139.049889764 543 -202 c 0
 544.998046875 -270.371938642 471.47518691 -297.009997816 401 -297 c 0
 339.629932986 -296.991335043 282.875202306 -266.382116272 248 -220 c 1
 217.536506436 -227.338375915 216.217615505 -240.089907066 214 -250 c 1
50 291 m 0
 50 132.688476562 178.57731137 48.7644708941 315 48 c 0
 482.848345588 47.0594293653 546.958659319 159.412980138 549 250 c 0
 551.069020669 339.074596774 484.808353181 393.079871615 415 394 c 4
 341.325946151 395.035181632 298 341.064997581 298 287 c 0
 298 228.0003125 346.922271135 184.619516497 416 184 c 0
 502.784774503 183.221679688 525.990909091 253 527 260 c 1
 515 282 l 2
 515 282 483.5546875 229 428 229 c 0
 383.794439936 229 348 248.999715909 348 285 c 0
 348 314.176421066 373.466796875 339 412 339 c 0
 457.696599264 339 500 299.43555664 500 242 c 0
 500 187.603046269 439.69789992 112.8812893 327 112 c 0
 201.981745449 111.022366431 112 182.409132434 112 289 c 0
 112 446.238797494 262.488135593 533 414 533 c 0
 591.856230032 533 723.827104537 418.637322095 725 272 c 0
 726.626672566 68.6307173822 549.257612871 -57.8076171875 398 -45 c 1
 378 -65.9090909091 378 -83.1818181818 378 -95 c 1
 625.998225054 -116.198835191 801 60.5310910247 801 294 c 0
 801 502.240254721 611.992511416 623 433 623 c 0
 236.406914894 623 50 485.326171875 50 291 c 0
EndSplineSet
EndChar

StartChar: si_Ii
Encoding: 8 3466 17
GlifName: si_I_i
Width: 741
VWidth: 25
Flags: HMW
LayerCount: 5
Back
SplineSet
527 611 m 0xb0
 527 642 552 667 583 667 c 0
 614 667 639 642 639 611 c 0
 639 580 614 555 583 555 c 0
 552 555 527 580 527 611 c 0xb0
215 701 m 4
 215 733 241 759 273 759 c 4
 305 759 331 733 331 701 c 4
 331 669 305 643 273 643 c 4x70
 241 643 215 669 215 701 c 4
EndSplineSet
Refer: 4 3515 N 1 0 0 1 0 0 2
Fore
SplineSet
577 641 m 0
 577 672 602 697 633 697 c 0
 664 697 689 672 689 641 c 0
 689 610 664 585 633 585 c 0
 602 585 577 610 577 641 c 0
235 731 m 4
 235 763 261 789 293 789 c 4
 325 789 351 763 351 731 c 4
 351 699 325 673 293 673 c 4
 261 673 235 699 235 731 c 4
EndSplineSet
Refer: 4 3515 N 1 0 0 1 0 0 2
EndChar

StartChar: si_U
Encoding: 9 3467 18
GlifName: si_U_
Width: 765
VWidth: 13
Flags: HMW
LayerCount: 5
Back
SplineSet
177 82 m 4
 158.202148438 -47.7998046875 222.97265625 -212.974609375 406 -236.380859375 c 4
 540.911132812 -252.205078125 622.588867188 -209.567382812 696 -151 c 5
 730 -208 l 5
 680.22265625 -243.866210938 573.874023438 -301.940429688 422 -296.19140625 c 4
 144.451171875 -285.490234375 49.9169921875 -102.7421875 61 34 c 4
 83.611328125 311.194335938 335.991210938 369.895507812 491 371 c 4
 553.002929688 371.436523438 589 367.727539062 618 365 c 5
 618 370 593.833007812 346 593 351 c 5
 605.571289062 478 476.213867188 499 398 481 c 5
 342 402 l 5
 296 405 274.086914062 445.533203125 285 481 c 4
 301 533 362 561 445 561 c 4
 527.286132812 561 621.034179688 506.793945312 635 423 c 4
 644.095703125 368.426757812 632 318 632 318 c 5
 632 316 l 5
 416.633789062 336.892578125 210.46875 299.200195312 177 82 c 4
EndSplineSet
Fore
SplineSet
33 55 m 0
 33 288.496191968 219.603116249 390.01040363 384 404 c 0
 442.756835938 409 578.864864865 403.75 622 395 c 1
 622 399.285714286 600.4375 378.714285714 599 383 c 1
 600 388 600 393 600 398 c 0
 600 488 518.789808917 523 450 523 c 0
 435.523809524 523 429.428571429 521 418 517 c 1
 372 431 l 1
 327.666992188 433.229492188 302 465.557377049 302 499 c 0
 302 559.175183355 357.301630435 599 443 599 c 0
 553.650177193 599 642 528.779537313 642 413 c 0
 642 375.482758621 635 349 635 349 c 1
 635 347 l 1
 592.811277246 355.5 468.713243966 360.979577031 417 356 c 0
 243.36331957 339.280158829 135 238.263671875 135 73 c 0
 135 -86.71484375 242.443119236 -209 442 -209 c 0
 580.247993678 -209 667.917679961 -154.942382812 714 -121 c 1
 725.848632812 -126.326171875 734.697265625 -149.760742188 734 -170 c 1
 703.993055556 -204.9140625 593.357604981 -271 436 -271 c 0
 133.800070571 -271 33 -91.197265625 33 55 c 0
EndSplineSet
EndChar

StartChar: si_E
Encoding: 15 3473 22
GlifName: si_E_
Width: 880
VWidth: 16
Flags: HMW
LayerCount: 5
Back
SplineSet
429.81640625 669.124023438 m 1xde
 520 678 l 1
 518.842773438 653.400390625 541.36328125 575.997070312 581 559 c 0
 657.103515625 526.365234375 690.166015625 606.057617188 747 558 c 1
 776 526 l 1
 707.135742188 554.92578125 652.416015625 470.92578125 550 505.301757812 c 0
 469.956054688 532.168945312 473.421875 669.104492188 429.81640625 669.124023438 c 1xde
123 317 m 5
 512 316 l 5
 507 275 l 5
 206 270 l 5
 122 252 l 5
 123 317 l 5
508.504882812 661.212890625 m 0
 458.150390625 668.377929688 424.440429688 662.286132812 408 661 c 1
 409 741 l 1xee
 740.9140625 740.212890625 893 516.80859375 893 311 c 0
 893 91.0390625 764.75 -56.3564453125 542 -61 c 0
 322.623046875 -65.5732421875 219.234375 17.80078125 216 121 c 0
 211.596679688 261.4765625 355.522460938 302.262695312 469 306 c 1
 469 394 427.69140625 438 335 438 c 1
 309 357 l 1
 262.63671875 350 231.268554688 378.897460938 239 425 c 0
 248.391601562 481 302.861328125 500 347 500 c 0
 413 500 510.48046875 462.978515625 515 359 c 0
 516.383789062 327.161132812 507 282 507 282 c 1
 379.25 299.456054688 288.404296875 246.993164062 289 162 c 0
 289.51953125 86.0546875 397.6484375 38.986328125 536 40 c 0
 721.478515625 41.3388671875 831 144.6484375 831 346 c 0
 831 538.337890625 642.268554688 642.180664062 508.504882812 661.212890625 c 0
EndSplineSet
Fore
SplineSet
73 352 m 1
 68 374 67 398 73 414 c 5
 452 414 l 5
 454 367 l 1
 158 367 l 1
 73 352 l 1
EndSplineSet
Refer: 48 3509 N 1 0 0 1 105 0 2
EndChar

StartChar: si_Os
Encoding: 18 3476 25
GlifName: si_O_s
Width: 860
VWidth: 16
Flags: HMW
LayerCount: 5
Back
SplineSet
104.629882812 261.502929688 m 5
 104.994140625 82.853515625 241.010742188 -58 470.060546875 -58 c 4
 694.510742188 -58 840.015625 95.5927734375 840.015625 334 c 4
 840.015625 548.2265625 700.845703125 732.00390625 461.286132812 732.00390625 c 4
 321.012695312 732.00390625 209.060546875 652 209.060546875 652 c 5
 237.060546875 602 l 5
 240.000976562 602 332.123046875 679.03515625 454.7421875 679.03515625 c 4
 690.408203125 679.03515625 784.221679688 514.502929688 777.334960938 329 c 4
 771.810546875 180.20703125 687.651367188 42.5888671875 464.890625 43.9912109375 c 4
 298.559570312 45.0390625 164.413085938 137.694335938 162.443359375 287.059570312 c 4
 161.23046875 379.075195312 191.596679688 444.005859375 239.913085938 444.005859375 c 4
 263.884765625 444.005859375 274.86328125 424.258789062 276.060546875 375 c 4
 277.704101562 310.588867188 293.955078125 262.171875 326.060546875 234.584960938 c 4
 363.561523438 200.767578125 415.928710938 186.986328125 466.546875 186.986328125 c 4
 581.161132812 186.986328125 634.0625 275.466796875 634.0625 360.115234375 c 4
 634.0625 436.70703125 581.865234375 504 486.060546875 504 c 4
 411.7890625 504 369.053710938 451.715820312 369.053710938 398.010742188 c 4
 369.053710938 337.249023438 415.990234375 311.997070312 458.3671875 311.997070312 c 4
 518.361328125 311.997070312 550.18359375 359.837890625 550.18359375 409.515625 c 4
 550.18359375 433.040039062 539.611328125 458.829101562 524.060546875 473.561523438 c 5
 498.060546875 474.561523438 l 5
 509.516601562 456.45703125 515.05859375 438.291015625 515.05859375 415.853515625 c 4
 515.05859375 388.53125 497.59375 357.55859375 462.342773438 357.55859375 c 4
 428.278320312 357.55859375 416.051757812 383.942382812 416.051757812 402.051757812 c 4
 416.051757812 436.8359375 438.323242188 463.909179688 472.5 469.001953125 c 4
 548.076171875 480.262695312 597.717773438 426.975585938 596.111328125 358.48046875 c 4
 594.666992188 296.900390625 551.19140625 253.766601562 466.130859375 252.998046875 c 4
 405.764648438 252.452148438 320.044921875 276.978515625 318.879882812 381 c 4
 318.0703125 453.213867188 290.25390625 482.034179688 245.666015625 482.034179688 c 4
 178.19921875 482.034179688 104.073242188 417.208984375 104.629882812 261.502929688 c 5
EndSplineSet
Fore
SplineSet
51 242 m 0
 51 420.043478261 149.980263158 515 228 515 c 0
 273 515 301.488144278 489.005676704 302 424 c 0
 303 297 389.995649281 283.302538732 450 284 c 0
 536.032520325 285 591.147462061 328.013710076 593 391 c 0
 595 459 550.974794162 513.172763847 475 502 c 0
 441 497 418 470 418 435 c 0
 418 417 431 391 465 391 c 0
 500 391 517 422 517 449 c 0
 517 471 511 490 500 508 c 1
 526 507 l 1
 542 492 553 467 553 443 c 0
 553 393 521 345 461 345 c 0
 419 345 371 370 371 431 c 0
 371 485 416 541 490 541 c 0
 586 541 636 470 636 393 c 0
 636 308 574.67816092 220 442 220 c 0
 326.707106371 220 258.57782657 282.00493649 256 401 c 0
 255 450 243 465 218 465 c 0
 158.965517241 465 111 386.148942694 111 281 c 0
 111 118.757009346 187.447204969 57 292 57 c 0
 356 57 418 93 421 172 c 1
 431 176 446 180 458 176 c 1
 465 91 525 54 585 54 c 0
 727.75862069 54 769 233.101449276 769 350 c 0
 769 533.6 664.085626912 707 392 707 c 0
 250 707 179 639 176 639 c 1
 160 646 147 668 151 699 c 1
 151 699 236.54978355 765 392 765 c 0
 691.896551724 765 838 550.474940334 838 339 c 0
 838 194.4099723 786.37804878 -42 589 -42 c 4
 486.765432099 -42 425.216049383 21 420 111 c 1
 455 111 l 1
 439 32 392 -40 283 -40 c 0
 84.765258216 -40 51 138.429090909 51 242 c 0
EndSplineSet
EndChar

StartChar: si_Kha
Encoding: 22 3483 28
GlifName: si_K_ha
Width: 866
VWidth: 6
Flags: HMW
LayerCount: 5
Back
SplineSet
737.913085938 336.353515625 m 4
 737.913085938 539.126953125 634.587890625 671.095703125 387.758789062 671.095703125 c 4
 264.185546875 671.095703125 168.048828125 603 166.479492188 603 c 5
 138.479492188 660 l 5
 138.479492188 660 247.258789062 733.059570312 400.26171875 733.059570312 c 4
 613.352539062 733.059570312 811.110351562 586.017578125 811.110351562 332.138671875 c 4
 811.110351562 115.98046875 723.765625 -51.8984375 550.939453125 -51.8984375 c 4
 511.4921875 -51.8984375 496.006835938 -36.3955078125 477.883789062 -36.3955078125 c 4
 454.377929688 -36.3955078125 430.15234375 -59.044921875 414.479492188 -93.9130859375 c 5
 376.368164062 -77 l 5
 426.349609375 0.8115234375 475.510742188 84.2724609375 469.51171875 178.049804688 c 4
 463.227539062 276.287109375 370.724609375 329.544921875 295.733398438 329.544921875 c 4
 192.899414062 329.544921875 102.66796875 262.353515625 102.66796875 129.487304688 c 4
 102.66796875 46.1943359375 139.200195312 -8.2998046875 211.635742188 -8.2998046875 c 4
 252.9296875 -8.2998046875 271.890625 25.0712890625 271.890625 52.2392578125 c 4
 271.890625 85.287109375 251.807617188 110.944335938 220.125 110.944335938 c 4
 194.688476562 110.944335938 171.387695312 91.3330078125 171.387695312 54.2900390625 c 4
 171.387695312 26.85546875 187.749023438 -6.75 230.368164062 -12.09375 c 5
 230.368164062 -23.3828125 l 5
 161.817382812 -21.287109375 128.834960938 15.962890625 128.834960938 56.8916015625 c 4
 128.834960938 114.103515625 169.0703125 169.70703125 234.510742188 169.70703125 c 4
 290.662109375 169.70703125 334.255859375 127.157226562 334.255859375 61.1015625 c 4
 334.255859375 9.072265625 295.094726562 -58.7978515625 214.21484375 -58.7978515625 c 4
 94.5966796875 -58.7978515625 50 58.337890625 50 151.438476562 c 4
 50 326.481445312 167.151367188 422.469726562 309.004882812 424.913085938 c 4
 392.747070312 426.35546875 531.397460938 370.383789062 531.397460938 194.314453125 c 4
 531.397460938 113.931640625 502.399414062 68.451171875 481.4765625 30 c 5
 480.676757812 78 l 5
 492.426757812 58.0712890625 524.606445312 46.37890625 553.939453125 46.37890625 c 4
 678.294921875 46.37890625 737.913085938 172.436523438 737.913085938 336.353515625 c 4
EndSplineSet
Fore
SplineSet
50 164 m 4
 50 329.718291411 166.99067908 453.63452576 309 455 c 4
 413 456 531 390 531 224 c 0
 531 144 502 98 481 60 c 1
 491 132 l 1
 504 99 514 80 574 80 c 0
 675 80 738 204 738 366 c 0
 738 569 634 701 384 701 c 0
 260 701 164 633 162 633 c 0
 147 641 131 666 134 690 c 1
 134 690 243 763 396 763 c 0
 611 763 811 616 811 362 c 0
 811 144 727 -25 561 -25 c 0
 491 -25 439 -3 435 58 c 1
 474 34 l 1
 462 12 452 -4 418 -62 c 1
 388 -41 l 5
 422.760869565 19 475.347826087 116 470 208 c 0
 463.827586207 308.578947368 368.155172414 364 291 364 c 0
 190.668393782 364 103 275.447761194 103 159 c 0
 103 76 143.394495413 22 222 22 c 4
 263 22 282 55 282 82 c 4
 282 115 262 141 230 141 c 4
 205 141 181 121 181 84 c 4
 181 57 197 23 240 18 c 5
 240 7 l 5
 171 9 139 46 139 87 c 4
 139 144 180 200 245 200 c 4
 301 200 344 157 344 91 c 4
 344 39 305 -29 224 -29 c 4
 96.6829268293 -29 50 78.5285714286 50 164 c 4
EndSplineSet
EndChar

StartChar: si_Ga
Encoding: 23 3484 29
GlifName: si_G_a
Width: 956
VWidth: 6
Flags: HMW
LayerCount: 5
Back
SplineSet
712.764648438 15.6123046875 m 4
 819.69921875 27.6982421875 874.627929688 96.9677734375 874.627929688 219.600585938 c 4
 874.627929688 341.538085938 807.137695312 439.272460938 671.942382812 437.533203125 c 4
 578.682617188 436.399414062 492.357421875 377.801757812 466.8828125 264.823242188 c 5
 416.615234375 248.01171875 l 5
 431.201171875 440.625976562 546.979492188 535.514648438 670.684570312 542.603515625 c 4
 848.747070312 552.603515625 938.875 411.889648438 938.875 267.375 c 4
 938.875 101.1640625 861.436523438 -54.5166015625 682.416015625 -55.814453125 c 4
 632.0078125 -56.1796875 596.495117188 -45.9150390625 578.6875 -36.138671875 c 5
 597.45703125 38.328125 l 5
 618.125 22.771484375 670.908203125 10.5341796875 712.764648438 15.6123046875 c 4
132.979492188 245.841796875 m 4
 132.15234375 150.483398438 193.659179688 56.111328125 343.004882812 50.5908203125 c 4
 428.580078125 47.0771484375 513.891601562 79.8349609375 516.004882812 150 c 4
 517.190429688 200.606445312 483.321289062 247 417.004882812 247 c 5
 458.004882812 281 l 5
 500.004882812 279.932617188 569.657226562 240.7421875 570.004882812 152 c 4
 570.51171875 44.1220703125 496.598632812 -57.0576171875 331.603515625 -55.0048828125 c 4
 173.708984375 -53.0400390625 72 61.9140625 72 221.564453125 c 4
 72 428.865234375 220.293945312 526 355.004882812 538 c 4
 362.884765625 461.879882812 l 4
 267.920898438 461.879882812 134.439453125 422.454101562 132.979492188 245.841796875 c 4
EndSplineSet
Fore
SplineSet
390 274 m 5
 386.091703335 467.291175717 507.340962494 574 649 574 c 4
 828.667822087 574 924 435.978388397 924 295 c 4
 924 130.014648438 847.94921875 -30 658 -30 c 4
 618.52734375 -30 584.694335938 -19.5234375 571 -10 c 5
 564 -2.94140625 560 32.3525390625 580 50 c 5
 594.896484375 39.5166015625 638.755859375 24.3076171875 676 25 c 4
 809.046875 27.853515625 852 176.767578125 852 264 c 4
 852 410.383379255 753.981757079 486 637 486 c 4
 534.372437119 486 440.054606517 424.589584918 434 264 c 5
 422 262 402 257 390 274 c 5
42 261 m 4
 42 459.915440096 209.0625 572.137269788 339 574 c 5
 347 555 341 520 335 511 c 5
 245.299804688 511 110.633789062 452.34204433 106 296 c 4
 103.029296875 170.731445312 177.005859375 76.0654296875 312 70 c 4
 421.88671875 65.08984375 502 118.442382812 502 199 c 4
 502 256.887695312 470.875 287 412 287 c 5
 423 332 l 5
 504.131835938 333.567382812 554 280.876953125 554 198 c 4
 554 83.869140625 471.412109375 -25 320 -25 c 4
 141.430664062 -25 42 94.9697265625 42 261 c 4
EndSplineSet
EndChar

StartChar: si_Gha
Encoding: 24 3485 30
GlifName: si_G_ha
Width: 915
VWidth: 6
Flags: HMW
LayerCount: 5
Back
SplineSet
39 379 m 1xe8
 417 381 l 1
 419 336 l 1
 123 335 l 1
 38 322 l 1
 39 379 l 1xe8
547 373 m 1
 580 384 l 1
 679.491210938 410.330078125 865 380.840820312 865 186 c 0
 865 64 790.377929688 -45 659 -45 c 0
 554 -45 521 13 506 117 c 1
 505.427734375 116.142578125 540 147 534 165 c 24
 528 183 486.626953125 183.658203125 484 184 c 1
 481.327148438 184.34765625 438 184 427 162 c 24
 419 145 461.505859375 117.758789062 461 117 c 1
 443.119140625 16 420.748046875 -43.1982421875 304 -44 c 0
 171.470703125 -44.91015625 99.1728515625 54.9951171875 101 154 c 0
 103.165039062 268 197.35546875 346 232 347 c 1
 326 338 l 1
 239.861328125 324.103515625 161.854492188 266.251953125 163 183 c 0
 163.899414062 112.950195312 215.602539062 66.7216796875 304 62 c 0
 345.575534477 59.7790143032 409.211914062 74.7744140625 415 107.828125 c 1
 414.201171875 132.467773438 370.123013369 139.845373801 371 171 c 0
 372.030155581 207.595896569 416.004882812 243.372070312 488 242 c 0
 555.00390625 240.72265625 590 210 590 174 c 0
 590 142.71560447 550.262695312 129.123046875 548 112.466796875 c 1
 551.45703125 84.8037109375 620.854500708 64.2333014695 664 64 c 0
 743.806640625 63.599609375 799.400390625 113.7890625 801 195 c 0xf2
 803.384765625 310.975585938 705.305664062 383.813476562 542 328 c 1
 537 350.166992188 532.391601562 374.670898438 532 398 c 0
 530 500 603 568 687 570 c 0
 753.981445312 571.594726562 830 532 830 452 c 0
 830 356 737 330 737 330 c 1
 721 337 l 1
 721 337 760 374.990234375 760 424 c 0xe4
 760 465 719.879882812 513.047851562 656 509 c 0
 619.995117188 506.71875 577 472 572 411 c 0
 568.227539062 364.98046875 588 353 588 353 c 1
 547 373 l 1
388 364 m 1xe8
 391 398 391 417 379 445 c 0
 365 480 310 508 260 503 c 0
 209 419 l 1
 179 422 155 439 155 476 c 0
 155 543 227 568 280 568 c 0
 360 568 433.29296875 518.05078125 436 433 c 0
 437.56640625 383.791015625 428 358.083007812 419 337 c 1
 388 364 l 1xe8
EndSplineSet
Fore
SplineSet
38 352 m 1
 32 365 25 387 38 410 c 1
 417 410 l 1
 417 366 l 1
 123 366 l 1
 38 352 l 1
101 180 m 0
 101 293 200 377 236 377 c 2
 326 377 l 1
 240 363 163 307 163 215 c 0
 163 143 219 92 312 92 c 0
 353 92 410 117 415 148 c 1
 394 162 371 175 371 205 c 0
 371 242 414 272 484 272 c 0
 553 272 590 240 590 203 c 0
 590 172 560 159 548 152 c 1
 551 124 622 94 665 94 c 0
 746 94 801 145 801 229 c 0
 801 316 744 377 646 377 c 0
 615 377 580 371 542 358 c 1
 537 382 532 406 532 432 c 0
 532 533 597 596 695 596 c 0
 771 596 830 551 830 482 c 0
 830 386 737 360 737 360 c 1
 721 369 l 1
 721 369 760 405 760 454 c 0
 760 493 730 539 670 539 c 0
 625 539 568 500 568 430 c 0
 568 393 578 383 578 383 c 1
 547 403 l 1
 580 414 l 1
 600 419 623 422 647 422 c 0
 746 422 865 372 865 216 c 0
 865 94 790 -5 659 -5 c 0
 554 -5 521 53 506 157 c 1
 506 157 535 185 535 203 c 0
 535 226 486 227 482 227 c 0
 475.938770475 227 426 224.667513018 426 200 c 0
 426 183 461 158 461 157 c 0
 444 56 397 -5 292 -5 c 0
 162 -5 101 83 101 180 c 0
155 506 m 0
 155 573 227 598 280 598 c 0
 365 598 436 546 436 453 c 0
 436 410 427 387 419 367 c 1
 393 394 l 1
 394 405 395 415 395 424 c 0
 395 492 333 539 263 539 c 1
 209 449 l 1
 179 452 155 469 155 506 c 0
EndSplineSet
EndChar

StartChar: si_Nga
Encoding: 25 3486 31
GlifName: si_N_ga
Width: 829
VWidth: 16
Flags: HMW
LayerCount: 5
Back
SplineSet
407.098632812 474 m 25x9e
 257.098632812 490 l 17
 122.098632812 448 61.4638671875 383.963867188 56.0986328125 238 c 0
 53.349609375 163.2109375 96.107421875 56.189453125 144.098632812 18.7021484375 c 0
 103.098632812 -30.3115234375 l 0
 35.4404296875 20.875 -11.9013671875 137.236328125 -5.9013671875 245 c 0
 7.162109375 479.63671875 217.098632812 599 406.098632812 539 c 1
 407.098632812 474 l 25x9e
EndSplineSet
Refer: 29 3484 N 1 0 0 1 70.0989 0 2
Fore
SplineSet
50 171 m 0
 50 381 267 410 395 381 c 1
 386 340 l 1
 290 360 121 332 121 206 c 0
 121 140 164 91 242 91 c 0
 314 91 376 131 376 225 c 1
 383 229 408 233 415 228 c 1
 415 133 471 91 550 91 c 4
 634 91 703 187 703 360 c 0
 703 567 586 715 369 715 c 0
 280 715 209 685 168 660 c 1
 155 669 146 705 157 728 c 1
 214 755 273 769 370 769 c 0
 597 769 774 605 774 347 c 0
 774 181 719 -12 550 -12 c 0
 474 -12 414 19 392 81 c 1
 369 13 299 -12 240 -12 c 0
 142 -12 50 50 50 171 c 0
114 472 m 0
 114 539 186 564 239 564 c 0
 329 564 399 509 399 409 c 0
 399 375 393 359 387 340 c 1
 354 362 l 1
 356 373 357 383 357 393 c 0
 357 457 311 498 237 498 c 0
 231 498 225 498 218 497 c 1
 168 415 l 1
 138 418 114 435 114 472 c 0
EndSplineSet
EndChar

StartChar: si_Nnga
Encoding: 26 3487 32
GlifName: si_N_nga
Width: 1088
VWidth: 6
Flags: HMW
LayerCount: 5
Back
SplineSet
587.51171875 474 m 25x9e
 437.51171875 490 l 17
 302.51171875 448 241.876953125 383.963867188 236.51171875 238 c 0
 233.762695312 163.2109375 276.520507812 56.189453125 324.51171875 18.7021484375 c 0
 283.51171875 -30.3115234375 l 0
 215.853515625 20.875 168.51171875 137.236328125 174.51171875 245 c 0
 187.575195312 479.63671875 397.51171875 599 586.51171875 539 c 1
 587.51171875 474 l 25x9e
EndSplineSet
Refer: 29 3484 N 1 0 0 1 250.512 0 2
Fore
SplineSet
42 262 m 4
 39.2715781142 423.281469599 166.911806834 619.482796195 450 588 c 0
 442 528 l 1
 340 539 l 1
 200.830508474 533.524475524 100.07492523 416.452796597 102 278 c 0
 104.077113374 131.285086797 207.922621621 28.546191553 396 29 c 1
 428 -17 l 1
 95.4667868815 -13.9859742189 44.0555208871 147.447385464 42 262 c 4
EndSplineSet
Refer: 29 3484 N 1 0 0 1 120 8 2
EndChar

StartChar: si_Cha
Encoding: 28 3489 33
GlifName: si_C_ha
Width: 855
VWidth: 6
Flags: HMW
LayerCount: 5
Back
SplineSet
592 219 m 4xfe
 511.918945312 219.434570312 488.59767288 292.774526608 486.741210938 352 c 4
 480.630275284 546.953125 659.343518324 725.752779993 861 771 c 5
 888 708 l 5
 661.627138847 678.284179687 550.038899453 515.277348419 537.295898438 414 c 4
 525.741210937 322.166992188 542.078852691 262.99468962 595 264 c 4
 645.830847538 264.965602245 670.828253228 301.4742841 671 387 c 4
 671.085100446 432.637795276 645.946428571 513 549 513 c 4
 502 513 465 472.893333333 465 419 c 4
 465 367 490 352 490 352 c 5
 442 333 l 5
 434 358 426.578735898 384.002112713 427 426 c 4
 427.930555556 518.771653543 504.236111111 563 561 563 c 4
 670.688311688 563 725 482.128205128 725 397 c 4
 725 266.061523438 656.436523092 218.650326784 592 219 c 4xfe
119 209 m 0
 118 124 203 45 388 45 c 0
 563 45 663.451154009 127.008854445 665 216 c 0
 666.775330903 318.004157759 539 348 442 333 c 1
 462 373 l 1
 607 402 740.207129289 330.993840671 736 193 c 0xfd
 731 29 564 -59 383 -59 c 0
 189 -59 38.150918543 32.9980241705 40 180 c 0
 42 339 208 394 316 384 c 1
 292 345 l 1
 299 365 312.3731417 386.33162663 308 415 c 0
 299 474 239 505 171 490 c 0
 204 511 l 1
 149 409 l 1
 108 411 81.6005478023 436.013695057 83 471 c 0
 85 521 142 557 202 557 c 0
 272 557 343.891968781 516.997155104 346 439 c 0
 347 402 341 370 332 333 c 1
 208 351 119.917658967 287.001012186 119 209 c 0
EndSplineSet
Fore
SplineSet
45 207 m 0
 45 365 194.737304688 427 306 427 c 0
 315 427 323 427 331 426 c 1
 303 387 l 1
 309 404 320 423 320 446 c 0
 320 503 272.884765625 536 220 536 c 0
 209 536 197 535 186 532 c 1
 219 553 l 1
 164 451 l 1
 124 453 98 476 98 510 c 0
 98 562 157 599 217 599 c 0
 291 599 361 557 361 473 c 0
 361 439 355 409 347 375 c 1
 333 377 319 378 306 378 c 0
 198.301757812 378 117 315 117 238 c 0
 117 152.03515625 207.970703125 63.947265625 409 63 c 0
 625.850585938 61.9775390625 715 156 715 249 c 0
 715 342 616.708007812 379 524 379 c 0
 506.978515625 379 489.95703125 378 474 375 c 1
 497 415 l 1
 519 420 540 422 560 422 c 0
 685.34375 422 781 351 781 230 c 0
 781 57.375 601.467773438 -33 404 -33 c 0
 205.373046875 -33 45 59.5419921875 45 207 c 0
456 463 m 0
 457 552 542 598 603 598 c 0
 713 598 777 519 777 437 c 0
 777 306 708 269 644 269 c 0
 564 269 531 333 529 392 c 0
 523 587 661 756 853 811 c 1
 867 803 886 776 880 748 c 1
 714 708 602 595 579 454 c 0
 564 363 594 313 647 314 c 0
 705 315 723 358 723 434 c 0
 723 487 686 548 601 548 c 0
 548 548 507 509 507 459 c 0
 507 407 522 392 522 392 c 1
 474 373 l 1
 466 398 456 421 456 463 c 0
EndSplineSet
EndChar

StartChar: si_Ja
Encoding: 29 3490 34
GlifName: si_J_a
Width: 841
VWidth: 6
Flags: HMW
LayerCount: 5
Back
SplineSet
637 458 m 9xf8
 688 479 l 25
 688 479 689.344726562 453.623046875 690 432 c 0
 691 399 681.14316462 345.14565047 612 346 c 0
 529.8046875 347.015625 511.294642069 411.631971212 510.409179688 474 c 0
 508.469726562 610.606445312 612.135742188 725.743164062 761 771 c 1
 784 684 l 21
 669.265625 682.305664062 545.011365245 606.846052658 555.295898438 461 c 0
 558.677497152 413.045191066 581.100585938 386.447265625 614 385 c 4
 662.357421875 382.873046875 648.147857261 447.357724458 637 458 c 9xf8
497 352 m 1
 442 333 l 1
 434 358 427 384 427 426 c 0
 428 512 510 553 571 553 c 0
 654 553 715 507 715 427 c 0
 715 349 618 309 618 309 c 1
 602 326 l 1
 636.051288152 347.130311028 650.883587155 377.105818001 651 417 c 0
 651.13422914 462.999749757 608 494 549 494 c 0
 502 494 469 452 469 409 c 0
 469 357 497 352 497 352 c 1
119 209 m 0
 118 124 203 45 388 45 c 0
 563 45 663.451154009 127.008854445 665 216 c 0
 666.775330903 318.004157759 539 348 442 333 c 1
 462 373 l 1
 607 402 740 331 736 193 c 0xf4
 731 29 564 -59 383 -59 c 0
 189 -59 38 33 40 180 c 0
 42 339 208 394 316 384 c 1
 287 345 l 1
 294 365 307.373046875 386.33203125 303 415 c 0
 294 474 239 505 171 490 c 0
 204 511 l 1
 149 409 l 1
 108 411 81.6005478023 436.013695057 83 471 c 0
 85 521 142 557 202 557 c 0
 272 557 344 517 346 439 c 0
 347 402 341 370 332 333 c 1
 208 351 120 287 119 209 c 0
EndSplineSet
Fore
SplineSet
519 392 m 1
 529 587 651 776 793 851 c 5
 808 841 822 823 820 798 c 5
 704 728 592 595 569 454 c 0
 566 438 565 423 565 409 c 1
 519 392 l 1
EndSplineSet
Refer: 1 3508 N 1 0 0 1 0 0 2
EndChar

StartChar: si_Ttha
Encoding: 35 3496 39
GlifName: si_T_tha
Width: 858
VWidth: 16
Flags: HMW
LayerCount: 5
Back
SplineSet
456.158203125 305 m 1
 473.842773438 392.088867188 417.509765625 448.735351562 320.158203125 440 c 1
 270.158203125 358 l 1
 240.158203125 361 216.158203125 378 216.158203125 415 c 0
 216.158203125 482 288.158203125 507 341.158203125 507 c 0
 421.158203125 507 496.814453125 457.983398438 501.158203125 373 c 0
 503.724609375 322.791015625 497.158203125 304.083007812 490.158203125 282 c 1
 456.158203125 305 l 1
488.600585938 293 m 1
 462.600585938 305 424.625976562 291.521484375 391.600585938 290 c 0
 295.790039062 285.69921875 215.788085938 248.908203125 214.600585938 161 c 0
 213.958007812 113.450195312 256.443359375 71.2998046875 334.158203125 71 c 0
 400.189453125 70.7548828125 456.600585938 111.124023438 456.600585938 205 c 1
 463.604492188 205.030273438 488.456054688 205.259765625 495.158203125 205.6796875 c 1
 495.158203125 108.375 559.352539062 71.36328125 614.158203125 71 c 0
 695.009765625 70.4794921875 746.059570312 143.420898438 750.600585938 317 c 0
 756.427734375 552.506835938 608.084960938 660.170898438 463.600585938 663 c 0
 322.174804688 665.685546875 232.720703125 574 229.600585938 574 c 1
 196.600585938 625 l 0
 246.57421875 663.076171875 335.837890625 712.578125 454.600585938 712 c 0
 675 710.90234375 825.422851562 549.208007812 826.600585938 312 c 0
 827.336914062 149.983398438 775.153320312 -37.759765625 618.158203125 -41 c 0
 548.272460938 -42.470703125 492.403320312 -12.5888671875 472.600585938 51 c 1
 449.575195312 -17 380.48046875 -41.2734375 322.158203125 -41 c 0
 230.216796875 -40.5693359375 147.448242188 9.8798828125 143.600585938 128 c 0
 139.065429688 267.220703125 278.571289062 328.831054688 389.600585938 332 c 0
 461.600585938 334 478.600585938 319 478.600585938 319 c 1
 488.600585938 293 l 1
EndSplineSet
Fore
SplineSet
328 764 m 1
 367 778 l 1
 455 746 434.103166254 644.362753486 469 586 c 0
 500.45631068 538.173913043 587.485436893 530.347826087 685 566 c 1
 708 524 l 1
 632.4204947 473.866666667 471.255057276 445.194584153 415 556 c 0
 382 621 390 728 328 764 c 1
40 223 m 0
 40 408 191.407407407 521 320 521 c 1
 327 507 334 482 326 452 c 1
 207.768518519 452 100 383 100 250 c 0
 100 140 160.851351351 74 258 74 c 0
 344.4 74 393 131 393 218 c 1
 406 223 421 226 434 223 c 1
 434 124 491.664335664 70 567 70 c 0
 686.836363636 70 734.767714803 202.649171643 736 355 c 0
 738.039767451 607.182093506 520 734.296482412 328 763 c 1
 328 779 329 795 338 811 c 1
 619.447004608 770.130434783 806 577.024266986 806 341 c 0
 806 169.356955381 747.029288703 -30 563 -30 c 0
 467.941176471 -30 406.764705882 24 403 107 c 1
 421 107 l 1
 423.136054422 31 355.853873187 -29.3434861984 264 -30 c 0
 126.878504673 -31 40 67 40 223 c 0
EndSplineSet
EndChar

StartChar: si_Dda
Encoding: 36 3497 40
GlifName: si_D_da
Width: 937
VWidth: 16
Flags: HMW
LayerCount: 5
Back
SplineSet
450.110351562 715.259765625 m 4
 360.776367188 715.259765625 290.828125 684.611328125 249.938476562 660.07421875 c 5
 236.791015625 668.690429688 227.286132812 705.057617188 238.2421875 728.413085938 c 5
 295.416992188 755.336914062 354.659179688 769.006835938 451.659179688 769.006835938 c 4
 678.831054688 769.006835938 865.599609375 604.587890625 865.599609375 346.625 c 4
 865.599609375 150.35546875 799.797851562 -37 631.159179688 -37 c 4
 555.443359375 -37 495.252929688 -6.0986328125 473.591796875 56 c 5
 453.234375 -6.640625 376.392578125 -37 317.1171875 -37 c 4
 198.638671875 -37 121.5625 40.681640625 121.5625 161.486328125 c 4
 121.5625 301.767578125 245.8046875 381.260742188 343.591796875 382 c 5
 334.31640625 350.391601562 l 5
 258.610351562 350.391601562 189.588867188 266.797851562 189.588867188 191.115234375 c 4
 189.588867188 103.3359375 245.432617188 66 323.793945312 66 c 4
 395.314453125 66 457.591796875 106.407226562 457.591796875 200 c 5
 464.595703125 204.268554688 489.447265625 208.076171875 496.149414062 202.6796875 c 5
 496.149414062 107.482421875 562.638671875 66 631.236328125 66 c 4
 735.646484375 66 794.779296875 187.260742188 794.779296875 359.989257812 c 4
 794.779296875 566.508789062 667.565429688 715.259765625 450.110351562 715.259765625 c 4
59.1494140625 386 m 5
 473.149414062 383 l 5
 468.149414062 341 l 5
 165.149414062 341 l 5
 61.1494140625 324 l 5
 50.46875 338.057617188 43.5009765625 367.249023438 59.1494140625 386 c 5
435.149414062 363 m 5
 437.321289062 373.696289062 438.376953125 383.93359375 438.376953125 393.647460938 c 4
 438.376953125 457.63671875 392.5703125 493.885742188 318.440429688 493.885742188 c 4
 312.20703125 493.885742188 305.772460938 493.59375 299.149414062 493 c 5
 252.149414062 415 l 5
 222.149414062 418 198.149414062 432 198.149414062 469 c 4
 198.149414062 536 267.149414062 560 320.149414062 560 c 4
 410.228515625 560 480.716796875 509.989257812 480.716796875 410.237304688 c 4
 480.716796875 376.047851562 474.088867188 359.739257812 468.149414062 341 c 5
 435.149414062 363 l 5
EndSplineSet
Fore
SplineSet
131 151 m 0
 132.921259843 313.461852166 268.37007874 373.981818182 375 375 c 1
 375 337 l 1
 268.195402298 337 191 278.406128783 191 178 c 0
 191 107.596121294 244.292613636 52 339 52 c 0
 422.84 52 470 109 470 196 c 1
 483 201 498 204 511 201 c 1
 511 108.470588235 568.47368421 58 658 58 c 0
 764.971428572 58 818 210.048611111 818 348 c 0
 818 595.099431818 684.15 715 461 715 c 0
 330.999999999 715 242.785714286 660 240 660 c 1
 225 676 219 706 224 726 c 1
 271.149253731 749.630769231 352.753731343 774 467 774 c 0
 723.330793193 774 886 600.0243309 886 338 c 0
 886 175.422680412 822.939271255 -42 650 -42 c 0
 543.31875 -42 482.133536586 12 481 95 c 1
 499 95 l 1
 501.089171975 9 424.836752276 -41.2265450914 335 -42 c 0
 212.226804124 -43.0052083333 129.207577927 31.3756374209 131 151 c 0
84 385 m 5
 504 382 l 1
 509 336 l 1
 210 336 l 5
 86 318 l 5
 75 333.129032258 68 364.467741935 84 385 c 5
219 468 m 0
 219 535 282.344262295 559 331 559 c 0
 432.180124224 559 512 499 512 409 c 0
 512 373.028985507 510.384615385 356.101449275 509 336 c 1
 469 362 l 1
 471 373 472 383 472 393 c 0
 472 457 421.016666667 493 339 493 c 0
 333 493 327 493 320 492 c 1
 273 414 l 1
 243 417 219 431 219 468 c 0
EndSplineSet
EndChar

StartChar: si_Nna
Encoding: 38 3499 42
GlifName: si_N_na
Width: 1343
VWidth: 30
Flags: HMW
LayerCount: 5
Back
SplineSet
684 315 m 5
 682 478 773 512 823 512 c 4
 869 512 931 482 936 404 c 5
 932 403 l 5
 948 485 1018 516 1068 516 c 4
 1173 516 1258 442 1258 259 c 4
 1258 120 1208 -30 1052 -30 c 4
 973 -30 883 8 883 162 c 5
 902 170 922 167 930 162 c 5
 931 74 986 39 1042 39 c 4
 1126 39 1153.28320312 146.994140625 1155 238 c 4
 1158 397 1117 460 1048 460 c 4
 991 460 961 388 961 266 c 5
 946 258 922 255 910 263 c 5
 909 381.622070312 880.997070312 447.875976562 821 449 c 4
 718 450.9296875 725 289.7890625 694 174 c 5
 684 315 l 5
-63 143 m 261
 126 320 786 746 936 849 c 261
 952 844 970 827 971 811 c 261
 853 730 247 360 43 187 c 261
 108 197 187 57 378 57 c 260
 541 57 632 175 632 300 c 260
 632 491 520 569 400 569 c 260
 266 569 156 458 156 357 c 260
 156 205 307 194 371 194 c 4
 417 194 453 226 453 269 c 260
 453 310 427 337 386 337 c 260
 345 337 318 304 318 263 c 260
 318 222 343 182 374 182 c 261
 374 152 l 261
 325 152 276 200 276 259 c 260
 276 328 331 385 400 385 c 260
 472 385 514 331 514 272 c 260
 514 200 461 137 362 137 c 260
 221 137 115 222 115 356 c 260
 115 515 250 622 407 622 c 260
 583 622 713 479 713 292 c 260
 713 173 647 -32 385 -32 c 260
 148 -32 136 143 33 143 c 260
 0 143 -18 124 -34 110 c 261
 -58 118 -67 132 -63 143 c 261
EndSplineSet
Fore
SplineSet
728 255 m 1
 735.423828125 445.229492188 814.599609375 512 879 512 c 0
 936.766601562 512 998.153320312 464.592773438 995 384 c 1
 972 373 l 1
 990 476.76953125 1068.75 516 1125 516 c 0
 1219.31738281 516 1308 442 1308 259 c 0
 1308 120 1258 -30 1102 -30 c 0
 1023 -30 933 8 933 162 c 1
 952 170 972 167 980 162 c 1
 981 74 1036 39 1092 39 c 0
 1176 39 1203.28515625 146.994140625 1205 238 c 0
 1207.88769531 391.270507812 1168.42089844 452 1102 452 c 0
 1042.37890625 452 1011 397.814453125 1011 306 c 1
 996 271.333007812 972 258.333007812 960 293 c 1
 959 392.490234375 930.991975677 447.797165575 871 449 c 0
 774.755859375 450.9296875 771.9765625 289.7890625 740 174 c 1
 728 255 l 1
281 335 m 256
 281 485.349609375 414.321289062 574.3828125 525 571 c 256
 688.568359375 566 783 457.420898438 783 273 c 256
 783 150.370117188 698.744140625 -35 497 -35 c 256
 241.052734375 -35 231.859060302 164 93 164 c 256
 73.658203125 164 63.412109375 159.508789062 46 154 c 1
 79 169 l 1
 69.80859375 160.87109375 45.4990234375 131.4609375 40 122 c 257
 24.5517578125 128.515625 8 146.7578125 8 165 c 257
 62.513671875 230.5390625 197.538716922 388.530602251 335 533 c 0
 458.951171875 663.270507812 645.091796875 823.889648438 685 863 c 257
 705.22265625 863.02734375 726 828.850585938 726 814 c 257
 665.612304688 766.2890625 507.317382812 638.357421875 355 486 c 4
 253.46875 384.442382812 150.387695312 258.022460938 95 189 c 1
 63 194 l 257
 73.853515625 197.819335938 86.104158911 211.321704688 118 210.76953125 c 0
 248.364257812 208.512695312 276.045898438 61 487 61 c 256
 664.532226562 61 725 173.967242325 725 293 c 256
 725 437.22118306 648.525390625 514 525 519 c 256
 391.418945312 524.407226562 334 433.750976562 334 350 c 256
 334 228.654296875 432.693359375 197 483 197 c 0
 523.772460938 197 552 228.064453125 552 268 c 256
 552 294.759765625 533.38671875 323 500 323 c 256
 462.252929688 323 447 288.036132812 447 249 c 256
 447 210.061523438 468.875 185 496 185 c 257
 496 155 l 257
 450.678710938 155 399 186.745117188 399 246 c 256
 399 322.711914062 446.184570312 377 507 377 c 256
 575.248046875 377 618 327 618 269 c 256
 618 211.333984375 578.043945312 140.981445312 485 143 c 256
 369.122070312 145.513671875 281 223.936523438 281 335 c 256
EndSplineSet
Layer: 2
SplineSet
668 255 m 5
 665.423828125 455.229492188 764.599609375 512 829 512 c 4
 886.766601562 512 948.153320312 464.592773438 945 384 c 5
 922 373 l 5
 940 476.76953125 1018.75 516 1075 516 c 4
 1169.31738281 516 1258 442 1258 259 c 4
 1258 120 1208 -30 1052 -30 c 4
 973 -30 883 8 883 162 c 5
 902 170 922 167 930 162 c 5
 931 74 986 39 1042 39 c 4
 1126 39 1153.28515625 146.994140625 1155 238 c 4
 1157.88769531 391.270507812 1118.42089844 452 1052 452 c 4
 992.37890625 452 961 397.814453125 961 306 c 5
 946 271.333007812 922 258.333007812 910 293 c 5
 909 392.490234375 880.997070312 448.0859375 821 449 c 4
 714.755859375 450.9296875 721.9765625 289.7890625 690 174 c 5
 668 255 l 5
-83 153 m 261
 106 327.528320312 786 757.438476562 936 859 c 261
 952 855.041992188 970 833.666992188 971 821 c 261
 854.245117188 738.702148438 234.84765625 332.291992188 33 187 c 261
 96.1689453125 197 192.379882812 57 378 57 c 260
 541 57 632 175 632 300 c 260
 632 491 515.655273438 569 391 569 c 260
 265.787109375 569 163 486.584960938 163 377 c 260
 163 234.325195312 273.967773438 224 321 224 c 4
 367 224 403 260.266601562 403 309 c 260
 403 350 375.8359375 377 333 377 c 260
 285.970703125 377 255 339.541015625 255 293 c 260
 255 252 285.803710938 212 324 212 c 261
 324 182 l 261
 270 182 216 238.971679688 216 309 c 260
 216 372.5234375 269.668945312 425 337 425 c 260
 419.10546875 425 467 371 467 312 c 260
 467 234.666992188 416.440429688 167 322 167 c 260
 203.833984375 167 115 240.356445312 115 356 c 260
 115 515 245.838867188 622 398 622 c 260
 579.176757812 622 713 479 713 292 c 260
 713 173 627 -32 385 -32 c 260
 148 -32 116 153 13 153 c 260
 -20 153 -38 134 -54 120 c 261
 -78 128 -87 142 -83 153 c 261
EndSplineSet
Layer: 3
SplineSet
678 255 m 5
 685.423828125 445.229492188 764.599609375 512 829 512 c 4
 886.766601562 512 948.153320312 464.592773438 945 384 c 5
 922 373 l 5
 940 476.76953125 1018.75 516 1075 516 c 4
 1169.31738281 516 1258 442 1258 259 c 4
 1258 120 1208 -30 1052 -30 c 4
 973 -30 883 8 883 162 c 5
 902 170 922 167 930 162 c 5
 931 74 986 39 1042 39 c 4
 1126 39 1153.28515625 146.994140625 1155 238 c 4
 1157.88769531 391.270507812 1118.42089844 452 1052 452 c 4
 992.37890625 452 961 397.814453125 961 306 c 5
 946 271.333007812 922 258.333007812 910 293 c 5
 909 392.490234375 880.997070312 448.0859375 821 449 c 4
 714.755859375 450.9296875 721.9765625 289.7890625 690 174 c 5
 678 255 l 5
-63 163 m 257
 -1.2861328125 236.047851562 125.548828125 378.120117188 270 524 c 0
 450.90234375 706.69140625 631.518554688 883.650390625 676 929 c 257
 702 929.041992188 721 893.666992188 721 871 c 257
 684.88671875 844.0859375 494.604492188 664.981445312 304 487 c 0
 195.053710938 385.26953125 101.86328125 283.02734375 43 212 c 257
 106.168945312 222 192.379882812 57 378 57 c 256
 541 57 642 175 642 300 c 256
 642 491 495.655273438 529 431 529 c 256
 305.787109375 529 243 426.584960938 243 357 c 256
 243 214.325195312 353.967773438 204 401 204 c 0
 447 204 489 232.266601562 489 281 c 256
 489 322 463.8359375 352 421 352 c 256
 373.970703125 352 345 309.541015625 345 263 c 256
 345 222 375.803710938 182 414 182 c 257
 414 152 l 257
 360 152 302 198.971679688 302 269 c 256
 302 342.5234375 358.668945312 405 426 405 c 256
 508.10546875 405 547 346 547 287 c 256
 547 209.666992188 492.440429688 142 398 142 c 256
 279.833984375 142 195 220.356445312 195 336 c 256
 195 495 305.838867188 582 428 582 c 256
 589.176757812 582 713 479 713 292 c 256
 713 173 634 -32 392 -32 c 256
 155 -32 136 163 33 163 c 256
 0 163 -18 144 -34 130 c 257
 -58 138 -67 152 -63 163 c 257
EndSplineSet
Layer: 4
SplineSet
271 335 m 260
 271 485.349609375 411.321289062 574.3828125 522 571 c 260
 685.568359375 566 783 457.420898438 783 273 c 260
 783 150.370117188 698.744140625 -35 497 -35 c 260
 241.052734375 -35 231.859060302 164 93 164 c 260
 73.658203125 164 63.412109375 159.508789062 46 154 c 5
 79 169 l 5
 69.80859375 160.87109375 45.4990234375 131.4609375 40 122 c 261
 24.5517578125 128.515625 8 146.7578125 8 165 c 261
 62.513671875 230.5390625 197.538716922 388.530602251 335 533 c 4
 458.951171875 663.270507812 645.091796875 823.889648438 685 863 c 261
 705.22265625 863.02734375 717 831.850585938 717 817 c 261
 656.612304688 769.2890625 507.31762429 634.35718046 355 482 c 4
 253.46875 380.442382812 150.387695312 258.022460938 95 189 c 5
 63 194 l 261
 73.853515625 197.819335938 86.104158911 211.321704688 118 210.76953125 c 4
 248.364257812 208.512695312 276.045898438 61 487 61 c 260
 664.532226562 61 725 173.967242325 725 293 c 260
 725 437.22118306 641.525390625 514 518 519 c 260
 384.418945312 524.407226562 324 433.750976562 324 350 c 260
 324 228.654296875 422.693359375 197 473 197 c 4
 513.772460938 197 542 228.064453125 542 268 c 260
 542 294.759765625 523.38671875 323 490 323 c 260
 452.252929688 323 437 288.036132812 437 249 c 260
 437 210.061523438 458.875 185 486 185 c 261
 486 155 l 261
 440.678710938 155 389 186.745117188 389 246 c 260
 389 322.711914062 436.184570312 377 497 377 c 260
 565.248046875 377 608 327 608 269 c 260
 608 211.333984375 568.043945312 140.981445312 475 143 c 260
 359.122070312 145.513671875 271 223.936523438 271 335 c 260
792 290 m 4
 792 257.857421875 820.444335938 235 856 235 c 4
 894.21875 235 918 266.622070312 918 295 c 4
 918 330 894.940429688 358 854 358 c 4
 821.27734375 358 792 329.23046875 792 290 c 4
747 281 m 4
 747 341.922851562 794.619140625 401 867 401 c 4
 925.548828125 401 977 352.400390625 977 293 c 4
 977 234.615234375 928.849609375 178 870 178 c 4
 798.092773438 178 747 224.349609375 747 281 c 4
932 356 m 5
 951.255463957 421.256835938 1009.13169814 493 1110 493 c 4
 1198.92806448 493 1308 420.151367188 1308 240 c 4
 1308 101 1260.18457031 -49 1111 -49 c 4
 1038.32519531 -49 933 0.1630859375 933 143 c 5
 952 151 972 148 980 143 c 5
 981.1875 66.94140625 1046.5 20 1113 20 c 4
 1195.51367188 20 1221.97007948 128.002234761 1224 219 c 4
 1227.26641718 365.427734375 1161.13136473 433 1086 433 c 4
 1011.09463443 433 975 361.327148438 975 313 c 5
 963.094726562 320.284179688 951.35546875 327.770507812 932 326 c 5
 932 336.916015625 932 338.48046875 932 356 c 5
EndSplineSet
EndChar

StartChar: si_Tha
Encoding: 41 3502 44
GlifName: si_T_ha
Width: 802
VWidth: 16
Flags: HMW
LayerCount: 5
Back
SplineSet
479.600585938 53 m 0
 654.061523438 53.3701171875 745.158203125 160.372070312 745.158203125 346 c 0
 745.158203125 548.7109375 586.444335938 641.901367188 452.663085938 668.212890625 c 0
 406.86328125 677.881835938 403.977539062 669.99609375 362.158203125 663 c 1
 363.158203125 731 l 1
 688.21484375 730.212890625 807.158203125 516.80859375 807.158203125 311 c 0
 807.158203125 91.0390625 677.127929688 -56.3818359375 478.600585938 -59 c 0
 285.607421875 -60.677734375 175.731445312 38.0029296875 172.600585938 176 c 0
 169.311523438 320.966796875 291.5859375 394.418945312 402.600585938 398 c 0
 464.600585938 400 504.600585938 379 504.600585938 379 c 1
 490.600585938 334 l 1
 464.600585938 346 430.600585938 352 397.600585938 350 c 0
 327.52734375 345.8515625 254.712890625 302.787109375 253.600585938 218 c 0
 252.600585938 140.005859375 316.598632812 52.2841796875 479.600585938 53 c 0
383.974609375 671.124023438 m 1
 455.158203125 680 l 1
 454.000976562 652.919921875 489.334960938 567.0546875 529.158203125 549 c 0
 605.26171875 516.365234375 644.32421875 581.057617188 701.158203125 533 c 1
 718.158203125 500 l 1
 649.293945312 518.92578125 598.65234375 455.291015625 507.158203125 485.301757812 c 0
 416.635742188 516.791992188 437.580078125 651.103515625 383.974609375 671.124023438 c 1
EndSplineSet
Fore
SplineSet
302 764 m 1
 341 778 l 1
 429 746 411 646 443 586 c 0
 473 531 556 522 649 563 c 1
 672 526 l 1
 599 479 441 451 389 556 c 0
 356 621 364 728 302 764 c 1
50 253 m 0
 50 432 183 531 315 531 c 1
 321 521 327 485 320 466 c 5
 185 466 107 389 107 279 c 0
 107 153 217 64 391 64 c 0
 586 64 673 226 675 376 c 0
 677 622 478 735 302 763 c 1
 302 779 297 795 312 811 c 1
 573 771 747 591 747 361 c 0
 747 131 606 -36 389 -36 c 0
 155 -36 50 108 50 253 c 0
EndSplineSet
EndChar

StartChar: si_Da
Encoding: 42 3503 45
GlifName: si_D_a
Width: 619
VWidth: 13
Flags: HMW
LayerCount: 5
Back
SplineSet
526.106445312 -389.28125 m 1
 382.545898438 -403.743164062 323.763671875 -298.6640625 320.015625 -231 c 4
 317.322265625 -146.361328125 373.14453125 -34.4345703125 513.015625 16 c 1
 525.015625 18.3330078125 533.015625 -0.3330078125 497.015625 2 c 1
 257.522460938 -90.2666015625 42.9150390625 -4.337890625 45.015625 165 c 0
 46.935546875 319.76171875 209.903320312 393.12109375 401.015625 394 c 0
 460.018554688 394.271484375 503.015625 385 503.015625 385 c 1
 503.015625 387.5 492.370117188 375.5 492.015625 378 c 1
 495.615234375 475 377.015625 506 322.015625 498 c 1
 266.015625 409 l 1
 220.015625 412 199.572265625 452.114257812 209.015625 488 c 0
 224.015625 545 277.015625 571 340.015625 571 c 0
 412.015625 571 510.015625 528 524.015625 444 c 0
 533.111328125 389.426757812 517.015625 345 517.015625 345 c 1
 517.015625 343 l 1
 277.473632812 364.4921875 166.551757812 306.422851562 156.015625 199 c 0
 142.364257812 59.8173828125 307.245117188 -31.3037109375 553.015625 57 c 1
 569.015625 23 l 1
 475.79296875 -18.275390625 429.576171875 -95.525390625 418.015625 -148 c 0
 402.9453125 -208.849609375 397.454101562 -324.783203125 549.374023438 -359.80859375 c 1
 526.106445312 -389.28125 l 1
EndSplineSet
Fore
SplineSet
33 183 m 0
 33 344.70995671 182.791829656 424 377 424 c 0
 450.818181818 424 503 415 503 415 c 1
 503 419.857142857 487.312055974 390.74683754 488 398 c 0
 498 503.432450735 401.948048313 531.13929826 342 528 c 1
 286 439 l 1
 240.389830508 442.193548387 217 473.064516129 217 505 c 0
 217 568.36 276.330143541 601 347 601 c 0
 428.818181818 601 527 539 527 440 c 0
 527 400 519 376 517 373 c 1
 474.315217391 376 434.217391304 377 398 377 c 0
 225.714814815 377 141 316.219512195 141 199 c 0
 141 111.198757764 211.015823172 47 348 47 c 4
 408.027624309 47 499.767955801 63.9230769231 553 91 c 1
 565 86.1428571429 568 52.1428571429 563 40 c 1
 463.945039017 -6.13762609887 411 -82.8605088025 411 -174 c 0
 411 -233 437 -304 549 -330 c 1
 548 -340 539 -351 526 -359 c 1
 517 -360 508 -361 500 -361 c 0
 378.472222222 -361 325 -263.590361446 325 -196 c 0
 325 -105.278177661 379.549222798 -10.3734439834 513 37 c 1
 497 26 l 1
 426.492146597 -2.73684210526 358.089005236 -16 296 -16 c 0
 143.842911877 -16 33 62 33 183 c 0
EndSplineSet
Layer: 3
SplineSet
456.106445312 -399.28125 m 5
 373.345703125 -372.770507812 330.344726562 -299.50390625 328.015625 -225 c 4
 325.43359375 -142.416992188 378.942382812 -33.208984375 513.015625 16 c 5
 525.015625 18.3330078125 533.015625 -0.3330078125 497.015625 2 c 5
 257.522460938 -90.2666015625 42.9150390625 -4.337890625 45.015625 165 c 4
 46.935546875 319.76171875 209.903320312 393.12109375 401.015625 394 c 4
 460.018554688 394.271484375 503.015625 385 503.015625 385 c 5
 503.015625 387.5 492.370117188 375.5 492.015625 378 c 5
 495.615234375 475 377.015625 506 322.015625 498 c 5
 266.015625 409 l 5
 220.015625 412 199.572265625 452.114257812 209.015625 488 c 4
 224.015625 545 277.015625 571 340.015625 571 c 4
 412.015625 571 510.015625 528 524.015625 444 c 4
 533.111328125 389.426757812 517.015625 345 517.015625 345 c 5
 517.015625 343 l 5
 277.473632812 364.4921875 166.551757812 306.422851562 156.015625 199 c 4
 142.364257812 59.8173828125 307.245117188 -31.3037109375 553.015625 57 c 5
 569.015625 23 l 5
 477.028320312 -15.8623046875 431.986328125 -88.3837890625 420.015625 -138 c 4
 401.427734375 -215.045898438 416.208984375 -321.025390625 471.374023438 -369.80859375 c 5
 456.106445312 -399.28125 l 5
EndSplineSet
EndChar

StartChar: si_Dha
Encoding: 43 3504 46
GlifName: si_D_ha
Width: 861
VWidth: 16
Flags: HMW
LayerCount: 5
Back
SplineSet
391.62109375 284 m 5
 256.125 301.37890625 129.086914062 252.458984375 133.62109375 158 c 4
 136.690429688 87.791015625 224.892578125 45.1572265625 370.62109375 46 c 4
 564.62109375 47.1220703125 672.62109375 174.791015625 672.62109375 339 c 4
 672.62109375 547.71875 563.5625 679.712890625 347.62109375 677 c 4
 224.684570312 675.456054688 137.931640625 606 134.62109375 606 c 5
 102.62109375 660 l 5
 144.857421875 688.125 225 735.633789062 363.62109375 735 c 4
 571.4375 734.018554688 735.62109375 582.319335938 735.62109375 331 c 4
 735.62109375 111.353515625 604.036132812 -48.5791015625 380.62109375 -58 c 4
 198.177734375 -65.2548828125 54.970703125 8.0341796875 51.62109375 137 c 4
 47.865234375 299.32421875 245.060546875 339.377929688 359.62109375 332 c 5
 359.62109375 402 309.62109375 438 217.62109375 438 c 5
 191.62109375 357 l 5
 140.62109375 350 106.381835938 378.857421875 114.62109375 425 c 4
 124.62109375 481 182.62109375 500 229.62109375 500 c 4
 305.62109375 500 395.620117188 463 399.62109375 359 c 4
 401.004882812 323.026367188 391.62109375 284 391.62109375 284 c 5
EndSplineSet
Fore
SplineSet
34 211 m 0
 34 400.848157633 178.320610687 501 308 501 c 0
 368 501 399 482 399 482 c 1
 404.5 468.443984375 402 439.6 393 429 c 1
 367.475585938 440 335.29296875 445 302 445 c 0
 202.569148936 445 101 363.774442506 101 234 c 0
 101 143.192969586 158.466796875 74 255 74 c 0
 339.48046875 74 389 131 389 218 c 1
 402 223 418 226 431 223 c 1
 431 137 476.823242188 70 567 70 c 0
 688.663085938 70 744 202.173828125 744 346 c 0
 744 589.733398438 566.072265625 705 374 705 c 4
 236.94140625 705 143.936523438 633 141 633 c 5
 126 649 130 679 135 699 c 1
 186.030273438 731 264.350585938 764 388 764 c 4
 611.7109375 764 811 601.009765625 811 348 c 0
 811 165.325195312 744.008789062 -30 564 -30 c 0
 460.249023438 -30 397.86328125 31.2119140625 398 106 c 1
 417 107 l 1
 419.05078125 28 340.194335938 -29.3076171875 252 -30 c 0
 124.819335938 -30.9560546875 34 66.830310832 34 211 c 0
EndSplineSet
EndChar

StartChar: si_Nda
Encoding: 45 3507 47
GlifName: si_N_da
Width: 674
VWidth: 13
Flags: HMW
LayerCount: 5
Fore
SplineSet
42 279 m 4
 39.7716049383 458.306122449 167.024691358 601.93877551 404 601 c 4
 456 531 l 5
 351 551 l 5
 201.305084746 544.853146853 91.5166240443 416.77773535 95 258 c 4
 96.1904761905 195.882352941 143.80952381 111.764705882 220 82 c 5
 187 42 l 5
 104.64 91.0828402366 43.3135397969 173.307014178 42 279 c 4
EndSplineSet
Refer: 45 3503 N 1 0 0 1 55 0 2
EndChar

StartChar: si_Pha
Encoding: 47 3509 48
GlifName: si_P_ha
Width: 802
VWidth: 16
Flags: HMW
LayerCount: 5
Back
SplineSet
363.974609375 671.124023438 m 1
 435.158203125 680 l 1
 434.000976562 652.919921875 469.334960938 567.0546875 509.158203125 549 c 0
 585.26171875 516.365234375 624.32421875 581.057617188 681.158203125 533 c 1
 698.158203125 500 l 1
 629.293945312 518.92578125 578.65234375 455.291015625 487.158203125 485.301757812 c 0
 396.635742188 516.791992188 417.580078125 651.103515625 363.974609375 671.124023438 c 1
432.663085938 668.212890625 m 0
 386.86328125 677.881835938 383.977539062 669.99609375 342.158203125 663 c 1
 343.158203125 731 l 1
 668.21484375 730.212890625 787.158203125 516.80859375 787.158203125 311 c 0
 787.158203125 91.0390625 667.127929688 -50.3818359375 477.158203125 -58 c 0
 268.44921875 -65.8603515625 153.522460938 17.8017578125 150.158203125 121 c 0
 145.772460938 269.0703125 299.12890625 309.060546875 412.158203125 303 c 5
 405.158203125 375.333007812 357.158203125 419 289.158203125 408 c 5
 263.158203125 327 l 1
 216.794921875 320 185.66796875 348.857421875 193.158203125 395 c 0
 202.549804688 451 257.01953125 470 301.158203125 470 c 0
 367.158203125 470 447.157226562 443 451.158203125 339 c 0
 452.541992188 303.026367188 443.158203125 252 443.158203125 252 c 1
 315.408203125 268.000976562 222.501953125 233.91015625 223.158203125 156 c 4
 223.698242188 85.6572265625 317.206054688 50.9384765625 461.158203125 52 c 0
 634.061523438 53.2998046875 725.158203125 160.372070312 725.158203125 346 c 0
 725.158203125 548.7109375 566.444335938 641.901367188 432.663085938 668.212890625 c 0
EndSplineSet
Fore
SplineSet
317 412 m 5
 324.269230769 412 331.538461538 412 338 411 c 5
 338 480.339622642 278 516 206 516 c 5
 146 435 l 5
 122.724137931 435 92.6485087395 452.993400263 92 492 c 4
 91 548 148 581 207 581 c 4
 285 581 381 532 381 423 c 4
 381 389 373 358 373 358 c 5
 355 360 334 361 316 361 c 5
 222.449760766 361.592105263 108 315.694515994 108 221 c 4
 108 126.127659574 210.630824373 74 386 74 c 4
 610 74 684.156602808 226.998033062 686 380 c 4
 689 629 488 738 302 766 c 5
 296 780 294 814 307 824 c 5
 568 784 747 601 747 371 c 4
 747 134 609 -26 382 -26 c 4
 149 -26 50 78 50 193 c 4
 50 345.588420955 183.217773438 410.723263937 317 412 c 5
302 767 m 5
 341 788 l 5
 429 756 410.438055114 655.696898958 443 596 c 4
 473 541 556 532 649 573 c 5
 672 536 l 5
 599 489 442.042332956 461.522677511 389 566 c 4
 356 631 364 731 302 767 c 5
EndSplineSet
EndChar

StartChar: si_Ba
Encoding: 48 3510 49
GlifName: si_B_a
Width: 871
VWidth: 6
Flags: HMW
LayerCount: 5
Back
SplineSet
539.479492188 284 m 1
 403.983398438 301.37890625 276.9453125 252.458984375 281.479492188 158 c 0
 284.677734375 82.6845703125 376.602539062 39.095703125 528.479492188 40 c 0
 718.625 41.1494140625 824.479492188 165.786132812 824.479492188 334 c 0
 824.479492188 543.329101562 714.078125 679.720703125 495.479492188 677 c 0
 372.54296875 675.456054688 285.790039062 606 282.479492188 606 c 1
 250.479492188 660 l 1
 292.715820312 688.125 372.858398438 735.633789062 511.479492188 735 c 0
 721.53125 734.015625 887.479492188 585.947265625 887.479492188 334 c 0
 887.479492188 114.912109375 758.118164062 -48.603515625 538.479492188 -58 c 0
 350.491210938 -65.2548828125 202.930664062 8.0341796875 199.479492188 137 c 0
 195.723632812 299.32421875 392.918945312 339.377929688 507.479492188 332 c 1
 507.479492188 402 457.479492188 438 365.479492188 438 c 1
 339.479492188 357 l 1
 288.479492188 350 254.240234375 378.857421875 262.479492188 425 c 0
 272.479492188 481 330.479492188 500 377.479492188 500 c 0
 453.479492188 500 543.478515625 463 547.479492188 359 c 0
 548.86328125 323.026367188 539.479492188 284 539.479492188 284 c 1
EndSplineSet
Fore
SplineSet
65 186 m 4
 65 372.166015625 183.4609375 485.158203125 328 486 c 0
 489.928710938 486.943359375 575.69595499 367.085462562 561 234 c 1
 557.263513711 226.838543569 553.102352088 222.532420201 549 220 c 1
 506.142757075 217.407407407 464 187.109375 464 143 c 0
 464 99.2822265625 504.198242188 72 576 72 c 0
 685.088867188 72 763.353591853 191.398897959 766 343 c 0
 769.58177818 548.184343893 640.249763587 704 389 704 c 0
 259.228310502 704 144 625 144 625 c 1
 132.510989011 635.22796974 120.835164835 660.014925373 127 694 c 1
 127 694 229.915254237 766 403 766 c 0
 629.584491033 766 835 606.781902552 835 345 c 0
 835 132.707446809 743.466796875 -28 582 -28 c 0
 457.541992188 -28 408 51.2978515625 408 123 c 0
 408 208.002929688 470.079646018 255 523 267 c 1
 521 252 l 1
 518.834960938 342.61328125 399.927734375 400.114257812 311 397 c 0
 187.305664062 392.66796875 115 315.661132812 115 184 c 4
 115 84.40625 170.307617188 16.80859375 243 19 c 0
 282.618164062 20.1943359375 303 50.2001953125 303 79 c 0
 303 108.64453125 282.692382812 130 255 130 c 0
 222.6328125 130 195 110.385742188 195 63 c 0
 195 39.2724609375 205.034179688 12.3935546875 232 8 c 1
 208 -3 l 1
 183.663085938 -0.849609375 156 30.1748046875 156 75 c 0
 156 143.201171875 206.47265625 186 260 186 c 0
 312.245117188 186 358 148.96039604 358 87 c 0
 358 33.1090909091 315.352539062 -27 242 -27 c 0
 120.161132812 -27 65 90.2099609375 65 186 c 4
EndSplineSet
EndChar

StartChar: si_Bha
Encoding: 49 3511 50
GlifName: si_B_ha
Width: 1101
VWidth: 6
Flags: HMW
LayerCount: 5
Back
SplineSet
59.7021484375 373 m 5
 438.702148438 372 l 5
 433.702148438 331 l 5
 142.702148438 326 l 5
 58.7021484375 308 l 5
 59.7021484375 373 l 5
EndSplineSet
Refer: 57 3524 S 1 0 0 1 94.7024 0 2
Fore
SplineSet
61 353 m 5
 56 375 55 394 61 410 c 5
 440 410 l 5
 442 368 l 5
 146 368 l 5
 61 353 l 5
EndSplineSet
Refer: 57 3524 N 1 0 0 1 95 0 2
EndChar

StartChar: si_Ma
Encoding: 50 3512 51
GlifName: si_M_a
Width: 860
VWidth: 16
Flags: HMW
LayerCount: 5
Back
SplineSet
579.435546875 365.115234375 m 4
 579.435546875 288.6171875 535.44140625 186.986328125 406.919921875 186.986328125 c 4
 301.862304688 186.986328125 218.43359375 239.481445312 218.43359375 355 c 4
 218.43359375 404.5390625 203.478515625 425.005859375 170.286132812 425.005859375 c 4
 123.544921875 425.005859375 97.81640625 359.7890625 97.81640625 286.059570312 c 4
 97.81640625 141.196289062 216.984375 43.9912109375 406.263671875 43.9912109375 c 4
 621.899414062 43.9912109375 706.645507812 196.577148438 708.708007812 339 c 4
 711.317382812 519.211914062 619.583007812 670.03515625 379.115234375 670.03515625 c 4
 251.059570312 670.03515625 165.360351562 603 162.43359375 603 c 5
 134.43359375 652 l 5
 134.43359375 652 249.493164062 732.00390625 393.659179688 732.00390625 c 4
 635.116210938 732.00390625 775.388671875 548.2265625 775.388671875 334 c 4
 775.388671875 95.5927734375 630.669921875 -58 407.43359375 -58 c 4
 144.686523438 -58 39.3740234375 94.173828125 39.3740234375 240.522460938 c 4
 39.3740234375 395.615234375 97.1484375 473.034179688 174.0390625 473.034179688 c 4
 224.393554688 473.034179688 262.252929688 436.755859375 262.252929688 367 c 4
 262.252929688 262.442382812 357.040039062 249.48828125 404.50390625 249.998046875 c 4
 493.490234375 250.954101562 538.973632812 299.7265625 540.484375 369.48046875 c 4
 541.915039062 435.499023438 492.567382812 486.001953125 416.873046875 476.001953125 c 4
 382.168945312 471.017578125 359.424804688 447.6796875 359.424804688 417.051757812 c 4
 359.424804688 397.314453125 371.916015625 368.55859375 406.715820312 368.55859375 c 4
 441.966796875 368.55859375 459.431640625 399.53125 459.431640625 426.853515625 c 4
 459.431640625 446.291015625 453.889648438 467.45703125 442.43359375 485.561523438 c 5
 468.43359375 484.561523438 l 5
 485.984375 466.829101562 494.556640625 444.040039062 494.556640625 420.515625 c 4
 494.556640625 369.309570312 462.387695312 319.997070312 401.740234375 319.997070312 c 4
 361.481445312 319.997070312 310.426757812 346.129882812 310.426757812 409.010742188 c 4
 310.426757812 462.715820312 352.796875 515 426.43359375 515 c 4
 516.475585938 515 579.435546875 444.900390625 579.435546875 365.115234375 c 4
EndSplineSet
Fore
SplineSet
50 271 m 0
 49 420 134 500 201 500 c 0
 246 500 274.453561798 474.005395202 275 409 c 0
 276.067567568 282 368.942589448 268.199445083 433 269 c 0
 513.016260162 270 564.010503267 313.022137904 566 376 c 0
 567.837037037 442.817391304 511.340989916 503.20970437 442 489 c 0
 401.438596491 484.15625 374 460.90625 374 427 c 0
 374 402 387 380 421 380 c 0
 456 380 473 411 473 438 c 0
 473 467 466 486 456 497 c 1
 486 506 l 1
 502 491 509 463 509 432 c 0
 509 382 475 332 415 332 c 0
 363 332 325 366 325 421 c 0
 325 481 378.834645669 530 454 530 c 0
 548.777070064 530 609 455 609 378 c 0
 609 301.034682081 557.684486307 201 430 201 c 0
 313.030237459 201 235.57607377 266.77238526 233 393 c 0
 232 442 220 457 195 457 c 0
 147 457 106.84279186 387.998047107 108 296 c 0
 110.01910828 137 257.414896364 53.1426033151 425 52 c 4
 638.661592192 50.5768849206 740.239788162 196.140036849 747 354 c 0
 754.674698795 541.612716763 632.975903615 703 383 703 c 0
 258.724137931 703 174.133004926 637 171 637 c 1
 161 643 146 675 153 700 c 1
 153 700 252.511076225 763.785580049 405 760 c 0
 654.591623037 753.95477387 809 574.613065327 809 359 c 0
 809 110.678571429 650.666666667 -50 429 -50 c 4
 184.846361186 -50 51.2272204483 92.0039072176 50 271 c 0
EndSplineSet
Layer: 2
SplineSet
195.43359375 418 m 5
 154.384765625 386.802734375 129.760742188 320.063476562 132.43359375 258 c 4
 137.9375 130.204101562 257.428710938 60.369140625 390.43359375 60 c 4
 585.4296875 59.458984375 668.725585938 192.06640625 674.43359375 317 c 4
 683.43359375 514 578.431640625 663.875976562 381.43359375 667 c 4
 260.432617188 668.918945312 166.43359375 595 163.43359375 595 c 5
 145.43359375 621 l 4
 145.43359375 621 250.431640625 706.665039062 397.43359375 706 c 4
 618.43359375 705 756.43359375 549 746.43359375 312 c 4
 737.623046875 103.185546875 614.43359375 -59 393.43359375 -59 c 4
 170.43359375 -59 70.9033203125 63.16796875 68.43359375 209 c 4
 66.09375 347.161132812 127.37109375 412.219726562 180.43359375 451 c 4
 195.43359375 450.357421875 l 5
 210.896484375 436 l 5
 208.10546875 339.133789062 255.377929688 230.7109375 388.43359375 230 c 4
 483.4375 229.4921875 507.43359375 298 507.43359375 343 c 4
 507.43359375 396.241210938 462.440429688 441.466796875 399.43359375 442 c 4
 356.6328125 442.362304688 335.696289062 421.0390625 335.43359375 396 c 4
 335.149414062 368.926757812 351.43359375 353 380.43359375 351.561523438 c 4
 438.470703125 348.682617188 425.442382812 415.986328125 426.43359375 445.561523438 c 5
 426.948242188 440.146484375 465.392578125 443.584960938 453.43359375 435.561523438 c 5
 469.68359375 412.91796875 467.865234375 308.831054688 376.43359375 310 c 4
 321.356445312 310.704101562 295.171875 346.096679688 294.43359375 385.856445312 c 4
 293.428710938 440.03125 338.43359375 481 401.43359375 481 c 4
 471.43359375 481 552.43359375 438 550.43359375 334 c 4
 549.483398438 284.586914062 514.43359375 184 381.43359375 184 c 4
 251.221679688 184 166.583007812 277.543945312 174.43359375 419 c 5
 195.43359375 418 l 5
EndSplineSet
EndChar

StartChar: si_Mba
Encoding: 51 3513 52
GlifName: si_M_ba
Width: 860
VWidth: 16
Flags: HMW
LayerCount: 5
Back
SplineSet
670.83984375 -43.013671875 m 0
 839.158203125 -43.013671875 895.110351562 190.034179688 895.110351562 317.23046875 c 0
 895.110351562 538.0703125 765.614257812 743.002929688 495.338867188 743.002929688 c 0
 326.002929688 743.002929688 204.0859375 657 204.0859375 657 c 1
 239.0859375 600 l 1
 242.36328125 600 334.487304688 680.51953125 475.0859375 682 c 0
 739.8671875 684.788085938 824.37890625 534.267578125 824.37890625 325.692382812 c 4
 824.37890625 203.387695312 774.783203125 55.2900390625 659.357421875 55.2900390625 c 0
 605.260742188 55.2900390625 568.459960938 81.6787109375 565.0859375 124.466796875 c 1
 577.348632812 146.537109375 607.0859375 164.547851562 607.0859375 206 c 0
 607.0859375 242.514648438 565.125 273.0390625 490.334960938 273.0390625 c 0
 426.0234375 273.0390625 388.0625 238.702148438 388.0625 200.985351562 c 0
 388.0625 164.037109375 411.65625 139.123046875 432.0859375 125.828125 c 1
 416.315429688 74.7548828125 380.97265625 53.9873046875 319.737304688 53.9873046875 c 0
 231.51953125 53.9873046875 185.083007812 135.182617188 185.083007812 225.384765625 c 0
 185.083007812 328.625 225.909179688 408.010742188 294.146484375 408.010742188 c 0
 330.272460938 408.010742188 337.0859375 371.577148438 337.0859375 328 c 0
 337.0859375 285.559570312 380.33203125 226 503.571289062 226 c 0
 613.525390625 226 666.325195312 310.2734375 666.325195312 377.76953125 c 0
 666.325195312 460.4921875 608.74609375 513 534.0859375 513 c 0
 449.634765625 513 417.076171875 452.721679688 417.076171875 413.915039062 c 0
 417.076171875 349.384765625 462.661132812 321.98046875 504.137695312 321.98046875 c 0
 563.447265625 321.98046875 589.301757812 371.37109375 589.301757812 418.228515625 c 0
 589.301757812 436.395507812 585.415039062 454.181640625 578.0859375 468.561523438 c 1
 536.0859375 473.561523438 l 1
 547.341796875 459.3125 552.583007812 442.65625 552.583007812 427.069335938 c 0
 552.583007812 398.484375 535.029296875 373.55859375 504.462890625 373.55859375 c 0
 470.497070312 373.55859375 457.078125 399.428710938 457.078125 419.184570312 c 0
 457.078125 443.725585938 479.545898438 473.001953125 517.560546875 473.001953125 c 0
 595.760742188 473.001953125 618.3125 404.42578125 612.3125 356.34375 c 0
 607.700195312 319.385742188 588.120117188 272.963867188 498.317382812 272.963867188 c 0
 428.198242188 272.963867188 383.905273438 296.475585938 383.905273438 350 c 0
 383.905273438 419.559570312 346.916992188 456.045898438 300.935546875 456.045898438 c 0
 203.6484375 456.045898438 117 350.512695312 117 202.122070312 c 0
 117 101.249023438 158.779296875 -42.017578125 314.000976562 -42.017578125 c 0
 405.6328125 -42.017578125 478.091796875 20.4423828125 478.091796875 149.018554688 c 0
 478.091796875 150 444.077148438 167.112304688 444.077148438 195.217773438 c 0
 444.077148438 222.396484375 487.146484375 225.1015625 499.838867188 225.1015625 c 0
 505.157226562 225.1015625 551.107421875 219.705078125 551.107421875 194.515625 c 0
 551.107421875 161.596679688 519.0859375 149 519.0859375 149 c 1
 518.921875 144.627929688 518.840820312 140.3359375 518.840820312 136.122070312 c 0
 518.840820312 12.9931640625 587.916015625 -43.013671875 670.83984375 -43.013671875 c 0
EndSplineSet
Fore
SplineSet
806 361 m 0
 803.548560718 576.72665678 659.382198953 754.150753769 424 760 c 0
 266.069323424 763.960123934 163 700 163 700 c 1
 156 675 171 643 181 637 c 1
 184.266009852 637 272.448275862 703 402 703 c 0
 636.180722892 703 741.554066498 545.417288747 743 356 c 0
 744 225 686 65 557 65 c 0
 513 65 493 75 481 86 c 1
 500 91 530 108 530 141 c 0
 530 179 485 213 418 213 c 0
 343 213 299 177 299 137 c 0
 299 108 323 94 343 86 c 1
 328 73 314 65 278 65 c 0
 160 65 95 180 95 286 c 4
 95 391.509765625 140 487 188 487 c 4
 213 487 225 472 226 423 c 4
 228.522460938 299.403320312 303.186523438 235 416 235 c 4
 548.677734375 235 602 323 602 408 c 4
 602 485 552 556 456 556 c 4
 382 556 337 500 337 446 c 4
 337 385 385 360 427 360 c 4
 487 360 519 408 519 458 c 4
 519 482 508 507 492 522 c 5
 466 523 l 5
 477 505 483 486 483 464 c 4
 483 437 466 406 431 406 c 4
 397 406 384 432 384 450 c 4
 384 485 407 512 441 517 c 4
 516.974609375 528.172851562 561 474 559 406 c 4
 557.008789062 343.017578125 502.032226562 300 416 299 c 4
 355.99609375 298.25 269 312 268 439 c 4
 267.48828125 504.005859375 239 530 194 530 c 4
 127 530 34.3486328125 418.418945312 36 262 c 4
 37.48828125 120.994140625 95 -32 252 -32 c 0
 318 -32 388 0 388 99 c 0
 388 100 352 106 352 129 c 0
 352 155 382 165 415 165 c 0
 447 165 479 155 479 129 c 0
 479 106 437 99 437 99 c 1
 434 1 492 -33 572 -33 c 0
 753 -33 808 185 806 361 c 0
EndSplineSet
EndChar

StartChar: si_Ya
Encoding: 52 3514 53
GlifName: si_Y_a
Width: 885
VWidth: 6
Flags: HMW
LayerCount: 5
Back
SplineSet
533.029296875 366 m 1xfe
 665.262695312 410.743164062 830.029296875 353.65625 830.029296875 178 c 0
 830.029296875 41.892578125 749.337890625 -53 621.029296875 -53 c 0
 512.40625 -53 447.931640625 13 446.029296875 108 c 1
 444.029296875 105 479.029296875 111 477.029296875 108 c 1
 470.10546875 27 414.142578125 -51.3505859375 295.029296875 -52 c 0
 148.044921875 -52.837890625 66.740234375 49.0859375 66.029296875 178 c 0
 65.287109375 339.895507812 177.08984375 459.76953125 309.029296875 464 c 0
 335.03515625 464.833984375 362.029296875 463 386.029296875 453 c 1
 377.029296875 388 l 5
 344.204101562 402.400390625 319.0234375 404.036132812 276.029296875 401 c 4
 207.543945312 396.028320312 126.471679688 344.875976562 128.029296875 219 c 0
 129.1640625 124.959960938 193.806640625 62.5048828125 291.029296875 61 c 0
 370.528320312 59.796875 438.755859375 93 441.029296875 197 c 1
 477.029296875 197 l 1
 477.029296875 100 547.961914062 56 629.029296875 56 c 0
 733.25 56 768.918945312 116.850585938 770.029296875 188 c 0xfd
 771.225585938 267.428710938 710.802734375 384.211914062 513.029296875 321 c 1
 508.029296875 349.743164062 505.732421875 349.853515625 504.029296875 380 c 0
 494.614257812 484.619140625 578.416992188 548.891601562 665.029296875 549 c 0
 736.234375 549.086914062 802.029296875 514 802.029296875 434 c 0
 802.029296875 338 709.029296875 312 709.029296875 312 c 1
 683.029296875 329 l 1
 683.029296875 329 734.23828125 342.997070312 735.029296875 402 c 0
 735.672851562 449.994140625 684.130859375 479.125 640.029296875 479 c 0
 589.134765625 478.870117188 543.572265625 453 538.029296875 401 c 0
 534.029296875 355 551.029296875 339 551.029296875 339 c 1
 533.029296875 366 l 1xfe
EndSplineSet
Fore
SplineSet
53 209 m 4
 50.9193548387 398.720692142 175.887536485 483.866163418 311 491 c 0
 330 492 349 490 366 486 c 1
 371 469.479166667 366 440.25 358 425 c 5
 339.666666667 431.875 322.555555556 436 303 436 c 4
 207.05612558 436 113.301669212 373.413220359 112 252 c 0
 110.891953588 146.387793759 183.038703304 74 288 74 c 0
 366.911811879 74 444.976626413 112.321428571 447 219 c 1
 452 225 471 235 486 229 c 1
 486 121.537931034 544.313476562 70 632 70 c 0
 736.621621622 70 788.78510338 148.953824606 790 229 c 0
 791.063694268 299.083870968 742.133757962 377 623 377 c 0
 594 377 561 372 523 359 c 1
 518 378.54296875 513 399.114257812 513 431 c 0
 513 530 593.407407407 589 680 589 c 0
 748.853290243 589 819 552.782608696 819 470 c 0
 819 384.088717454 727 352 727 352 c 1
 702 369 l 1
 702 369 751 389 751 448 c 0
 751 495 706 524 655 524 c 0
 602.075471698 524 553 490 553 429 c 0
 553 391.530273438 569 378 569 378 c 1
 527 393 l 1
 543 406 l 1
 572 416 601 421 631 421 c 0
 743.119617225 421 850 355 850 205 c 0
 850 69 751.009765625 -24 636 -24 c 0
 522.450375949 -24 457.541980994 35.8742138365 453 146 c 1
 453 145 454 145 456 145 c 0
 462 145 475 147 481 147 c 0
 483 147 484.081526045 146.996671212 484 146 c 0
 476.825561312 58.2911392405 405.990861804 -23 283 -23 c 4
 132.657894737 -23 54.410999261 80.3400240499 53 209 c 4
EndSplineSet
EndChar

StartChar: si_La
Encoding: 54 3517 54
GlifName: si_L_a
Width: 910
VWidth: 25
Flags: HMW
LayerCount: 5
Back
SplineSet
355 341 m 1
 443.666666667 336.596679688 532.333333333 339.290039062 621 341 c 1
 621 294 l 1
 355 294 l 1
 355 341 l 1
620 295 m 1
 547.709677419 295 537 262 537 239 c 0
 537 191.264496312 595.001138693 166.735844698 645 168 c 0
 730.586206897 170.163934426 781 218.852459016 781 300 c 0
 781 409.951923077 680.522180886 509.968996741 506 510 c 0
 309.467732884 510.033994334 184.02420052 333.001423777 177 145 c 0
 169.534239511 -54.8196944059 280.09053023 -214.834296789 482 -232 c 4
 638.394494372 -245.296164253 744.364444444 -168.980073294 790 -115 c 0
 836 -172 l 0
 793.174050633 -220.06060606 665.451836998 -297.584578157 489 -294 c 0
 238.676640506 -288.914738992 66.7577688588 -139.141784136 66 89 c 0
 65.064383628 370.68640861 263.869266055 564 513 564 c 0
 732.544303797 564 849 422 849 296 c 0
 849 155.94520548 762 83 642 83 c 0
 514.512820513 83 467.003722264 152.776664134 466 213 c 0
 465 273 508 323 548 327 c 1
 620 295 l 1
EndSplineSet
Fore
SplineSet
351 344 m 1
 350.978125 360.457278573 353.5046875 376.195147938 367 389 c 1
 653 389 l 1
 652.373046875 367.071809741 648.1875 349.71056436 633 344 c 1
 351 344 l 1
49 142 m 4
 49 420.85077951 263.971428572 594 517 594 c 0
 747.680473373 594 856 457 856 336 c 0
 856 206 756.984455959 135 646 135 c 0
 525.489617371 135 483 198 483 257 c 0
 483 327 536 363 574 367 c 1
 632 345 l 1
 555 345 533 319.515151515 533 287 c 0
 533 236.375 584.641509434 215 652 215 c 0
 715.84 215 785 256 785 348 c 0
 785 450 703.698884759 539 515 539 c 0
 291.945244957 539 146 380.733398438 146 167 c 4
 146 -42.4203385063 281.107032263 -195.20890139 513 -198 c 4
 668.069882683 -199.747895569 774.244897959 -130.754237288 819 -83 c 5
 834 -91.3265306123 844.909090909 -113.18367347 849 -134 c 5
 807.724137931 -175.751824818 703.551724138 -264 507 -264 c 4
 225.793644556 -264 49 -95.2469437653 49 142 c 4
EndSplineSet
EndChar

StartChar: si_Sha
Encoding: 56 3521 55
GlifName: si_S_ha
Width: 1005
VWidth: 6
Flags: HMW
LayerCount: 5
Back
SplineSet
884.334960938 287.131835938 m 5x9c
 881.387695312 202.45703125 l 5
 854.8671875 208.05078125 764.361328125 180.313476562 740.004882812 144 c 0
 695.302734375 74.296875 752.693359375 25.1318359375 695.946289062 -23.029296875 c 1
 650.600585938 -14.3720703125 l 1
 690.58984375 40.443359375 636.146484375 100.857421875 680.790039062 176.172851562 c 0
 729.661132812 258.620117188 855.774414062 237.546875 884.334960938 287.131835938 c 5x9c
711.764648438 17.6123046875 m 0
 814.735351562 29.5859375 867.627929688 108.114257812 867.627929688 229.600585938 c 0
 867.627929688 353.83984375 787.364257812 445.533203125 647.942382812 445.533203125 c 0
 567.075195312 445.533203125 456.370117188 397.33203125 449.8828125 254.823242188 c 1
 399.615234375 238.01171875 l 1
 395.662109375 437.1640625 526.456054688 542.603515625 666.684570312 542.603515625 c 0xdc
 838.6484375 542.603515625 931.875 411.889648438 931.875 267.375 c 0
 931.875 101.1640625 847.114257812 -54.5166015625 675.416015625 -55.814453125 c 0
 624.540039062 -56.19921875 584.66015625 -45.9150390625 566.6875 -36.138671875 c 1
 591.45703125 40.328125 l 1
 613.021484375 24.771484375 668.092773438 12.5341796875 711.764648438 17.6123046875 c 0
122.979492188 245.841796875 m 0
 122.229492188 128.7109375 191.219726562 50.8837890625 319.004882812 47.5908203125 c 0
 425.431640625 44.8486328125 496.637695312 87.9111328125 499.004882812 160 c 0
 500.32421875 200.172851562 473.772460938 237 400.004882812 237 c 1
 451.004882812 291 l 1
 500.004882812 290 562.657226562 244.21484375 563.004882812 160 c 0
 563.456054688 47.953125 484.599609375 -55.0048828125 319.603515625 -55.0048828125 c 0
 151.696289062 -55.0048828125 65 61.9140625 65 221.564453125 c 0
 65 428.865234375 221.293945312 536 348.004882812 538 c 0
 355.884765625 462.879882812 l 0xbc
 260.920898438 462.879882812 124.064453125 415.424804688 122.979492188 245.841796875 c 0
EndSplineSet
Fore
SplineSet
640 37 m 1
 724 17.945747487 700.619680308 114.654483231 700 156 c 0
 698 289.441441441 864 302.495495495 903 317 c 1
 903 252 l 1
 824.458905537 252 744.355763744 219.602792074 759 84 c 0
 765.353942353 25.1637241654 733.598019192 -1.35665184913 675 -3 c 1
 640 37 l 1
EndSplineSet
Refer: 29 3484 S 1 0 0 1 -1 0 2
EndChar

StartChar: si_Ssa
Encoding: 57 3522 56
GlifName: si_S_sa
Width: 818
VWidth: 6
Flags: HMW
LayerCount: 5
Back
SplineSet
517.016601562 352 m 1xff80
 467.016601562 333 l 1
 459.016601562 358 451.528320312 375.002929688 452.016601562 417 c 0
 453.016601562 503 524.016601562 556 595.016601562 556 c 0
 668.016601562 556 720.016601562 507 720.016601562 427 c 0
 720.016601562 359 633.016601562 309 633.016601562 309 c 1
 597.016601562 326 l 1
 631.068359375 347.129882812 665.901367188 377.10546875 666.016601562 417 c 0
 666.150390625 463 632.016601562 494 583.016601562 494 c 0
 534.984375 494 490.016601562 452 490.016601562 409 c 0
 490.016601562 357 517.016601562 352 517.016601562 352 c 1xff80
134.016601562 209 m 0
 133.016601562 124 218.016601562 45 403.016601562 45 c 0
 578.016601562 45 678.467773438 127.008789062 680.016601562 216 c 0
 681.791992188 318.00390625 564.016601562 348 467.016601562 333 c 1
 487.016601562 373 l 1
 632.016601562 402 755.223632812 330.994140625 751.016601562 193 c 0xff40
 746.016601562 29 579.016601562 -59 398.016601562 -59 c 0
 204.016601562 -59 53.1591796875 32.998046875 55.0166015625 180 c 0
 57.0166015625 330.426757812 212.016601562 399.4609375 331.016601562 373 c 1
 307.016601562 345 l 1
 314.016601562 365 327.389648438 386.33203125 323.016601562 415 c 0
 314.016601562 474 254.016601562 505 186.016601562 490 c 0
 219.016601562 511 l 1
 164.016601562 409 l 1
 123.016601562 411 96.6171875 436.013671875 98.0166015625 471 c 0
 100.016601562 521 157.016601562 557 217.016601562 557 c 0
 287.016601562 557 358.909179688 516.997070312 361.016601562 439 c 0
 362.016601562 402 356.016601562 370 347.016601562 333 c 1
 223.016601562 359 134.934570312 287.000976562 134.016601562 209 c 0
658.016601562 323 m 1
 567.806640625 270.456054688 532.510742188 251.752929688 409.016601562 246 c 0
 378.159179688 244.5625 327.151367188 242.704101562 326.016601562 200 c 0
 325.3203125 173.78515625 362.4140625 147.779296875 429.016601562 148 c 0
 467.728515625 148.127929688 509.22265625 171.149414062 509.30078125 212 c 0
 509.364257812 245.018554688 480.301757812 262.201171875 468.016601562 270 c 1
 502.016601562 290 l 1
 501.661132812 268.418945312 548.73828125 261.372070312 549.875976562 195 c 0
 550.79296875 141.533203125 493.875976562 95.91015625 399.016601562 94 c 0
 294.798828125 91.9013671875 243.958007812 135.838867188 245.016601562 190 c 0
 246.385742188 259.994140625 329.200195312 277.727539062 399.016601562 281 c 0
 557.551757812 288.431640625 584.90234375 327.166015625 631.016601562 345.561523438 c 1
 658.016601562 323 l 1
EndSplineSet
Fore
SplineSet
240 227 m 4
 240 305.956054688 339.688476562 313.998046875 419 317 c 4
 578 324.791992188 605 345.962264151 651 366 c 1
 678 353 l 1
 598 295.025641026 552.12890625 281.649414062 429 278 c 4
 388.124023438 277.045898438 280 277.045898438 280 236 c 4
 280 207.173828125 330.05859375 185 418 185 c 4
 460.162109375 185 538 200.803710938 538 244 c 4
 538 272.448242188 502.633789062 287.103515625 488 294 c 5
 522 314 l 5
 522 297.021484375 570 292.169921875 570 238 c 4
 570 179.764648438 509.385742188 130 413 130 c 4
 300.721679688 130 240 173.340820312 240 227 c 4
EndSplineSet
Refer: 1 3508 N 1 0 0 1 10 0 2
EndChar

StartChar: si_Ha
Encoding: 59 3524 57
GlifName: si_H_a
Width: 1016
VWidth: 6
Flags: HMW
LayerCount: 5
Back
SplineSet
319.004882812 336 m 1
 336.689453125 423.088867188 280.356445312 479.735351562 183.004882812 471 c 1
 133.004882812 389 l 1
 103.004882812 392 79.0048828125 409 79.0048828125 446 c 0
 79.0048828125 513 151.004882812 538 204.004882812 538 c 0
 284.004882812 538 359.661132812 488.983398438 364.004882812 404 c 0
 366.571289062 353.791015625 357.004882812 331.083007812 350.004882812 309 c 1
 319.004882812 336 l 1
692.764648438 3.6123046875 m 0
 799.782226562 12.49609375 855.627929688 99.1904296875 855.627929688 236.600585938 c 0
 855.627929688 356.831054688 794.529296875 434.868164062 662.942382812 436.533203125 c 0
 581.99609375 437.557617188 443.370117188 390.266601562 456.8828125 254.823242188 c 1
 409.615234375 244.01171875 l 1
 395.662109375 427.034179688 524.456054688 542.603515625 664.684570312 542.603515625 c 0
 839.677734375 542.603515625 919.875 412.364257812 919.875 268.375 c 0
 919.875 76.21875 823.327148438 -52.93359375 649.416015625 -54.814453125 c 0
 608.541015625 -55.275390625 578.66015625 -45.9150390625 560.6875 -36.138671875 c 1
 586.45703125 29.328125 l 1
 608.021484375 13.771484375 639.108398438 -0.669921875 692.764648438 3.6123046875 c 0
111.979492188 186.841796875 m 0
 110.703125 90.6962890625 189.278320312 50.7744140625 307.004882812 46.5908203125 c 0
 372.458984375 44.2646484375 480.271484375 73.1357421875 482.004882812 155 c 0
 483.32421875 217.323242188 455.772460938 238.487304688 410.004882812 243 c 1
 453.004882812 291 l 1
 494.004882812 281.302734375 544.657226562 242.743164062 545.004882812 152 c 0
 545.456054688 37.15234375 467.599609375 -53.0048828125 302.603515625 -53.0048828125 c 0
 144.696289062 -53.0048828125 55 28.916015625 55 151.564453125 c 0
 55 318.865234375 198.293945312 380 345.004882812 372 c 0
 348.884765625 309.879882812 l 0
 223.920898438 329.879882812 113.438476562 286.419921875 111.979492188 186.841796875 c 0
EndSplineSet
Fore
SplineSet
423 238 m 1
 418.985074627 451.376093294 546.458955224 580 692 580 c 0
 868.924290315 580 953 440.494699647 953 298 c 0
 953 131 876.948921367 -33 687 -33 c 4
 638 -33 596 -22 579 -12 c 1
 572 -4 568 36 588 56 c 1
 606 43 658.998188745 24.085131835 704 25 c 4
 844.408263475 28.012145749 885 159.542510122 885 273 c 0
 885 405.218604651 794.626362645 490 675 490 c 0
 572.233984375 490 473.062069954 423.205078125 467 238 c 1
 455 236 435 231 423 238 c 1
81 486 m 0
 81 543 141 582 214 582 c 0
 321.549804688 582 386 519.009765625 386 422 c 0
 386 383 378 369 372 349 c 1
 339 376 l 1
 341 387 342 384 342 394 c 0
 342 486 277 514 224 514 c 0
 197 514 200 509 193 508 c 1
 153 416 l 1
 103 419 81 449 81 486 c 0
61 177 m 0
 61 340.572093023 216.284288911 425.099367921 346 401 c 0
 351.905460041 399.940039575 361 398 367 398 c 1
 371 350 l 1
 350 355 328 360 309 360 c 0
 213.84 360 126 306.466666666 126 214 c 0
 126 124.604026846 208.793945312 65.328125 334 66 c 0
 460.118164062 66.6064453125 519 139 519 204 c 0
 519 245.389607235 486.325195312 268.112304688 447 266 c 1
 446 310 l 1
 525.8671875 314.991210938 577 257.215820312 577 190 c 0
 577 86.4912109375 506.291992188 -24 326 -24 c 0
 164.543945312 -24 61 59.2714285714 61 177 c 0
EndSplineSet
EndChar

StartChar: si_Lla
Encoding: 60 3525 58
GlifName: si_L_la
Width: 860
VWidth: 25
Flags: HMW
LayerCount: 5
Back
SplineSet
747.662109375 316.857421875 m 1
 706 371 l 1
 702 364 l 1
 705.431640625 434.71875 677.935546875 501.544921875 607 500 c 0
 564.47265625 499.07421875 501.913085938 463.9609375 503 371 c 1
 477 369 l 1
 478.138671875 459.625976562 436.20703125 505.03515625 375 503 c 0
 315.325195312 501.1328125 285.365234375 434.89453125 285 384 c 0
 284.149414062 262.900390625 356.349609375 167.662109375 518 154.3359375 c 0
 607.342773438 145.145507812 666.795898438 163.501953125 721 197 c 1
 735 166 l 1
 673.184570312 99.427734375 603.87109375 78.2412109375 503 78.9765625 c 0
 353.713867188 80.076171875 226.702148438 173.544921875 223 359 c 0
 220.709960938 471.076171875 279.064453125 571.12109375 378 573 c 4
 490.043945312 575.44140625 509.450195312 440.340820312 491 408 c 1
 482 415 l 1
 483.694335938 469.4453125 522.125976562 572.453125 615 573 c 0
 690.361328125 573.443359375 747.099609375 522.587890625 752 418 c 0
 753.997070312 375.379882812 750.545898438 346.486328125 747.662109375 316.857421875 c 1
212 82 m 0
 186.310546875 -46.61328125 257.73828125 -214.885742188 441 -236.380859375 c 0
 575.911132812 -252.205078125 657.588867188 -209.567382812 731 -151 c 1
 765 -208 l 1
 715.22265625 -243.866210938 608.870117188 -302.046875 457 -296.19140625 c 0
 179.451171875 -285.490234375 85.052734375 -102.752929688 96 34 c 0
 118.716796875 317.774414062 372.760742188 376.5625 528 379 c 0
 628.391601562 380.576171875 686.189453125 371.364257812 733 365 c 1
 733 370 708.833007812 346 708 351 c 1
 750 423 l 0
 759.095703125 368.426757812 747 318 747 318 c 1
 747 316 l 1
 403.766601562 346.892578125 253.637695312 290.458007812 212 82 c 0
EndSplineSet
Fore
SplineSet
146 83 m 1
 143.167079479 226.022698996 211.311117846 342.683157091 411 357 c 0
 534.685864052 362.118404365 717.552136276 354.6875 776 350 c 1
 797.898651727 468.150735462 748.34963817 589.587650256 635 591 c 0
 556.392919892 591.998121894 508.831614208 522.416391226 509 489 c 1
 516 486 l 1
 521.333333333 484.46875 524 482.0625 524 479 c 0
 524 520.007751938 480.879699248 594 394 594 c 0
 289.920731707 594 225 486.342042064 225 351 c 4
 225 169.434330225 405.256426117 106.422831395 512 104 c 0
 637.358806645 101.139131342 704.549312085 141.946808511 763 191 c 1
 765.656191783 204.61104178 759.979392594 222.001317154 752 232 c 1
 701.703349282 197.439612564 606.633349342 179.658214681 533 181 c 0
 435.931683299 182.748527321 278 232.55517523 278 376 c 4
 278 464.678271691 323.796460177 537 393 537 c 0
 452.4 537 482.942857143 497.395833333 492 450 c 1
 507.333333333 441.22109375 522.666666667 438.85625 538 442 c 1
 537.2 500.795753762 583.964212378 534.565122425 626 533 c 0
 684.006778178 531.006364479 734 487.778206537 734 388 c 1
 751 396 l 1
 698.76629519 400.117647059 568.4681947 405.333333333 464 403 c 0
 412.811937491 401.999609774 358.969218274 402.831255387 304 391 c 0
 205.582074408 359.313274892 47.0211267606 285.649230769 48 52 c 1
 48.9128540305 -138.831704343 210.29964503 -274 467 -274 c 0
 663.551724138 -274 767.724137931 -185.751824818 809 -144 c 1
 804.909090909 -123.18367347 794 -101.326530612 779 -93 c 1
 734.244897959 -140.754237288 628.069828787 -209.752670631 473 -208 c 0
 266.379629588 -205.916086947 146 -83.962516453 146 83 c 1
EndSplineSet
EndChar

StartChar: si_Fa
Encoding: 61 3526 59
GlifName: si_F_a
Width: 952
VWidth: 6
Flags: HMW
LayerCount: 5
Back
SplineSet
384 -13 m 1
 354.881835938 -25.3193359375 319.634765625 -34.6181640625 269 -33.93359375 c 0
 128.943359375 -32.0400390625 55 85.7529296875 55 228 c 0
 55 384 143 520 279 522 c 0
 403.986328125 523.837890625 452 437 454 362 c 1
 456 365 421 359 423 362 c 1
 430 443 503.002929688 521.33203125 604 522 c 0
 755.000976562 522.999023438 817.434570312 373.00390625 818 254 c 0
 818.831054688 78.9990234375 729.955078125 -30.02734375 613 -33 c 0
 576.997070312 -33.9150390625 531 -27 507 -17 c 1
 526 45 l 1
 552 23 591 17 625 20 c 0
 685.065429688 25.2998046875 748.599609375 89.994140625 747 224 c 0
 745.805664062 323.990234375 699.046875 407.399414062 601 409 c 0
 531.0390625 410.141601562 471 357 469 273 c 1
 413 273 l 1
 413 370 342.948242188 416.880859375 273 414 c 0
 162.022460938 409.428710938 127.696289062 303.002929688 125 219 c 0
 121.829101562 120.224609375 163.603515625 20.6630859375 280 20 c 0
 306.412109375 19.849609375 332.651367188 22.8125 365 45 c 1
 384 -13 l 1
EndSplineSet
Fore
SplineSet
54 268 m 0
 54 430.340136054 152.75877193 572 307 572 c 0
 439.701754386 572 490.824561404 475.25 493 392 c 1
 493 413 492 413 490 413 c 0
 485.2 413 474.8 391 470 391 c 0
 468 391 466.91463166 391.00365054 467 392 c 0
 475.192307692 481.60625 570.866758242 569 680 569 c 4
 835.253521127 569 899 420.666666667 899 302 c 4
 899 113.649122807 803.905660377 -3 675 -3 c 0
 640 -3 599 4 576 13 c 1
 575.389702981 32.6506117548 576.627390615 55.714652716 595 71 c 1
 617 54.9230769231 648 49 678 49 c 0
 756.588541964 49 825 133.316768207 825 289 c 0
 825 387.663157895 771.966216216 471 658 471 c 0
 575.730769231 471 505.384615385 405.529411765 503 303 c 1
 462 303 l 1
 462 418.333333333 382.701492537 476 301 476 c 0
 173.076167076 476 123 353.658536585 123 256 c 0
 123 151.365079365 169.834394904 50 294 50 c 0
 319.060240964 50 343.156626506 53 374 75 c 1
 392.110984779 51.8300772417 394.36681457 35.128004038 393 17 c 1
 363.981818182 5 328.745454545 -4 279 -4 c 0
 131.054794521 -4 54 118.503816794 54 268 c 0
EndSplineSet
EndChar

StartChar: si_Halant
Encoding: 62 3530 60
GlifName: si_H_alant
Width: 1
VWidth: -6
Flags: HMW
LayerCount: 5
Back
SplineSet
28 866 m 1
 28 820.333007812 28 774.666992188 28 729 c 1
 44 708 62.9814453125 706.276367188 76 707 c 0
 94 708 109 727 106 767 c 0
 103 806 75 850 28 866 c 1
6 685 m 1
 5.828125 683.069335938 25.6865234375 688.06640625 25.572265625 686 c 1
 23.0244140625 639.911132812 34.3857421875 532.184570312 43 514 c 1
 -16 514 l 1
 -23 565 -21 670 -21 737 c 1
 -22 920 l 1
 54 911 169 868 165 743 c 0
 163 689 125.046875 657 82 657 c 0
 41 657 15 679 6 685 c 1
EndSplineSet
Fore
SplineSet
-21 484 m 1
 -21 894 l 1
 -9 901 4 896 13 894 c 1
 41 875 65 865 93 851 c 0
 118 838 185 810 185 733 c 0
 185 674 142 647 87 647 c 0
 47 647 19 663 10 675 c 1
 26 676 l 1
 26 671 23 665 23 659 c 2
 23 484 l 1
 8 484 12 480 -21 484 c 1
28 707 m 1
 42 688 66 686 79 686 c 0
 105 686 126 701 126 735 c 0
 126 801 43 823 28 840 c 1
 28 707 l 1
EndSplineSet
EndChar

StartChar: si_MatraAa
Encoding: 63 3535 61
GlifName: si_M_atraA_a
Width: 398
VWidth: 19
Flags: HMW
LayerCount: 5
Back
SplineSet
11 440 m 1
 37 419 l 1
 54.2334365325 430.538461539 88.4733541392 450.502923457 135 444 c 0
 213.00859375 431.585557969 248.154606463 350.39868523 245 231 c 0
 241.972988697 124.423500756 200.964795067 26.691021564 124 17 c 0
 84.2011769494 12.6207021954 42.9523809524 26.9599723948 32 33 c 1
 10 7 l 1
 22.796875 -10.5 68.8708171443 -35.9261539118 127 -33 c 0
 264.933880797 -26.0565725332 331.788192012 122.321918812 335 234 c 0
 339.06942699 378.272912215 271.327595942 493.894728402 145 499 c 0
 94.0841540466 501.080954113 39.7236584411 474.416666667 11 440 c 1
EndSplineSet
Fore
SplineSet
11 43 m 1
 12 55 21 68 34 73 c 1
 55 60 89 45 123 45 c 0
 215 45 254 146 254 265 c 0
 254 383 202 488 117 488 c 0
 79 488 52 464 37 454 c 1
 27 459 15 468 17 489 c 1
 44 513 96 539 145 539 c 0
 289 539 347 417 347 279 c 0
 347 156 290 -3 135 -3 c 0
 68 -3 26 25 11 43 c 1
EndSplineSet
EndChar

StartChar: si_MatraAe
Encoding: 64 3536 62
GlifName: si_M_atraA_e
Width: 355
VWidth: 19
Flags: HMW
LayerCount: 5
Back
SplineSet
150 96 m 0x40
 134.754354647 7.52286056713 143.063476562 -89.5732421875 245 -97 c 0
 308.692382812 -101.640625 340 -71.2119140625 363 -51 c 1
 384 -73 l 1
 369.114257812 -116.75 296.828125 -174.841796875 216 -173 c 0
 79.068359375 -169.87890625 50.5498046875 -73.234375 65 40 c 0
 80.9677734375 174.33060949 177.349609375 293.039478975 215.163085938 332 c 1x40
 168.428486668 329.587890625 78.0733322503 326.22265625 20 323.856445312 c 1
 21 388.116210938 l 5x80
 43.9092013889 388.107421875 232.430533854 387.998046875 266 388 c 5
 266 323 l 1
 216.875976562 285.021022041 164.067382812 177.639167233 150 96 c 0x40
EndSplineSet
Fore
SplineSet
27 373 m 1
 26.3 391.854545455 25.8454545455 412.195744681 34 434 c 1
 276 434 l 1
 276.395604396 414.892307692 272.625 394.123076923 267 380 c 1
 205.5 332.540716612 144 183.094462541 144 70 c 0
 144 -3 173 -60 263 -60 c 0
 300.818181818 -60 327.727272727 -50 343 -42 c 1
 348.714285714 -46.5714285714 354.523809524 -62.7142857143 353 -74 c 1
 338.731707317 -95.6333333333 293.548780488 -133 223 -133 c 0
 106.083333333 -133 62 -58 62 37 c 0
 62 194.371428571 175 351.742857143 228 397 c 1
 108 376 l 5
 27 373 l 1
EndSplineSet
EndChar

StartChar: si_MatraAae
Encoding: 65 3537 63
GlifName: si_M_atraA_ae
Width: 417
VWidth: 19
Flags: HMW
LayerCount: 5
Back
SplineSet
75 412 m 1xc0
 309 412 l 1xc0
 309 358 l 1
 216 324.43359375 l 5
 127 303 l 1
 65 309 l 1
 189 355.081054688 l 1
 273 372 l 1xa0
 243 364 l 1
 75 364 l 1
 75 412 l 1xc0
206 88 m 0
 187.103515625 4.6083984375 191.1640625 -90.5087890625 289 -97 c 0
 352.720703125 -101.227539062 384 -71.2119140625 407 -51 c 1
 428 -73 l 1
 413.114257812 -116.75 340.828125 -174.842773438 260 -173 c 0
 123.068359375 -169.87890625 89.22265625 -72.42578125 109 40 c 0
 128.04296875 148.252929688 227.811523438 232.37890625 279.163085938 262 c 1
 227.614257812 261.661132812 129.0546875 261.188476562 65 260.856445312 c 1
 65 309.116210938 l 1
 87.9091796875 309.107421875 285.431640625 308.998046875 319 309 c 1
 319 253 l 1
 273.961914062 225.39453125 221.813476562 157.787109375 206 88 c 0
EndSplineSet
Fore
SplineSet
35 390 m 1
 35 441 l 1
 264 441 l 1
 265 423 263 406 259 388 c 1
 157 323 l 1
 75 329 l 1
 194 390 l 1
 35 390 l 1
75 283 m 1
 61.3843227655 289.256773854 64.7134890098 306.809414748 75 329 c 1
 98 329 265 312 302 309 c 1
 302 286 303 271 298 253 c 1
 236 215 195 150 195 62 c 0
 195 -1 223 -57 301 -57 c 0
 357 -57 385 -30 407 -11 c 1
 420 -13 427 -28 428 -36 c 1
 413 -79 343 -133 264 -133 c 0
 178 -133 120 -73 120 14 c 0
 120 125 185 210 259 266 c 1
 207 270 139 278 75 283 c 1
EndSplineSet
EndChar

StartChar: si_MatraIi
Encoding: 67 3539 65
GlifName: si_M_atraI_i
Width: 0
VWidth: 2
Flags: HMW
LayerCount: 5
Back
SplineSet
-185 531 m 21
 -248 551 -291.833007812 588.24609375 -286 655 c 4
 -277 758 -139 802 2 800 c 4
 106 799 249.903320312 764.702148438 266 659 c 4
 275.955078125 593.627929688 231 543 196 529 c 13
 177 554 l 21
 200 574 214.749023438 594.73046875 205 635 c 4
 190.84375 693.477539062 68 701.96875 0 703 c 4
 -94.994140625 704.44140625 -214 706 -223 641 c 4
 -230.40625 587.510742188 -191 576 -168 566 c 13
 -185 531 l 21
EndSplineSet
Fore
SplineSet
-287 673 m 0
 -287 785 -147 830 -7 830 c 0
 101 830 249 798 266 689 c 0
 267 683 267 677 267 671 c 0
 267 615 228 572 196 559 c 9
 177 584 l 17
 195 600 208 616 208 642 c 0
 208 725.262343804 79.0374354828 731.837684772 0 733 c 4
 -14 733 -29 733 -44 733 c 0
 -134 733 -224 727 -224 658 c 0
 -224 615 -189 605 -168 596 c 9
 -185 561 l 17
 -244 580 -287 614 -287 673 c 0
EndSplineSet
EndChar

StartChar: si_MatraU
Encoding: 68 3540 66
GlifName: si_M_atraU_
Width: 0
VWidth: 30
Flags: HMW
AnchorPoint: "si_MaU" 32 199 mark 0
LayerCount: 5
Back
SplineSet
-388 -115 m 17
 -361.227539062 -160 l 1
 -361.23046875 -152.99609375 -427.812711241 -191.887525396 -427.809570312 -226 c 0
 -427.80528394 -272.552734178 -403.698875123 -285.247071992 -352 -285.247070312 c 1
 -35 -287 l 9
 -35 169 l 25
 22 169 l 25
 28 -367 l 17
 28 -367 -247.995117188 -369.6796875 -424 -370.586914062 c 0
 -504 -371 -545.244140625 -321.6015625 -546 -271 c 0
 -547.62890625 -161.938476562 -388 -115 -388 -115 c 17
EndSplineSet
Fore
SplineSet
-608 -239 m 0
 -608 -131 -450 -85 -450 -85 c 1
 -423 -130 l 2
 -423 -129 -423 -129 -424 -129 c 0
 -433 -129 -490 -165 -490 -196 c 0
 -490 -243 -466 -255 -414 -255 c 2
 -18 -257 l 9
 -18 199 l 25
 32 199 l 29
 38 -337 l 17
 38 -337 -311 -341 -487 -341 c 0
 -567 -341 -608 -291 -608 -239 c 0
EndSplineSet
EndChar

StartChar: si_MatraUu
Encoding: 69 3542 67
GlifName: si_M_atraU_u
Width: 0
VWidth: 30
Flags: HMW
AnchorPoint: "si_MaU" 22 199 mark 0
LayerCount: 5
Back
SplineSet
-448 -165 m 25
 -436 -251 l 25
 88 -247 l 25
 82 129 l 25
 -5 129 l 25
 -5 -167 l 25
 -448 -165 l 25
EndSplineSet
Fore
SplineSet
-546 -249 m 0
 -546 -157 -435 -95 -435 -95 c 1
 -402 -129 l 1
 -410 -129 -454 -171 -454 -210 c 0
 -454 -244 -431 -267 -396 -267 c 0
 -331 -267 -279 -206 -195 -206 c 0
 -118 -206 -65 -240 -25 -267 c 1
 -25 199 l 25
 22 199 l 25
 28 -347 l 1
 -34 -346 l 1
 -86 -311 -146 -280 -200 -280 c 0
 -294 -280 -347 -351 -441 -351 c 0
 -511 -351 -546 -301 -546 -249 c 0
EndSplineSet
EndChar

StartChar: si_MatraR
Encoding: 70 3544 68
GlifName: si_M_atraR_
Width: 397
VWidth: 19
Flags: HMW
LayerCount: 5
Back
SplineSet
17 449 m 1
 37 419 l 1
 54.2334365325 430.538461539 88.4282279166 450.171453115 135 444 c 0
 206.044410511 434.585557969 240.953858779 350.39868523 238 231 c 0
 235.673454122 126.415584854 209.685365321 33.540720618 145 21 c 0
 99.8863052159 13.532603167 60.0982142857 27.0795774275 34 43 c 1
 11 13 l 1
 26.5941190945 -5.285 71.3400420364 -35.6498516338 144 -33 c 0
 286.939560226 -27.7871064363 343.865398935 122.321918812 347 234 c 0
 351.326443431 378.272912215 294.556180949 498.894728402 145 499 c 0
 96.3287827409 499.034259345 44.4375244811 473.166666667 17 449 c 1
EndSplineSet
Fore
SplineSet
27 118 m 0
 27 29.2881355932 99.711409396 -10 183 -10 c 0
 328.732144962 -10 377 149.724907063 377 269 c 0
 377 428.230769231 306.027027027 569 175 569 c 0
 126 569 74 543 47 519 c 1
 67 489 l 1
 82 499 109 515 147 515 c 0
 238.913043478 515 298 405.909090909 298 265 c 0
 298 145.207920792 271.166666667 43 188 43 c 0
 147 43 101 64 101 121 c 4
 101 180 154.245901639 225 213 225 c 0
 254.619047619 225 294.047619048 213 328 190 c 1
 318 251 l 1
 292.5 261 252.586956522 266 216 266 c 0
 119.125628141 266 27 212.607594937 27 118 c 0
EndSplineSet
EndChar

StartChar: si_MatraE
Encoding: 71 3545 69
GlifName: si_M_atraE_
Width: 666
VWidth: 20
Flags: HMW
LayerCount: 5
Back
SplineSet
313 157 m 4
 255.081054688 160.048828125 225 204 225 247 c 4
 225 321 295.996232903 364.285672889 366 365 c 0
 457.000756775 365.928582995 551.537146707 304.978720126 546 172 c 0
 541.655737705 72 461.286885246 -44 281 -44 c 0
 106.011363636 -44 5.04488585503 78.4458592855 20 244 c 0
 36.1881188119 424.993150685 166.769115485 546 347 546 c 0
 469.480446927 546 536 489 536 489 c 0
 497 427 l 1
 495 427 444.751953125 479.645507812 338 487 c 0
 209.078125 495.052734375 87.5294756928 413.662785823 78 284 c 0
 66.9070806138 133.064221695 179.333007812 55.640625 275 48 c 0
 379.729492188 39.6357421875 470.897630752 65.0259085152 487 174 c 0
 499.953781854 266.2671434 431.995346331 330.335991006 363 329 c 0
 306.949367089 328 281 297 281 263 c 0
 281 239 302.145114339 216.832389055 335 216 c 0
 371.235294118 215.2 391 236 391 256 c 0
 391 323.307692308 343.52173913 331 335 331 c 1
 362 337 394.527617292 334.682723095 396 333 c 0
 405 322.714285714 429 306.714285714 429 253 c 0
 429 208 389 153 313 157 c 4
EndSplineSet
Fore
SplineSet
29 237 m 0
 29 449 194.6 568 374 568 c 0
 519.605565613 568 629.916319044 489.767805396 660 438 c 5
 656.932041409 413.656766452 633.62846663 392.142657666 620 388 c 1
 620 388 559.943578922 515 364 515 c 0
 217.655462185 515 94 410.086914062 94 257 c 0
 94 122.745117188 196.228116711 49 338 49 c 0
 437.695187165 49 518.039709619 99.2444789793 519 206 c 0
 519.758079085 285.002691828 458 339 395 339 c 0
 338 339 311 307 311 273 c 0
 311 248 326 218 360 218 c 0
 395 218 414 244 414 276 c 4
 414 323 384 351 375 351 c 1
 426 343 l 0
 435 333 456 317 456 263 c 4
 456 220 426 169 355 169 c 0
 292 169 263 215 263 260 c 0
 263 335 327 375 398 375 c 0
 487.483146067 375 579 317 579 193 c 0
 579 83.0396475771 507.366665021 -36 319 -36 c 0
 142.674039612 -36 29 81.1494252874 29 237 c 0
EndSplineSet
EndChar

StartChar: si_MatraLs
Encoding: 77 3551 75
GlifName: si_M_atraL_s
Width: 610
VWidth: 19
Flags: HMW
LayerCount: 5
Back
Refer: 61 3535 N 1 0 0 1 77 0 2
Fore
SplineSet
25 386 m 0
 25 269 81.3736263736 193 205 193 c 0
 277.742857143 193 357 236 357 318 c 0
 357 371.804347826 318 417 251 417 c 0
 234 417 215 413 215 413 c 1
 215 380 l 1
 275.829268293 380 301 350.461538462 301 316 c 0
 301 284.592105263 281.061523438 244 206 244 c 4
 133.909179688 244 74 290 74 398 c 0
 74 460 102 509 132 560 c 1
 122 567 102 573 84 564 c 1
 51.4897959184 522 25 451 25 386 c 0
141 81 m 1
 160 7 230 -33 322 -33 c 0
 500.392857143 -33 565 112 565 287 c 0
 565 535 438 573 364 573 c 0
 256 573 190 494 190 402 c 0
 190 394 190 387 191 379 c 1
 231 379 l 1
 229 389.24 229 400.76 229 411 c 0
 229 459.75 278 516 338 516 c 0
 446 516 473 396 473 298 c 0
 473 170.167272727 447.849673203 19 325 19 c 0
 255.475862069 19 207.84137931 40.1940298507 188 90 c 1
 173.790697674 96 145.372093023 93 141 81 c 1
EndSplineSet
EndChar

StartChar: si_VI
Encoding: 365 -1 78
GlifName: si_V_I_
Width: 821
VWidth: 16
Flags: HMW
LayerCount: 5
Back
SplineSet
376 274 m 1
 230 290 125 245 129 158 c 0
 131.939453125 94.0595703125 204.999023438 55.1953125 345 56 c 0
 519 57 618 173 618 326 c 0
 680 321 l 0
 680 107 571.001953125 -56.423828125 335 -58 c 0
 179 -59.0419921875 49.349609375 8.0439453125 46 137 c 0
 42 291 219 325 341 318 c 1
 351 378 304 428 212 428 c 1
 186 347 l 1
 135 340 100 369 109 415 c 0
 119 471 177 490 224 490 c 0
 300 490 380 453 384 349 c 0
 385.383789062 313.026367188 376 274 376 274 c 1
EndSplineSet
Refer: 560 -1 S 1 0 0 1 0 0 2
Fore
SplineSet
476 616 m 5
 415.19424245 623.686336224 356.179948564 618.353874823 304 622.013671875 c 4
 221.212908578 627.884668246 143.320871886 648.096954708 133 723 c 4
 119.802594426 819.762464046 230.026479868 919 414 919 c 4
 604.578947368 919 698 827.48 698 737 c 4
 698 661.102362205 628 617.062992125 577 618 c 5
 545 655 l 5
 592.209948881 633.681407417 631 679.491225514 631 721 c 4
 631 784.888888889 553.381355932 836 418 836 c 4
 264.068530868 836 182.725877651 800.596075312 184 742 c 4
 185.022746188 694.964554223 235.989218624 684.662729473 306 677.356445312 c 4
 354.413916499 672.303997328 419.635134182 679.930499711 485 671 c 5
 624.350881981 647.473563746 776.021126761 522.001441884 775 342 c 5
 775 116.928395062 638.2823219 -41 394 -41 c 4
 207.413580247 -41 60 36 60 163 c 4
 60 305.676470588 223.38576779 361 347 361 c 4
 356 361 365 361 373 360 c 5
 373 430 313 466 241 466 c 5
 185 385 l 5
 160 385 127.696546424 402.993400263 127 442 c 4
 126 498 183 531 242 531 c 4
 320 531 416 482 416 373 c 4
 416 339 408 308 408 308 c 5
 390 310 369 311 351 311 c 4
 229.117647059 311 127 268.177419355 127 193 c 4
 127 116 225.583745456 61.2126794389 402 62 c 4
 594.381245271 62.9278936614 713 186.999685993 713 337 c 5
 717.068669528 495.548882783 590.675352041 597.302588584 476 616 c 5
EndSplineSet
Ligature2: "si_abvs_1 subtable" si_Va si_MatraI
LCarets2: 1 0
Ligature2: "'abvs' Above Base Substitutions in Sinhala lookup 0-1" si_Va si_MatraI
EndChar

StartChar: si_SI
Encoding: 395 -1 79
GlifName: si_S_I_
Width: 912
VWidth: 6
Flags: HMW
LayerCount: 5
Back
Refer: 562 -1 N 1 0 0 1 31 0 2
Refer: 6 3523 N 1 0 0 1 0 0 2
Fore
SplineSet
172 681 m 4
 172 785.004780021 285.475903614 887 494 887 c 4
 679.727174791 887 799 789.964263614 799 686 c 4
 799 627.512188346 753.166666667 578.913188416 700 569 c 5
 689 597 l 5
 721 603.527027027 742.540126079 628.735487686 742 666 c 4
 741.110339369 727.379686708 637.051851852 795 489 795 c 4
 337.664259928 795 227 740.886178862 227 667 c 4
 227 631.297142857 249.142857143 604.52 287 596 c 5
 279 567 l 5
 210.138613861 575.696175022 172 626.890466531 172 681 c 4
EndSplineSet
Refer: 6 3523 N 1 0 0 1 0 0 2
Ligature2: "si_abvs_1 subtable" si_Sa si_MatraI
LCarets2: 1 0
Ligature2: "'abvs' Above Base Substitutions in Sinhala lookup 0-1" si_Sa si_MatraI
EndChar

StartChar: si_MatraU.alt
Encoding: 85 -1 81
GlifName: si_M_atraU_.alt
Width: 860
VWidth: 16
Flags: HMW
LayerCount: 5
Back
SplineSet
-480.240234375 -218.512695312 m 4
 -480.240234375 -266.21875 -448.51953125 -295 -376.483398438 -295 c 4
 -375.005859375 -295 -373.51171875 -295.02734375 -372 -295 c 6
 -35 -295 l 13
 -43 209 l 29
 24 209 l 29
 28 -375 l 21
 -436 -375 l 6
 -436.361328125 -375.001953125 -436.72265625 -375.001953125 -437.08203125 -375.001953125 c 4
 -537.298828125 -375.001953125 -568.020507812 -317.9296875 -568.020507812 -265.305664062 c 4
 -568.020507812 -158.131835938 -472 -110 -472 -110 c 5
 -435.227539062 -135 l 5
 -457.485351562 -147.05078125 -480.240234375 -178.7890625 -480.240234375 -218.512695312 c 4
EndSplineSet
Fore
SplineSet
111 -231 m 4
 111 -131.329101562 226 -95 226 -95 c 5
 235.44140625 -99.4765625 246.080078125 -111.609375 246 -123 c 5
 228 -133 194 -163 194 -202 c 4
 194 -243 225 -259 292 -259 c 6
 716 -262 l 5
 716 210 l 5
 764 210 l 5
 773 -330 l 5
 260 -334 l 6
 152.006835938 -334.919921875 111 -287.483398438 111 -231 c 4
EndSplineSet
EndChar

StartChar: si_MatraUu.alt
Encoding: 86 -1 82
GlifName: si_M_atraU_u.alt
Width: 0
VWidth: 30
Flags: HMW
LayerCount: 5
Fore
SplineSet
-680 -221 m 0
 -680 -145 -617 -95 -559 -78 c 1
 -548 -82.6640625 -534.666992188 -91.998046875 -533 -110 c 1
 -580 -124 -607 -158 -607 -191 c 0
 -607 -231 -571 -252 -525 -252 c 0
 -424.045898438 -252 -354.149414062 -193 -235 -193 c 4
 -149 -193 -96 -211 -25 -245 c 1
 -25 237 l 1
 18 237 l 1
 18 -329 l 1
 0 -334 l 1
 -85.0459077604 -299.506002424 -137.978515625 -262 -245 -262 c 4
 -385.975585938 -262 -434.821289062 -334 -552 -334 c 0
 -650 -334 -680 -277 -680 -221 c 0
EndSplineSet
EndChar

StartChar: si_Rakar.alt
Encoding: 88 -1 84
GlifName: si_R_akar
Width: 776
VWidth: 6
Flags: HMW
LayerCount: 5
Back
SplineSet
710 217 m 13
 736 210 l 29
 736 210 737.791460669 163.739318268 733 103 c 4
 717.53805264 -88.9552825327 623.783678929 -308.121598998 361 -309 c 4
 140.07699775 -309.663443429 32.9088980374 -199.176818848 27 -179 c 13
 64 -158 l 29
 64 -158 152.41243175 -207.191959404 362 -203 c 4
 650.485866987 -194.912482782 700.90024363 43.6137537122 710 217 c 13
EndSplineSet
Fore
SplineSet
37 -169 m 5
 44 -155 59 -151 74 -148 c 5
 117.567164179 -181.027777778 204.701492537 -235 352 -235 c 4
 636.906077348 -235 695.248618785 24.6203090508 704 247 c 13
 736 240 l 21
 736 240 736 231 736 217 c 4
 736 198 736 168 733 133 c 4
 718 -81.4688221709 661 -320 358 -320 c 4
 176 -320 62 -225.729281768 37 -169 c 5
EndSplineSet
EndChar

StartChar: si_KI
Encoding: 90 -1 86
GlifName: si_K_I_
Width: 1084
VWidth: 6
Flags: HMW
LayerCount: 5
Back
Refer: 573 -1 N 1 0 0 1 625 0 2
Refer: 7 3482 N 1 0 0 1 -14.9996 0 2
Fore
SplineSet
359 439 m 1
 367.654790844 632.68429532 490.298828125 897 758 897 c 4
 890.004882812 897 1024 808.229323925 1024 667 c 0
 1024 576.987542719 945.85974026 495.639699381 840 516 c 1
 850 553 l 1
 927.589253423 541.025750483 958 601.579549583 958 653 c 0
 958 728.213179738 872.19140625 792 723 792 c 0
 522.970703125 792 418.331550688 637.00595264 410 460 c 1
 359 439 l 1
EndSplineSet
Refer: 7 3482 N 1 0 0 1 -15 0 2
LCarets2: 1 0
Ligature2: "si_abvs_1 subtable" si_Ka si_MatraI
EndChar

StartChar: si_KIi
Encoding: 91 -1 87
GlifName: si_K_I_i
Width: 1084
VWidth: 6
Flags: HMW
LayerCount: 5
Back
Refer: 7 3482 N 1 0 0 1 -14.9996 0 2
Fore
SplineSet
363 441 m 5
 346.259931407 692.387193152 531.767578125 875 740 875 c 4
 896.083007812 875 989 770.151367188 989 658 c 4
 989 568 926 510 856 510 c 4
 802.084960938 510 745 541.208007812 745 600 c 4
 745 692.73828125 844.59765625 727.784179688 927 707 c 5
 920 672 l 5
 863.748046875 686.944335938 799.4140625 670.869140625 799 609 c 4
 798.701171875 564.39453125 832.90625 552 858 552 c 4
 895.215820312 552 920 586.729492188 920 634 c 4
 920 710 849.229492188 794 715 794 c 4
 565.381835938 794 398.908203125 678.787109375 405 441 c 5
 363 441 l 5
EndSplineSet
Refer: 7 3482 N 1 0 0 1 -15 0 2
LCarets2: 1 0
Ligature2: "si_abvs_2 subtable" si_Ka si_MatraIi
EndChar

StartChar: si_KU
Encoding: 92 -1 88
GlifName: si_K_U_
Width: 1140
VWidth: 6
Flags: HMW
LayerCount: 5
Back
SplineSet
809.666015625 9 m 0xbe
 919.502929688 22.0703125 954.786132812 174.231445312 928.666015625 279 c 0
 898.840820312 398.631835938 773.89453125 466.868164062 638.666015625 462 c 0
 539.580078125 458.697265625 462.625976562 431.771484375 368.666015625 374 c 1
 351.666015625 362 362.666015625 367 348.666015625 355 c 1
 251.666015625 276 169.666015625 211 69.666015625 79 c 1
 69.666015625 79 34.79296875 98.5439453125 40.666015625 107 c 0
 140.666015625 251 230.666015625 322 328.666015625 413 c 1
 335.666015625 419 344.666015625 420 351.666015625 425 c 1
 449.526367188 505 569.838867188 555.573242188 685.666015625 561 c 0
 875.594726562 570.465820312 1014.66601562 450 1028.66601562 282 c 0
 1042.22167969 112.560546875 941.305664062 -33 788.666015625 -33 c 0
 809.666015625 9 l 0xbe
301.666015625 377 m 1
 313.666015625 400 317.666015625 421 316.666015625 439 c 0
 314.666015625 481 278.426757812 505.678710938 228.666015625 501 c 0
 194.600585938 497.796875 158.666015625 470 164.666015625 426 c 1
 204.666015625 371 l 1
 190.666015625 347 167.66796875 335.022460938 145.666015625 336 c 0
 100.666015625 338 80.666015625 369 80.666015625 415 c 0
 80.666015625 495 147.649414062 563.181640625 244.666015625 559 c 0
 327.592773438 555.42578125 376.666015625 480 349.666015625 416 c 0
 334.666015625 380 349.666015625 404 336.666015625 387 c 1
 301.666015625 377 l 1
120.666015625 165 m 1
 128.666015625 169 137.666015625 172 144.666015625 172 c 0
 192.666015625 173 201.666015625 72 284.666015625 72 c 0
 333.666015625 72 383.666015625 101 384.666015625 197 c 1
 419.666015625 197 l 0
 420.666015625 94 480.663085938 71.1669921875 540.666015625 72 c 0
 600.668945312 72.8330078125 651.666015625 118 651.666015625 194 c 0
 651.666015625 273 579.666015625 340 465.666015625 345 c 0
 403.725585938 347.716796875 327.666015625 329 294.666015625 311 c 1
 348.666015625 364 l 1
 361.666015625 368 395.662109375 390.330078125 472.666015625 391 c 0
 587.666015625 392 709.666015625 332 709.666015625 182 c 0
 709.666015625 48 634.661132812 -34.9423828125 529.666015625 -36 c 0
 444.359375 -36.859375 411.387695312 8.326171875 392.666015625 49 c 1
 410.666015625 49 l 1
 393.403320312 7.81640625 350.620117188 -36 285.666015625 -36 c 0xde
 127.663085938 -36 173.666015625 169 108.666015625 130 c 0
 120.666015625 165 l 1
EndSplineSet
Refer: 575 -1 S 1 0 0 1 808.666 1 2
Fore
SplineSet
104 478 m 0
 104 519.485351562 143 577 230 577 c 0
 300.821289062 577 360 524.23046875 360 451 c 0
 360 390.329101562 337.384765625 378.881835938 332 364 c 0
 284 353 l 1
 303.452148438 372.963867188 320 412.892578125 320 439 c 0
 320 504.206054688 253.681640625 527.495117188 220 507 c 1
 173 409 l 1
 137.91796875 407.70703125 104 432.03515625 104 478 c 0
89 63 m 1
 177.286024306 224.711970723 247.41869213 301.616777543 323 396 c 0
 346 411 l 0
 461.565132121 520.744244638 599.247132531 590 737 590 c 0
 936.045325779 590 1070 469 1070 282 c 0
 1070 122.838926174 990.890625 -27.267578125 817 -30 c 4
 817 20 l 4
 923.2109375 20 999 133.790243902 999 237 c 0
 999 426.583333333 851.387096774 500.25 679 497 c 0
 562.315700953 494.711569809 459.033203125 447.784134891 373 378 c 0
 358 368 l 0
 273.012876157 260.79209551 211.81958912 214.117134172 124 35 c 1
 124 35 96 44 89 63 c 1
148 114 m 1
 158 147 l 1
 166 151 174 154 182 154 c 0
 228.875 154 242 77 317 77 c 0
 366 77 415 112.844726562 416 213 c 1
 427 217 442 217 451 214 c 1
 452.008789062 106.11328125 510.508789062 73 568 73 c 0
 625.431640625 73 669 113.948242188 669 198 c 0
 669 279.017578125 597 361 457 361 c 0
 398 361 340 341.150390625 309 325 c 1
 335 362 l 1
 347 366 402 407 510 407 c 0
 614 407 733 339 733 190 c 0
 733 55 658 -20 561 -20 c 0
 471 -20 443 35 424 75 c 1
 442 72 l 1
 424.865234375 31 380.515625 -20 315 -20 c 0
 258.391241776 -20 228.588353207 24.3667233911 210 71 c 0
 198 101.775390625 181 119 162 119 c 0
 158 119 154 117 148 114 c 1
EndSplineSet
Refer: 575 -1 N 1 0 0 1 817 -18 2
LCarets2: 1 0
Ligature2: "si_blws_1 subtable" si_Ka si_MatraU
EndChar

StartChar: si_KUu
Encoding: 93 -1 89
GlifName: si_K_U_u
Width: 1084
VWidth: 6
Flags: HMW
LayerCount: 5
Back
Refer: 7 3482 N 1 0 0 1 -14.9996 0 2
Fore
SplineSet
72 472 m 0
 72 523 111 577 198 577 c 0
 271 577 332 528 332 460 c 0
 332 407 311 397 306 384 c 0
 281 388 l 1
 297 409 296 427 296 444 c 0
 296 499.49609375 229.733398438 527.6796875 181 501 c 1
 146 409 l 1
 108.375976562 407.819335938 72 430.032226562 72 472 c 0
51 136 m 1
 154 275 232 338 324 432 c 0
 331 438 340 439 347 444 c 0
 445 529 559 581 685 581 c 0
 876 581 1040 450 1040 263 c 0
 1040 108 956 -21 799 -23 c 0
 809 28 l 0
 909 28 969 138 969 238 c 0
 969 413 814 488 647 488 c 0
 538 488 461 454 364 393 c 0
 346 382 358 386 344 374 c 0
 254 292 179 245 86 108 c 1
 86 108 45 118 51 136 c 1
108 167 m 1
 120 190 l 1
 128 194 136 197 144 197 c 0
 194 197 208 87 288 87 c 0
 337 87 386 121 387 216 c 1
 398 220 413 220 422 217 c 1
 423 116 481 85 538 85 c 0
 596 85 640 123 640 201 c 0
 640 283 568 368 428 368 c 0
 369 368 311 345 280 328 c 1
 306 369 l 1
 318 373 394 410 471 410 c 0
 575 410 704 342 704 193 c 0
 704 58 629 -17 532 -17 c 0
 442 -17 414 38 395 78 c 1
 413 75 l 1
 396 34 352 -17 287 -17 c 0
 225 -17 185 20 172 74 c 0
 160 126 141 172 122 172 c 0
 118 172 114 170 108 167 c 1
EndSplineSet
Refer: 645 -1 N 1 0 0 1 561 0 2
LCarets2: 1 0
Ligature2: "si_blws_3 subtable" si_Ka si_MatraUu
EndChar

StartChar: si_KhI
Encoding: 100 -1 96
GlifName: si_K_hI_
Width: 866
VWidth: 6
Flags: HMW
LayerCount: 5
Back
Refer: 28 3483 N 1 0 0 1 0 0 2
Fore
SplineSet
50 181 m 0
 50 356 167 453 309 455 c 0
 393 456 531 400 531 224 c 0
 531 144 502 98 481 60 c 1
 491 132 l 1
 504 99 514 80 574 80 c 0
 675 80 740 204 740 366 c 5
 802 362 l 1
 802 144 727 -25 561 -25 c 0
 491 -25 439 -3 435 58 c 1
 474 34 l 1
 462 12 452 -4 418 -62 c 1
 378 -41 l 1
 417 19 476 116 470 208 c 0
 464 306 371 360 296 360 c 0
 193 360 103 292 103 159 c 0
 103 76 140 22 212 22 c 0
 253 22 272 55 272 82 c 0
 272 115 252 141 220 141 c 0
 195 141 171 121 171 84 c 0
 171 57 187 23 230 18 c 1
 230 7 l 1
 161 9 129 46 129 87 c 0
 129 144 170 200 235 200 c 0
 291 200 334 157 334 91 c 0
 334 39 295 -29 214 -29 c 0
 94 -29 50 88 50 181 c 0
EndSplineSet
Refer: 560 -1 N 1 0 0 1 121 0 2
LCarets2: 1 0
Ligature2: "si_abvs_1 subtable" si_Kha si_MatraI
EndChar

StartChar: si_GI
Encoding: 109 -1 105
GlifName: si_G_I_
Width: 956
VWidth: 6
Flags: HMW
LayerCount: 5
Back
SplineSet
369 706 m 4
 369 818.994140625 466.952814867 925 650 925 c 4
 843.120074465 925 949 815.041474654 949 702 c 4
 949 615.064516129 900.209302326 549.580645161 810 527 c 5
 792 561 l 5
 792 561 876 574.365591398 876 674 c 4
 876 750.37195122 792.946087914 839.370415979 618 841 c 4
 510.39308469 842.002334558 428 783.473632812 428 702 c 4
 428 618.734375 495.703125 575.326171875 700 587 c 5
 706 549 l 5
 661.032226562 549.208007812 600.69921875 548.07421875 565.001953125 550.350585938 c 5
 437.711914062 550.643554688 369 618.58203125 369 706 c 4
EndSplineSet
Refer: 29 3484 S 1 0 0 1 0 8 2
Fore
SplineSet
326 715 m 0
 326 830.032226562 430.243164062 925 607 925 c 0
 790.120117188 925 901 825.041015625 901 712 c 0
 901 615.064453125 822.208984375 539.581054688 742 537 c 1
 734 571 l 1
 755 571 826.260742188 596.732421875 828 681 c 0
 829.482421875 752.814453125 754.950195312 831.66796875 600 833 c 0
 478.065429688 834.043945312 385 782.1171875 385 703 c 0
 385 611.01171875 498.375976562 574.103515625 647 587 c 1
 653 549 l 1
 619.05078125 548.7109375 565.952148438 546.111328125 539.001953125 544.350585938 c 1
 416.686523438 544.67578125 326 617.91015625 326 715 c 0
EndSplineSet
Refer: 29 3484 S 1 0 0 1 0 8 2
LCarets2: 1 0
Ligature2: "si_abvs_1 subtable" si_Ga si_MatraI
EndChar

StartChar: si_GU
Encoding: 111 -1 107
GlifName: si_G_U_
Width: 959
VWidth: 6
Flags: HMW
LayerCount: 5
Back
SplineSet
665.759765625 8.6123046875 m 0xee
 798.73046875 0.5859375 856.623046875 108.114257812 856.623046875 229.600585938 c 0
 856.623046875 353.83984375 776.359375 445.533203125 636.9375 445.533203125 c 0
 556.0703125 445.533203125 445.365234375 397.33203125 438.877929688 254.823242188 c 1
 388.610351562 238.01171875 l 1
 384.657226562 437.1640625 515.451171875 542.603515625 655.6796875 542.603515625 c 0
 827.643554688 542.603515625 920.870117188 411.889648438 920.870117188 267.375 c 0
 920.870117188 101.1640625 847.109375 -54.5166015625 664.411132812 -45.814453125 c 4
 665.759765625 8.6123046875 l 0xee
111.974609375 245.841796875 m 0
 111.224609375 128.7109375 180.21484375 50.8837890625 308 47.5908203125 c 0
 414.426757812 44.8486328125 485.6328125 87.9111328125 488 160 c 0
 489.319335938 200.172851562 462.767578125 237 389 237 c 1
 440 291 l 1
 489 290 551.65234375 244.21484375 552 160 c 0
 552.451171875 47.953125 473.594726562 -55.0048828125 308.598632812 -55.0048828125 c 0
 140.69140625 -55.0048828125 53.9951171875 61.9140625 53.9951171875 221.564453125 c 0
 53.9951171875 428.865234375 210.2890625 536 337 538 c 0
 344.879882812 462.879882812 l 0xde
 249.916015625 462.879882812 113.059570312 415.424804688 111.974609375 245.841796875 c 0
EndSplineSet
Refer: 575 -1 N 1 0 0 1 665 1 2
Fore
SplineSet
54 252 m 0
 54 459 210 566 337 568 c 1
 337 493 l 1
 242 493 112 445 112 274 c 0
 112 155 185 77 318 77 c 0
 419 77 488 121 488 193 c 0
 488 232 461 267 389 267 c 1
 440 321 l 1
 489 320 552 274 552 189 c 0
 552 77 474 -25 309 -25 c 0
 141 -25 54 92 54 252 c 0
391 269 m 1
 391 462 518 573 656 573 c 0
 828 573 921 442 921 297 c 0
 921 135 851 -16 679 -16 c 0
 674 -16 669 -16 664 -16 c 5
 664 39 l 1
 669 39 675 38 680 38 c 0
 803 38 857 143 857 260 c 0
 857 384 776 476 637 476 c 0
 556 476 445 428 439 285 c 1
 391 269 l 1
EndSplineSet
Refer: 575 -1 N 1 0 0 1 665 1 2
LCarets2: 1 0
Ligature2: "si_blws_1 subtable" si_Ga si_MatraU
EndChar

StartChar: si_NgI
Encoding: 128 -1 125
GlifName: si_N_gI_
Width: 1088
VWidth: 6
Flags: HMW
LayerCount: 5
Fore
SplineSet
449 715 m 0
 449 830.032363987 553.243395619 925 730 925 c 0
 913.120117188 925 1024 825.041015625 1024 712 c 0
 1024 615.064453125 945.208984375 539.581054688 865 537 c 1
 857 571 l 1
 878 571 949.260853795 596.732125179 951 681 c 0
 952.482122392 752.814148723 877.949809631 831.668020705 723 833 c 0
 601.065885417 834.04353668 508 782.117533798 508 703 c 0
 508 611.011309524 621.375804228 574.103199405 770 587 c 1
 776 549 l 1
 742.050962576 548.711359606 688.952093503 546.110925615 662.001953125 544.350585938 c 1
 539.686119432 544.675969186 449 617.909976997 449 715 c 0
EndSplineSet
Refer: 32 3487 S 1 0 0 1 0 0 2
LCarets2: 1 0
Ligature2: "si_abvs_1 subtable" si_Nga si_MatraI
EndChar

StartChar: si_C.halant
Encoding: 135 -1 132
GlifName: si_C_.halant
Width: 862
VWidth: 16
Flags: HMW
LayerCount: 5
Back
Refer: 5 3488 N 1 0 0 1 0 0 2
Fore
SplineSet
-514 787 m 1048
EndSplineSet
Refer: 5 3488 N 1 0 0 1 0 0 2
Refer: 576 -1 N 1 0 0 1 77 0 2
Ligature2: "si_halant_1 subtable" si_Ca si_Halant
EndChar

StartChar: si_CI
Encoding: 136 -1 133
GlifName: si_C_I_
Width: 862
VWidth: 16
Flags: HMW
LayerCount: 5
Back
Refer: 5 3488 N 1 0 0 1 0 0 2
Fore
SplineSet
741 343 m 1
 746 507.931385552 622.129898192 600.344370631 509 616 c 0
 448.636339319 624.35350437 389.87657677 618.353874823 338 622.013671875 c 0
 252.308098353 628.059077886 171.683007741 648.871810572 161 726 c 0
 147.601550732 822.732882556 258.026479868 922 442 922 c 0
 632.578947368 922 726 828.971428571 726 737 c 0
 726 662.377952756 656 619.078740157 605 620 c 1
 573 657 l 1
 620.209948881 636.327425374 659 680.749067165 659 721 c 0
 659 787.111111111 573 840 423 840 c 0
 288.145507812 840 216.883781703 803.466162822 218 743 c 0
 218.881738118 695.235758226 267.428398241 684.734975679 334 677.356445312 c 0
 382.542491331 671.976189515 448.269967334 679.525547843 514 672 c 0
 662.938336428 654.947786103 804 516.728772319 803 346 c 1
 803 118.577777778 665.564174466 -41 420 -41 c 0
 239 -41 96 36 96 163 c 0
 96 310 259.385742188 367 383 367 c 0
 392 367 401 367 409 366 c 1
 409 441.943396226 349 481 277 481 c 1
 221 400 l 1
 196 400 163.696546424 417.993400263 163 457 c 0
 162 513 219 546 278 546 c 0
 356 546 452 494.208860759 452 379 c 0
 452 345 444 314 444 314 c 1
 426 316 405 317 387 317 c 0
 265.1171875 317 163 272 163 193 c 0
 163 116 257.998830824 61.223804974 428 62 c 0
 621.618411017 62.8840271411 741 189.726951869 741 343 c 1
6 309 m 1
 1 331 0 351 6 367 c 1
 415 367 l 1
 417 317 l 1
 121 317 l 1
 6 309 l 1
EndSplineSet
LCarets2: 1 0
Ligature2: "si_abvs_1 subtable" si_Ca si_MatraI
EndChar

StartChar: si_JI
Encoding: 151 -1 148
GlifName: si_J_I_
Width: 841
VWidth: 6
Flags: HMW
LayerCount: 5
Back
Refer: 34 3490 N 1 0 0 1 0 0 2
Fore
SplineSet
552 545 m 5
 495.088073672 543.436057562 368.280066908 564.110825399 367.512695312 705 c 4
 366.840961129 828.042262943 474.972077554 930.4453125 599.607421875 930.4453125 c 4
 697.984907157 930.4453125 741.501953125 868.206085411 741.501953125 813.780273438 c 4
 741.501953125 736.600982455 669.427694306 686.86328125 617.650390625 686.86328125 c 4
 564.867235485 686.86328125 529.251953125 718.944632883 529.251953125 767.743164062 c 4
 529.251953125 845.062970633 617.396228173 896.790845674 682.78515625 879.461914062 c 5
 655.399414062 858.975585938 l 5
 629.773689663 863.122673262 582.434100365 832.892955566 582 781 c 4
 581.739257812 753.179641965 602.4375 737.447265625 628.005859375 737.447265625 c 4
 654.817895027 737.447265625 685.399414062 756.710140675 685.399414062 795.874023438 c 4
 685.399414062 826.049597313 676.704260263 866.889648438 596.831054688 866.889648438 c 4
 491.492215626 866.889648438 420.069917545 791.485665621 420.596679688 709 c 4
 421.148643095 617.340755839 505.414880468 573.809251645 562 587 c 5
 552 545 l 5
EndSplineSet
Refer: 34 3490 N 1 0 0 1 0 0 2
Ligature2: "si_abvs_1 subtable" si_Ja si_MatraI
EndChar

StartChar: si_JIi
Encoding: 152 -1 149
GlifName: si_J_I_i
Width: 841
VWidth: 6
Flags: HMW
LayerCount: 5
Back
Refer: 34 3490 N 1 0 0 1 0 0 2
Fore
SplineSet
552 545 m 5
 495.088073672 543.436057562 368.280066908 564.110825399 367.512695312 705 c 4
 366.840961129 828.042262943 474.972077554 930.4453125 599.607421875 930.4453125 c 4
 697.984907157 930.4453125 741.501953125 868.206085411 741.501953125 813.780273438 c 4
 741.501953125 736.600982455 669.427694306 686.86328125 617.650390625 686.86328125 c 4
 564.867235485 686.86328125 529.251953125 718.944632883 529.251953125 767.743164062 c 4
 529.251953125 845.062970633 617.396228173 896.790845674 682.78515625 879.461914062 c 5
 655.399414062 858.975585938 l 5
 629.773689663 863.122673262 582.434100365 832.892955566 582 781 c 4
 581.739257812 753.179641965 602.4375 737.447265625 628.005859375 737.447265625 c 4
 654.817895027 737.447265625 685.399414062 756.710140675 685.399414062 795.874023438 c 4
 685.399414062 826.049597313 676.704260263 866.889648438 596.831054688 866.889648438 c 4
 491.492215626 866.889648438 420.069917545 791.485665621 420.596679688 709 c 4
 421.148643095 617.340755839 505.414880468 573.809251645 562 587 c 5
 552 545 l 5
EndSplineSet
Refer: 34 3490 N 1 0 0 1 0 0 2
LCarets2: 1 0
Ligature2: "si_abvs_2 subtable" si_Ja si_MatraIi
EndChar

StartChar: si_Tt.halant
Encoding: 197 -1 202
GlifName: si_T_t.halant
Width: 802
VWidth: 16
Flags: HMW
LayerCount: 5
Back
SplineSet
353.442382812 334 m 1xfa
 327.442382812 346 293.442382812 352 260.442382812 350 c 0
 190.369140625 345.8515625 117.5546875 302.787109375 116.442382812 218 c 0
 115.442382812 140.005859375 171.440018336 54.38494186 334.442382812 55 c 0
 547.44140625 55.8037109375 618.874023438 215.23046875 627.442382812 340 c 0
 690.442382812 332 l 0
 691.631835938 137.185546875 601.442382812 -57 341.442382812 -59 c 0
 148.44763624 -60.4845749736 38.5732421875 38.0029296875 35.4423828125 176 c 0
 32.1533203125 320.966796875 154.427734375 394.418945312 265.442382812 398 c 0
 327.442382812 400 367.442382812 379 367.442382812 379 c 1
 353.442382812 334 l 1xfa
EndSplineSet
Refer: 576 -1 N 1 0 0 1 -20 0 2
Fore
Refer: 0 3495 N 1 0 0 1 0 0 2
Refer: 576 -1 N 1 0 0 1 14 0 2
LCarets2: 1 0
Ligature2: "si_halant_1 subtable" si_Tta si_Halant
EndChar

StartChar: si_TtI
Encoding: 198 -1 203
GlifName: si_T_tI_
Width: 821
VWidth: 16
Flags: HMW
LayerCount: 5
Back
SplineSet
366 329 m 1xfc
 343 338 300 345 273 343 c 0
 202 338 115.5149564 300.478264259 117 198 c 0
 118.4140625 100.419921875 217 45 350 44 c 4
 544.997070312 42.5341796875 612.875976562 198.346679688 616 323 c 0
 682 322 l 0
 680.189453125 113.185546875 570 -59 330 -59 c 4
 147 -59 40.7906648242 50.1077332517 46 176 c 0
 52 321 165 394 276 398 c 0
 338 400 378 379 378 379 c 1
 366 329 l 1xfc
EndSplineSet
Refer: 560 -1 N 1 0 0 1 0 0 2
Fore
SplineSet
764 350 m 1
 758 127.955 624 -43 395 -43 c 0
 176.764705882 -43 45 60.0555555556 45 202 c 0
 45 360.491666667 172 449 287 449 c 0
 344 449 381 430 381 430 c 1
 383 414 372 388 367 382 c 1
 344 392 316 398 287 398 c 0
 203 398 117 341.97515528 117 234 c 0
 117 123.719101124 225.903345725 59 396 59 c 0
 607.069306931 59 699.589681901 205.083273362 702 340 c 1
 702.907258817 496.275780521 588.449693878 596.57065183 482 615 c 4
 308.558861309 642.9907554 150.714163817 604.611284716 134 725 c 4
 120.580709687 821.656412992 227.573580228 921 405 921 c 4
 602.289473684 921 699 833 699 746 c 4
 699 665 629 618 578 619 c 5
 551 654 l 5
 604.883789062 642.993907417 632 678.491225514 632 720 c 4
 632 786.111111111 546 839 396 839 c 4
 261.145507812 839 189.883781703 802.466162822 191 742 c 4
 192.618317677 654.334835909 362.051065103 696.044111631 493 671 c 4
 622.70082538 645.036613296 764.954225352 525.624507127 764 350 c 1
EndSplineSet
LCarets2: 1 0
Ligature2: "si_abvs_1 subtable" si_Tta si_MatraI
Ligature2: "'abvs' Above Base Substitutions in Sinhala lookup 0-1" si_Tta si_MatraI
EndChar

StartChar: si_TtIi
Encoding: 199 -1 204
GlifName: si_T_tI_i
Width: 799
VWidth: 16
Flags: HMW
LayerCount: 5
Back
SplineSet
366 329 m 1xfd
 343 338 300 345 273 343 c 0
 202 338 115.5149564 300.478264259 117 198 c 0
 118.4140625 100.419921875 207 45 340 44 c 0
 534.997070312 42.5341796875 603.875976562 198.346679688 607 323 c 0
 682 322 l 0
 680.189453125 113.185546875 560 -59 320 -59 c 0
 137 -59 40.7906648242 50.1077332517 46 176 c 0
 52 321 165 394 276 398 c 0
 338 400 378 379 378 379 c 1
 366 329 l 1xfd
EndSplineSet
Refer: 561 -1 S 1 0 0 1 0 0 2
Fore
SplineSet
43 220 m 0
 43 370 163 447 278 447 c 0
 335 447 372 428 372 428 c 1
 374 412 363 389 358 383 c 1
 335 393 307 399 278 399 c 0
 194 399 114 340 114 244 c 0
 114 142 219 67 383 67 c 0
 592 67 674 215 680 372 c 0
 743 365 l 0
 737 129 605 -35 376 -35 c 0
 164 -35 43 74 43 220 c 0
EndSplineSet
Refer: 561 -1 N 1 0 0 1 61 0 2
LCarets2: 1 0
Ligature2: "si_abvs_2 subtable" si_Tta si_MatraIi
EndChar

StartChar: si_TtU
Encoding: 200 -1 205
GlifName: si_T_tU_
Width: 809
VWidth: 16
Flags: HMW
LayerCount: 5
Back
SplineSet
212 -117 m 1
 228.772460938 -152 l 1
 228.76953125 -143.934570312 162.1875 -188.71875 162.190429688 -228 c 0
 162.1953125 -274.552734375 189.481445312 -288 248 -288 c 1
 615 -288 l 1
 615 167 l 5
 662 167 l 5
 668 -369 l 1
 668 -369 387.048828125 -371.4765625 176 -372.586914062 c 0
 96 -373 54.755859375 -323.6015625 54 -273 c 0
 52.37109375 -163.938476562 212 -117 212 -117 c 1
EndSplineSet
Refer: 0 3495 N 1 0 0 1 0 0 2
Fore
Refer: 81 -1 S 1 0 0 1 -35 0 2
Refer: 0 3495 N 1 0 0 1 0 0 2
LCarets2: 1 0
Ligature2: "si_blws_1 subtable" si_Tta si_MatraU
EndChar

StartChar: si_DdI
Encoding: 213 -1 218
GlifName: si_D_dI_
Width: 937
VWidth: 16
Flags: HMW
LayerCount: 5
Back
Refer: 40 3497 N 1 0 0 1 0 0 2
Fore
SplineSet
450 387 m 0
 459 387 468 387 476 386 c 1
 476 456 416 492 344 492 c 1
 288 411 l 1
 263 411 230.696546424 428.993400263 230 468 c 0
 229 524 286 557 345 557 c 0
 423 557 519 508 519 399 c 0
 519 368.138461538 511 340 511 340 c 1
 493 342 471.935099515 344.527155982 454 343 c 1024
586 672 m 1
 739.800448879 651.610485906 886.032079581 505.125300992 887 322 c 0
 887.955589021 148.328465381 823.672064777 -42 650 -42 c 0
 543.95 -42 483.126829269 12 482 95 c 1
 500 95 l 1
 502.101910829 9 425.384496873 -41.2218292514 335 -42 c 0
 211.023584745 -43.0515426648 127.157103754 30.995942857 129 150 c 4
 131.454137814 310.279240208 267.496062992 369.995454545 375 371 c 1
 405 339 l 1
 279.620689654 339 189 279.300584043 189 177 c 4
 189 107.154882236 243.012784091 52 339 52 c 0
 423.48 52 471 109 471 196 c 1
 484 201 499 204 512 201 c 1
 512 108.470588235 565.17293233 58 648 58 c 0
 762.280035493 58 818.99414968 177.767084148 820 327 c 0
 820.978120532 473.22650939 697.257607369 600.168935306 581 615 c 1
 516.886028241 626.924037924 454.91029471 620.91955707 400 625.013671875 c 0
 319.105029855 631.04520561 243.67196167 651.951559976 233 729 c 0
 219.802594426 824.281405923 330.026479868 922 514 922 c 0
 704.578947368 922 798 830.48 798 740 c 0
 798 664.102362205 728 620.062992125 677 621 c 1
 645 658 l 1
 692.209948881 636.681407417 731 682.491225514 731 724 c 0
 731 787.888888889 653.381355932 839 518 839 c 0
 364.068530868 839 282.725877651 803.596075312 284 745 c 0
 285.022746188 697.964554223 340.985039529 687.622572711 406 680.356445312 c 0
 454.906930908 674.890565028 520.269967334 683.740403445 586 672 c 1
50 387 m 1
 504 384 l 1
 509 338 l 1
 176 338 l 1
 52 314 l 1
 41 330.483870968 34 364.629032258 50 387 c 1
EndSplineSet
LCarets2: 1 0
Ligature2: "si_abvs_1 subtable" si_Dda si_MatraI
EndChar

StartChar: si_DdIi
Encoding: 214 -1 219
GlifName: si_D_dI_i
Width: 937
VWidth: 16
Flags: HMW
LayerCount: 5
Back
Refer: 40 3497 N 1 0 0 1 0 0 2
Fore
SplineSet
142 161 m 0
 142 295 266 371 372 372 c 1
 362 340 l 1
 276 340 213 272 213 196 c 0
 213 136 256 91 334 91 c 0
 405 91 467 131 467 225 c 1
 474 225 498 226 505 226 c 1
 505 131 567 91 641 91 c 0
 728 91 789 184 789 352 c 5
 853 352 l 5
 853 189 819 -12 631 -12 c 4
 562 -12 508 19 488 81 c 1
 464 13 392 -11 331 -11 c 0
 233 -11 142 40 142 161 c 0
61 315 m 1
 61 378 l 1
 473 375 l 1
 468 333 l 1
 165 333 l 1
 61 315 l 1
195 465 m 0
 195 532 267 557 320 557 c 0
 410 557 481 502 481 402 c 0
 481 368 474 352 468 333 c 1
 435 355 l 1
 437 366 438 376 438 386 c 0
 438 450 392 491 318 491 c 0
 312 491 306 491 299 490 c 1
 249 408 l 1
 219 411 195 428 195 465 c 0
EndSplineSet
Refer: 561 -1 N 1 0 0 1 171 0 2
LCarets2: 1 0
Ligature2: "si_abvs_2 subtable" si_Dda si_MatraIi
EndChar

StartChar: si_DdU
Encoding: 215 -1 220
GlifName: si_D_dU_
Width: 904
VWidth: 16
Flags: HMW
LayerCount: 5
Back
SplineSet
257 -115 m 17xf7
 283.772460938 -160 l 1
 283.76953125 -152.99609375 217.1875 -191.887695312 217.190429688 -226 c 0
 217.194335938 -272.552734375 241.30078125 -285.247070312 293 -285.247070312 c 1
 680 -287 l 9
 680 89 l 25
 737 149 l 25
 743 -367 l 17
 743 -367 397.004882812 -369.6796875 221 -370.586914062 c 0
 141 -371 99.755859375 -321.6015625 99 -271 c 0
 97.37109375 -161.938476562 257 -115 257 -115 c 17xf7
EndSplineSet
Refer: 40 3497 N 1 0 0 1 -40 0 2
Fore
SplineSet
133 -231 m 0
 133 -131.329101562 248 -95 248 -95 c 1
 257.44140625 -99.4765625 268.080078125 -111.609375 268 -123 c 1
 250 -133 216 -163 216 -202 c 0
 216 -243 247.002574008 -258.584726698 314 -259 c 2
 772 -262 l 1
 780 330 l 1
 828 330 l 5
 829 -330 l 1
 282 -334 l 2
 174.005676882 -334.753887072 133 -287.483398438 133 -231 c 0
EndSplineSet
Refer: 40 3497 N 1 0 0 1 -40 0 2
LCarets2: 1 0
Ligature2: "si_blws_1 subtable" si_Dda si_MatraU
EndChar

StartChar: si_NnI
Encoding: 228 -1 233
GlifName: si_N_nI_
Width: 1343
VWidth: 30
Flags: HMW
LayerCount: 5
Back
Refer: 42 3499 N 1 0 0 1 0 0 2
Fore
SplineSet
304 697 m 4
 304 855 471 921 589 921 c 4
 679 921 771 885 771 808 c 4
 771 764 748 722 748 722 c 13
 714 722 l 21
 725 798 664 837 575 837 c 4
 488 837 353 808 353 689 c 4
 353 643 386 619 430 619 c 4
 432 619 435 620 437 620 c 13
 437 591 l 21
 424 586 415 583 403 583 c 4
 343 583 304 631 304 697 c 4
EndSplineSet
Refer: 42 3499 S 1 0 0 1 0 0 2
LCarets2: 1 0
Ligature2: "si_abvs_1 subtable" si_Nna si_MatraI
EndChar

StartChar: si_TI
Encoding: 239 -1 244
GlifName: si_T_I_
Width: 1105
VWidth: 6
Flags: HMW
LayerCount: 5
Back
Refer: 573 -1 N 1 0 0 1 630 0 2
Refer: 8 3501 N 1 0 0 1 0 0 2
Fore
SplineSet
379 449 m 17
 369.171657534 696.307211047 520.348204078 887 767 887 c 0
 893.290039062 887 1018 811.47071304 1018 673 c 4
 1018 573.177699055 937.311688312 497.100353669 828 518 c 9
 819 560 l 17
 900.899767502 547.666522998 933 610.03693607 933 663 c 0
 933 734.67967465 869.359879018 805 745 805 c 0
 562.807617187 805 425.762169403 693.991936221 425 449 c 9
 379 449 l 17
EndSplineSet
Refer: 8 3501 N 1 0 0 1 0 0 2
LCarets2: 1 0
Ligature2: "si_abvs_1 subtable" si_Ta si_MatraI
EndChar

StartChar: si_TIi
Encoding: 240 -1 245
GlifName: si_T_I_i
Width: 1105
VWidth: 6
Flags: HMW
LayerCount: 5
Back
SplineSet
317 427 m 1x2d80
 319.586914062 689.754882812 480.518547864 816.205147793 652 833 c 0
 786.000976562 846.124023438 920.791692129 777.673684576 916 642 c 0
 913.940185547 583.67767693 881.333333333 492 786 492 c 1
 676.076686501 492.000002228 633.558376437 552.792051998 636 619 c 0
 637.942019745 679.022037163 687.117908899 724.326048316 740 743 c 1
 760.968082501 734.068306627 781.218291421 724.317699544 800 714 c 1
 754 714 716.37918509 680.631318228 712 629 c 0
 710.627174559 594.718865376 732.490804277 555 775 555 c 0
 806.914762406 555 825.445623509 579.684590917 825 608 c 0
 823.291521193 716.558627094 717.885723905 746.201365225 610 736 c 0
 485.984375 724.2734375 365.77734375 641.188476562 364 427 c 1
 317 427 l 1x2d80
EndSplineSet
Refer: 8 3501 N 1 0 0 1 0 0 2
Fore
SplineSet
363 441 m 1
 346.259931407 692.387193152 531.767578125 875 740 875 c 0
 896.083007812 875 989 770.151367188 989 658 c 4
 989 568 926 510 856 510 c 4
 802.084960938 510 745 541.208007812 745 600 c 4
 745 692.73828125 844.59765625 727.784179688 927 707 c 5
 920 672 l 5
 863.748046875 686.944335938 799.4140625 670.869140625 799 609 c 4
 798.701171875 564.39453125 832.90625 552 858 552 c 4
 895.215820312 552 920 586.729492188 920 634 c 4
 920 710 849.229492188 794 715 794 c 0
 565.381835938 794 398.908203125 678.787109375 405 441 c 1
 363 441 l 1
EndSplineSet
Refer: 8 3501 N 1 0 0 1 0 0 2
LCarets2: 1 0
Ligature2: "si_abvs_2 subtable" si_Ta si_MatraIi
EndChar

StartChar: si_TU
Encoding: 241 -1 246
GlifName: si_T_U_
Width: 1105
VWidth: 6
Flags: HMW
LayerCount: 5
Back
SplineSet
758 8 m 13
 788 -22 l 21
 775 -40 735.653320312 -70.2509765625 742 -124 c 4
 747.765148819 -172.824130769 798 -203 867 -202 c 4
 929.642578125 -201.091796875 975 -174 1010 -139 c 13
 1054 -228 l 4
 1001 -278 921.443359375 -295.733398438 857 -294 c 4
 765.02734375 -291.526367188 683.208984375 -256.041015625 683 -140 c 4
 682.877929688 -71.982421875 733.476258379 -13.4625335028 758 8 c 13
278 378 m 1
 290 401 293.788085938 421.989257812 293 440 c 0
 290.88671875 488.322265625 241.939453125 510.5859375 200 501 c 0
 168.6171875 493.826171875 143.75 469.586914062 140 425 c 1
 180 370 l 1
 166 346 142.997070312 333.926757812 121 335 c 0
 80 337 56 368 56 414 c 0
 56 494 122.979492188 562.083984375 220 558 c 0
 303.716796875 554.475585938 353.256835938 480.104492188 326 417 c 0
 310.53515625 381.197265625 326 405 313 388 c 1
 278 378 l 1
758 8 m 0
 781.990234375 8.53125 802.926757812 13.7314453125 821 22.541015625 c 1
 906.891601562 64.4072265625 928.108269354 187.794867069 905 279 c 0
 872.266601562 408.19140625 734.73046875 467.030273438 595 462 c 0
 503.25390625 458.697265625 432 431.771484375 345 374 c 1
 328 362 339 367 325 355 c 1
 228 276 176 211 76 79 c 1
 76 79 41.1279296875 98.5439453125 47 107 c 0
 147 251 207 322 305 413 c 1
 312 419 321 420 328 425 c 1
 420 505 533.100585938 555.721679688 642 561 c 0
 837.309570312 570.465820312 990.44140625 449.986328125 1005 282 c 0
 1016.22873366 152.436080151 954.948242188 30.9873046875 851.549804688 -19 c 1
 819.727539062 -34.384765625 783.916015625 -43 745 -43 c 0
 758 8 l 0
106 142 m 1
 121.827148438 148.801757812 135.977539062 157.05859375 149 157.575195312 c 0
 235.53125 161.009765625 244.237304688 64.6337890625 412 62 c 0
 543.998046875 59.927734375 621.387695312 124.006835938 620 205 c 0
 617.891601562 328.076171875 483.087890625 345.88671875 432 346 c 0
 350.086914062 346.181640625 292 328 259 310 c 1
 296 362 l 1
 309 366 372.00390625 395.240234375 444 394 c 0
 544.004882812 392.27734375 679 345 679 195 c 0
 679 89.8291015625 610 -44 412 -44 c 0
 282.072265625 -44 203.453125 7.7138671875 187 67.9970703125 c 0
 171.305664062 125.500976562 129.395507812 127.443359375 84 104 c 1
 106 142 l 1
EndSplineSet
Fore
SplineSet
77 455 m 0
 77 516.485351562 124 574 211 574 c 0
 301.821289062 574 345 501.23046875 329 428 c 0
 316.049804688 368.727539062 306.384765625 375.881835938 301 361 c 0
 257 350 l 1
 276.452148438 369.963867188 289 409.892578125 289 436 c 0
 289 479.202148438 255.498046875 504.004882812 226 504.045898438 c 0
 210.9765625 504.06640625 190.991210938 497.665039062 183 484 c 1
 162 379 l 1
 96.91796875 377.70703125 77 419.03515625 77 455 c 0
50 76 m 5
 130 205 219 335 319 427 c 4
 320.826171875 427.5 323.173828125 427.5 325 428 c 4
 429.829101562 518.506835938 543.528320312 581 684 581 c 4
 895 581 1040 443 1040 265 c 4
 1040 117 971.618164062 -30 803 -30 c 4
 808 20 l 4
 922.296875 20 968.987304688 149.41015625 960 255 c 4
 946.091796875 418.40234375 817 497 649 497 c 4
 551.150390625 497 445.790039062 464 350 388 c 4
 333.69921875 375.06640625 344 381 330 369 c 4
 234.540039062 287 175.413085938 184 87 47 c 5
 87 47 50.84375 59 50 76 c 5
110 87 m 5
 109 118 l 5
 119 126 142 143 179 143 c 4
 261 143 259 61 427 61 c 4
 543 61 616 130 616 213 c 4
 616 329 501 354 420 354 c 4
 337 354 303 337.266601562 270 317 c 5
 310 365 l 5
 323 370 372 403 462 403 c 4
 555 403 681 352 681 201 c 4
 681 96 591.984375 -25.2314453125 422 -26 c 4
 356.994140625 -26.2939453125 259 -8 218 61 c 4
 190.353515625 107.526367188 140 113 110 87 c 5
EndSplineSet
Refer: 575 -1 N 1 0 0 1 807 -18 2
LCarets2: 1 0
Ligature2: "si_blws_1 subtable" si_Ta si_MatraU
EndChar

StartChar: si_TUu
Encoding: 242 -1 247
GlifName: si_T_U_u
Width: 1105
VWidth: 6
Flags: HMW
LayerCount: 5
Back
Refer: 8 3501 N 1 0 0 1 0 0 2
Fore
SplineSet
77 455 m 0
 77 516.485351562 124 574 211 574 c 0
 301.821289062 574 345 501.23046875 329 428 c 0
 316.049804688 368.727539062 306.384765625 375.881835938 301 361 c 0
 257 350 l 1
 276.452148438 369.963867188 289 409.892578125 289 436 c 0
 289 479.202148438 255.498046875 504.004882812 226 504.045898438 c 0
 210.9765625 504.06640625 190.991210938 497.665039062 183 484 c 1
 162 379 l 1
 96.91796875 377.70703125 77 419.03515625 77 455 c 0
50 76 m 1
 130 205 219 335 319 427 c 0
 320.826171875 427.5 323.173828125 427.5 325 428 c 0
 429.829101562 518.506835938 543.528320312 581 684 581 c 0
 895 581 1040 443 1040 265 c 0
 1040 117 971.618164062 -32 803 -32 c 0
 808 21 l 0
 922.296875 21 968.987304688 149.41015625 960 255 c 0
 946.091796875 418.40234375 817 497 649 497 c 0
 551.150390625 497 445.790039062 464 350 388 c 0
 333.69921875 375.06640625 344 381 330 369 c 0
 234.540039062 287 175.413085938 184 87 47 c 1
 87 47 50.84375 59 50 76 c 1
110 87 m 1
 109 118 l 1
 119 126 142 143 179 143 c 0
 261 143 259 61 427 61 c 0
 543 61 616 130 616 213 c 0
 616 329 501 354 420 354 c 0
 337 354 303 337.266601562 270 317 c 1
 310 365 l 1
 323 370 372 403 462 403 c 0
 555 403 681 352 681 201 c 0
 681 96 591.984375 -25.2314453125 422 -26 c 0
 356.994140625 -26.2939453125 259 -8 218 61 c 0
 190.353515625 107.526367188 140 113 110 87 c 1
EndSplineSet
Refer: 645 -1 N 1 0 0 1 532 -7 2
LCarets2: 1 0
Ligature2: "si_blws_3 subtable" si_Ta si_MatraUu
EndChar

StartChar: si_ThU
Encoding: 251 -1 256
GlifName: si_T_hU_
Width: 802
VWidth: 16
Flags: HMW
LayerCount: 5
Fore
SplineSet
86 -231 m 4
 86 -131.329101562 201 -95 201 -95 c 5
 210.44140625 -99.4765625 221.080078125 -111.609375 221 -123 c 5
 203 -133 169 -163 169 -202 c 4
 169 -243 200.002929688 -258.546875 267 -259 c 6
 662 -262 l 5
 662 190 l 5
 710 190 l 5
 719 -330 l 5
 235 -334 l 6
 127.005859375 -334.810546875 86 -287.483398438 86 -231 c 4
EndSplineSet
Refer: 44 3502 N 1 0 0 1 0 0 2
LCarets2: 1 0
Ligature2: "si_blws_1 subtable" si_Tha si_MatraU
EndChar

StartChar: si_DI
Encoding: 255 -1 263
GlifName: si_D_I_
Width: 639
VWidth: 13
Flags: HMW
LayerCount: 5
Back
SplineSet
207 451 m 17
 144 471 106.650390625 537.995117188 106 605 c 0
 105 708 213 812 354 810 c 0
 458 809 555.903320312 734.702148438 558 629 c 0
 559.311523438 562.887695312 513 513 478 499 c 9
 459 524 l 17
 482 544 498.944335938 563.61328125 497 605 c 4
 492.84375 693.477539062 390 711.96875 322 713 c 4
 227.005859375 714.44140625 168 656 169 591 c 0
 169.831054688 537.006835938 201 496 224 486 c 9
 207 451 l 17
EndSplineSet
Refer: 45 3503 N 1 0 0 1 0 0 2
Fore
SplineSet
80 688 m 0
 74.0252937029 776.996244254 150.829268293 901 344 901 c 0
 491.414342629 901 605 809 605 688 c 0
 605 601 538.27672956 522 456 519 c 1
 451 550 l 2
 451 550 542 569.777777778 542 666 c 0
 542 743 462.286434806 821.15251939 323 819 c 0
 201.670780002 817.12498971 141 759.5 141 700 c 0
 141 639.224 198.566666667 601.56 298 593 c 1
 299 552 l 1
 197.923076923 552.883116883 86.6586194416 588.816526747 80 688 c 0
EndSplineSet
Refer: 45 3503 N 1 0 0 1 0 0 2
LCarets2: 1 0
Ligature2: "si_abvs_1 subtable" si_Da si_MatraI
Ligature2: "'abvs' Above Base Substitutions in Sinhala lookup 0-1" si_Da si_MatraI
EndChar

StartChar: si_DIi
Encoding: 256 -1 264
GlifName: si_D_I_i
Width: 619
VWidth: 13
Flags: HMW
LayerCount: 5
Back
Refer: 45 3503 N 1 0 0 1 0 0 2
Fore
SplineSet
60 680 m 0
 60 780 155.990083026 903.500183648 345 900 c 0
 507 897 588 802 588 697 c 0
 588 603.172839506 513 545 438 545 c 0
 373.396396396 545 337 596.107142857 337 651 c 0
 337 708.845454545 385.391304348 752 442 752 c 0
 499 752 538 699 538 699 c 1
 528 666 l 1
 528 666 509.569620253 704 459 704 c 0
 416.416666667 704 386 681.074626866 386 640 c 0
 386 602 413.692307692 584 446 584 c 4
 486.051282051 584 517 616 517 674 c 0
 517 762.599586624 458.665723081 824.400626181 331 830 c 0
 217 835 126 776 126 671 c 0
 126 610 185 557 236 557 c 1
 236 508 l 1
 159 518 60 568 60 680 c 0
EndSplineSet
Refer: 45 3503 N 1 0 0 1 0 0 2
LCarets2: 1 0
Ligature2: "si_abvs_2 subtable" si_Da si_MatraIi
EndChar

StartChar: si_DU
Encoding: 257 -1 265
GlifName: si_D_U_
Width: 619
VWidth: 13
Flags: HMW
LayerCount: 5
Back
SplineSet
233 -117 m 1
 249.772460938 -152 l 1
 249.76953125 -143.934570312 183.1875 -188.71875 183.190429688 -228 c 0
 183.1953125 -274.552734375 210.481445312 -288 269 -288 c 1
 516 -288 l 1
 516 40 l 5
 563 40 l 5
 569 -369 l 1
 569 -369 408.048828125 -371.4765625 197 -372.586914062 c 0
 117 -373 75.755859375 -323.6015625 75 -273 c 0
 73.37109375 -163.938476562 233 -117 233 -117 c 1
152 199 m 0
 139.301757812 59.7265625 303.229492188 -21.3037109375 549 67 c 5
 563 40 l 5
 539 36 l 5
 551 38.3330078125 529 25.6669921875 493 12 c 5
 273.506835938 -100.266601562 38.8994140625 -4.337890625 41 165 c 0
 42.919921875 319.76171875 205.887695312 393.12109375 397 394 c 0
 456.002929688 394.271484375 499 385 499 385 c 1
 499 387.5 488.354492188 375.5 488 378 c 1
 491.599609375 475 373 506 318 498 c 1
 262 409 l 1
 216 412 195.556640625 452.114257812 205 488 c 0
 220 545 273 571 336 571 c 0
 408 571 506 528 520 444 c 0
 529.095703125 389.426757812 513 345 513 345 c 1
 513 343 l 1
 273.458007812 364.4921875 162.536132812 306.422851562 152 199 c 0
EndSplineSet
Fore
SplineSet
53 193 m 0
 53 348 215.300835655 424 404 424 c 0
 462 424 503 415 503 415 c 1
 503 417 492 405 492 408 c 0
 492 495 399 529 340 529 c 0
 333 529 327 529 322 528 c 1
 266 439 l 1
 227 442 207 471 207 501 c 0
 207 571 277 601 340 601 c 0
 425 601 527 549 527 440 c 0
 527 400 519 376 517 373 c 1
 484 376 453 377 425 377 c 0
 241.318518519 377 151 319.634146341 151 209 c 0
 151 118.310559006 235.529953917 52 372 52 c 0
 425 52 506 67 553 91 c 1
 565 87 568 59 563 49 c 1
 470 8 430 -66 418 -118 c 0
 414 -134 411 -153 411 -174 c 0
 411 -233 437 -304 549 -330 c 1
 548 -340 539 -351 526 -359 c 1
 517 -360 508 -361 500 -361 c 0
 378.472222222 -361 325 -260.638554217 325 -191 c 4
 325 -108.394190871 379.549222798 -2.1867219917 513 46 c 1
 497 32 l 1
 430 6 365 -6 306 -6 c 0
 159.62835249 -6 53 72 53 193 c 0
EndSplineSet
LCarets2: 1 0
Ligature2: "si_blws_1 subtable" si_Da si_MatraU
EndChar

StartChar: si_DUu
Encoding: 258 -1 266
GlifName: si_D_U_u
Width: 619
VWidth: 13
Flags: HMW
LayerCount: 5
Back
Refer: 45 3503 N 1 0 0 1 0 0 2
Fore
SplineSet
53 193 m 0
 53 348 215.300835655 424 404 424 c 0
 462 424 503 415 503 415 c 1
 503 417 492 405 492 408 c 0
 492 495 399 529 340 529 c 0
 333 529 327 529 322 528 c 1
 266 439 l 1
 227 442 207 471 207 501 c 0
 207 571 277 601 340 601 c 0
 425 601 527 549 527 440 c 0
 527 400 519 376 517 373 c 1
 484 376 453 377 425 377 c 0
 241.318518519 377 151 319.634146341 151 209 c 0
 151 118.310559006 235.529953917 52 372 52 c 0
 425 52 506 67 553 91 c 1
 565 87 568 59 563 49 c 1
 470 8 430 -66 418 -118 c 0
 414 -134 411 -153 411 -174 c 0
 411 -233 437 -304 549 -330 c 1
 548 -340 539 -351 526 -359 c 1
 517 -360 508 -361 500 -361 c 0
 378.472222222 -361 325 -260.638554217 325 -191 c 4
 325 -108.394190871 379.549222798 -2.1867219917 513 46 c 1
 497 32 l 1
 430 6 365 -6 306 -6 c 0
 159.62835249 -6 53 72 53 193 c 0
EndSplineSet
Ligature2: "si_blws_3 subtable" si_Da si_MatraUu
EndChar

StartChar: si_DvocR
Encoding: 259 -1 267
GlifName: si_D_vocR_
Width: 619
VWidth: 13
Flags: HMW
LayerCount: 5
Back
Refer: 45 3503 N 1 0 0 1 0 0 2
Fore
SplineSet
53 193 m 0
 53 348 215.300835655 424 404 424 c 0
 462 424 503 415 503 415 c 1
 503 417 492 405 492 408 c 0
 492 495 399 529 340 529 c 0
 333 529 327 529 322 528 c 1
 266 439 l 1
 227 442 207 471 207 501 c 0
 207 571 277 601 340 601 c 0
 425 601 527 549 527 440 c 0
 527 400 519 376 517 373 c 1
 484 376 453 377 425 377 c 0
 241.318518519 377 151 319.634146341 151 209 c 0
 151 118.310559006 235.529953917 52 372 52 c 0
 425 52 506 67 553 91 c 1
 565 87 568 59 563 49 c 1
 470 8 430 -66 418 -118 c 0
 414 -134 411 -153 411 -174 c 0
 411 -233 437 -304 549 -330 c 1
 548 -340 539 -351 526 -359 c 1
 517 -360 508 -361 500 -361 c 0
 378.472222222 -361 325 -260.638554217 325 -191 c 4
 325 -108.394190871 379.549222798 -2.1867219917 513 46 c 1
 497 32 l 1
 430 6 365 -6 306 -6 c 0
 159.62835249 -6 53 72 53 193 c 0
EndSplineSet
Ligature2: "si_blws_5 subtable" si_Da si_MatraR
EndChar

StartChar: si_DvocRr
Encoding: 260 -1 268
GlifName: si_D_vocR_r
Width: 619
VWidth: 13
Flags: HMW
LayerCount: 5
Back
Refer: 45 3503 N 1 0 0 1 0 0 2
Fore
SplineSet
53 193 m 0
 53 348 215.300835655 424 404 424 c 0
 462 424 503 415 503 415 c 1
 503 417 492 405 492 408 c 0
 492 495 399 529 340 529 c 0
 333 529 327 529 322 528 c 1
 266 439 l 1
 227 442 207 471 207 501 c 0
 207 571 277 601 340 601 c 0
 425 601 527 549 527 440 c 0
 527 400 519 376 517 373 c 1
 484 376 453 377 425 377 c 0
 241.318518519 377 151 319.634146341 151 209 c 0
 151 118.310559006 235.529953917 52 372 52 c 0
 425 52 506 67 553 91 c 1
 565 87 568 59 563 49 c 1
 470 8 430 -66 418 -118 c 0
 414 -134 411 -153 411 -174 c 0
 411 -233 437 -304 549 -330 c 1
 548 -340 539 -351 526 -359 c 1
 517 -360 508 -361 500 -361 c 0
 378.472222222 -361 325 -260.638554217 325 -191 c 4
 325 -108.394190871 379.549222798 -2.1867219917 513 46 c 1
 497 32 l 1
 430 6 365 -6 306 -6 c 0
 159.62835249 -6 53 72 53 193 c 0
EndSplineSet
Ligature2: "si_blws_5 subtable" si_Da si_MatraRr
EndChar

StartChar: si_Da.reph
Encoding: 261 -1 270
GlifName: si_D_a.reph
Width: 619
VWidth: 13
Flags: HMW
LayerCount: 5
Back
Refer: 45 3503 N 1 0 0 1 0 0 2
Fore
SplineSet
53 193 m 0
 53 348 215.300835655 424 404 424 c 0
 462 424 503 415 503 415 c 1
 503 417 492 405 492 408 c 0
 492 495 399 529 340 529 c 0
 333 529 327 529 322 528 c 1
 266 439 l 1
 227 442 207 471 207 501 c 0
 207 571 277 601 340 601 c 0
 425 601 527 549 527 440 c 0
 527 400 519 376 517 373 c 1
 484 376 453 377 425 377 c 0
 241.318518519 377 151 319.634146341 151 209 c 0
 151 118.310559006 235.529953917 52 372 52 c 0
 425 52 506 67 553 91 c 1
 565 87 568 59 563 49 c 1
 470 8 430 -66 418 -118 c 0
 414 -134 411 -153 411 -174 c 0
 411 -233 437 -304 549 -330 c 1
 548 -340 539 -351 526 -359 c 1
 517 -360 508 -361 500 -361 c 0
 378.472222222 -361 325 -260.638554217 325 -191 c 4
 325 -108.394190871 379.549222798 -2.1867219917 513 46 c 1
 497 32 l 1
 430 6 365 -6 306 -6 c 0
 159.62835249 -6 53 72 53 193 c 0
EndSplineSet
Ligature2: "si_abvs_7 subtable" si_Da si_Reph
EndChar

StartChar: si_DR.halant
Encoding: 262 -1 271
GlifName: si_D_R_.halant
Width: 619
VWidth: 13
Flags: HMW
LayerCount: 5
Fore
SplineSet
53 193 m 0
 53 348 215.300835655 424 404 424 c 0
 462 424 503 415 503 415 c 1
 503 417 492 405 492 408 c 0
 492 495 399 529 340 529 c 0
 333 529 327 529 322 528 c 1
 266 439 l 1
 227 442 207 471 207 501 c 0
 207 571 277 601 340 601 c 0
 425 601 527 549 527 440 c 0
 527 400 519 376 517 373 c 1
 484 376 453 377 425 377 c 0
 241.318518519 377 151 319.634146341 151 209 c 0
 151 118.310559006 235.529953917 52 372 52 c 0
 425 52 506 67 553 91 c 1
 565 87 568 59 563 49 c 1
 470 8 430 -66 418 -118 c 0
 414 -134 411 -153 411 -174 c 0
 411 -233 437 -304 549 -330 c 1
 548 -340 539 -351 526 -359 c 1
 517 -360 508 -361 500 -361 c 0
 378.472222222 -361 325 -260.638554217 325 -191 c 4
 325 -108.394190871 379.549222798 -2.1867219917 513 46 c 1
 497 32 l 1
 430 6 365 -6 306 -6 c 0
 159.62835249 -6 53 72 53 193 c 0
EndSplineSet
Ligature2: "si_halant_3 subtable" si_DRa si_Halant
EndChar

StartChar: si_DRa
Encoding: 263 -1 272
GlifName: si_D_R_a
Width: 619
VWidth: 13
Flags: HMW
LayerCount: 5
Fore
SplineSet
53 193 m 0
 53 348 215.300835655 424 404 424 c 0
 462 424 503 415 503 415 c 1
 503 417 492 405 492 408 c 0
 492 495 399 529 340 529 c 0
 333 529 327 529 322 528 c 1
 266 439 l 1
 227 442 207 471 207 501 c 0
 207 571 277 601 340 601 c 0
 425 601 527 549 527 440 c 0
 527 400 519 376 517 373 c 1
 484 376 453 377 425 377 c 0
 241.318518519 377 151 319.634146341 151 209 c 0
 151 118.310559006 235.529953917 52 372 52 c 0
 425 52 506 67 553 91 c 1
 565 87 568 59 563 49 c 1
 486.912326299 34.2731761104 621 8.0966796875 621 -114 c 0
 621 -218.975585938 542.31640625 -335.616210938 350 -338 c 4
 225.435546875 -339.543945312 139.784179688 -286 116 -216 c 1
 121.715820312 -200.696289062 148.466796875 -209.698242188 164 -212 c 1
 239.776367188 -288.408203125 354.3984375 -279.876953125 402 -267.907226562 c 0
 495.375976562 -244.427734375 545 -163.735351562 545 -111 c 0
 545 -28.39453125 480.548828125 29.8134765625 423 36 c 5
 497 32 l 1
 430 6 365 -6 306 -6 c 0
 159.62835249 -6 53 72 53 193 c 0
EndSplineSet
LCarets2: 3 0 0 0
Ligature2: "si_rakaar subtable" si_Da si_Halant zwj si_Ra
EndChar

StartChar: si_DRI
Encoding: 264 -1 273
GlifName: si_D_R_I_
Width: 619
VWidth: 13
Flags: HMW
LayerCount: 5
Fore
SplineSet
53 193 m 0
 53 348 215.300835655 424 404 424 c 0
 462 424 503 415 503 415 c 1
 503 417 492 405 492 408 c 0
 492 495 399 529 340 529 c 0
 333 529 327 529 322 528 c 1
 266 439 l 1
 227 442 207 471 207 501 c 0
 207 571 277 601 340 601 c 0
 425 601 527 549 527 440 c 0
 527 400 519 376 517 373 c 1
 484 376 453 377 425 377 c 0
 241.318518519 377 151 319.634146341 151 209 c 0
 151 118.310559006 235.529953917 52 372 52 c 0
 425 52 506 67 553 91 c 1
 565 87 568 59 563 49 c 1
 470 8 430 -66 418 -118 c 0
 414 -134 411 -153 411 -174 c 0
 411 -233 437 -304 549 -330 c 1
 548 -340 539 -351 526 -359 c 1
 517 -360 508 -361 500 -361 c 0
 378.472222222 -361 325 -260.638554217 325 -191 c 4
 325 -108.394190871 379.549222798 -2.1867219917 513 46 c 1
 497 32 l 1
 430 6 365 -6 306 -6 c 0
 159.62835249 -6 53 72 53 193 c 0
EndSplineSet
Ligature2: "si_abvs_3 subtable" si_DRa si_MatraI
EndChar

StartChar: si_DRIi
Encoding: 265 -1 274
GlifName: si_D_R_I_i
Width: 619
VWidth: 13
Flags: HMW
LayerCount: 5
Fore
SplineSet
53 193 m 0
 53 348 215.300835655 424 404 424 c 0
 462 424 503 415 503 415 c 1
 503 417 492 405 492 408 c 0
 492 495 399 529 340 529 c 0
 333 529 327 529 322 528 c 1
 266 439 l 1
 227 442 207 471 207 501 c 0
 207 571 277 601 340 601 c 0
 425 601 527 549 527 440 c 0
 527 400 519 376 517 373 c 1
 484 376 453 377 425 377 c 0
 241.318518519 377 151 319.634146341 151 209 c 0
 151 118.310559006 235.529953917 52 372 52 c 0
 425 52 506 67 553 91 c 1
 565 87 568 59 563 49 c 1
 470 8 430 -66 418 -118 c 0
 414 -134 411 -153 411 -174 c 0
 411 -233 437 -304 549 -330 c 1
 548 -340 539 -351 526 -359 c 1
 517 -360 508 -361 500 -361 c 0
 378.472222222 -361 325 -260.638554217 325 -191 c 4
 325 -108.394190871 379.549222798 -2.1867219917 513 46 c 1
 497 32 l 1
 430 6 365 -6 306 -6 c 0
 159.62835249 -6 53 72 53 193 c 0
EndSplineSet
Ligature2: "si_abvs_4 subtable" si_DRa si_MatraIi
EndChar

StartChar: si_DhI
Encoding: 267 -1 281
GlifName: si_D_hI_
Width: 861
VWidth: 16
Flags: HMW
LayerCount: 5
Fore
SplineSet
738 328 m 1
 738 194.520833333 680.331428571 70 564 70 c 0
 479.883167614 70 431 137 431 223 c 1
 418 226 403 223 390 218 c 1
 390 131 342.48046875 74 258 74 c 0
 162.696234045 74 103 147.085074125 103 243 c 0
 103 369.084173999 204.569148936 448 304 448 c 0
 337.29296875 448 369.475585938 443 395 432 c 1
 405 442 406 459.77734375 399 482 c 1
 399 482 368 501 308 501 c 0
 179.267175573 501 36 403.610967077 36 219 c 0
 36 67.857095009 119.738317757 -30.9877284026 260 -30 c 0
 346.551788051 -29.3880510347 420.012695312 29 418 107 c 1
 399 106 l 1
 398.875 27.2116788321 458.84375 -29 554 -29 c 0
 738.664348323 -29 806 155.015863502 806 328 c 1
 806 518.825941797 653.179803292 661.829289577 472 684 c 0
 328.107170225 705.29832447 190.574357797 678.586802649 189 753 c 0
 187.617727819 813.462101495 262.5672399 850 404 850 c 0
 566.711864407 850 660 792.666666667 660 721 c 0
 660 679.491225514 632.883789062 643.993907417 579 655 c 1
 606 620 l 1
 657 619 727 666 727 747 c 0
 727 838.971428571 627 932 423 932 c 0
 232.479379507 932 120.864458718 833.059003759 132 736 c 0
 145.700866347 604.670588428 330.943709601 662.855514461 500 616 c 0
 625.174618622 586.785850236 738 490.526511229 738 328 c 1
EndSplineSet
LCarets2: 1 0
Ligature2: "si_abvs_1 subtable" si_Dha si_MatraI
EndChar

StartChar: si_DhU
Encoding: 269 -1 283
GlifName: si_D_hU_
Width: 861
VWidth: 16
Flags: HMW
LayerCount: 5
Fore
SplineSet
92 -231 m 4
 92 -131.329101562 207 -95 207 -95 c 5
 216.44140625 -99.4765625 227.080078125 -111.609375 227 -123 c 5
 209 -133 175 -163 175 -202 c 4
 175 -243 206.002929688 -258.546875 273 -259 c 6
 718 -262 l 1
 718 190 l 1
 766 190 l 1
 775 -330 l 1
 241 -334 l 6
 133.005859375 -334.810546875 92 -287.483398438 92 -231 c 4
EndSplineSet
Refer: 46 3504 N 1 0 0 1 0 0 2
LCarets2: 1 0
Ligature2: "si_blws_1 subtable" si_Dha si_MatraU
EndChar

StartChar: si_NI
Encoding: 277 -1 291
GlifName: si_N_I_
Width: 1064
VWidth: 6
Flags: HMW
LayerCount: 5
Back
Refer: 573 -1 N 1 0 0 1 669 -2 2
Refer: 9 3505 N 1 0 0 1 0 0 2
Fore
SplineSet
409 449 m 1
 400.184888717 696.307211047 535.776224276 887 757 887 c 0
 884.059239604 887 991 812.882475412 991 677 c 0
 991 576.922564103 909.037662338 498.830680813 798 520 c 1
 809 560 l 1
 884.433996383 548.983690445 914 604.693185617 914 652 c 0
 914 729.232325504 841.659279337 805 730 805 c 0
 573.997772217 805 456.652607552 693.991936221 456 449 c 1
 409 449 l 1
EndSplineSet
Refer: 9 3505 N 1 0 0 1 0 0 2
LCarets2: 1 0
Ligature2: "si_abvs_1 subtable" si_Na si_MatraI
EndChar

StartChar: si_NIi
Encoding: 278 -1 292
GlifName: si_N_I_i
Width: 1058
VWidth: 6
Flags: HMW
LayerCount: 5
Back
Refer: 9 3505 N 1 0 0 1 0 0 2
Fore
SplineSet
949 615 m 0
 949 690 903.229492188 786 729 786 c 0
 579.381835938 786 447.908203125 658.787109375 454 441 c 1
 413 441 l 1
 386.259765625 662.38671875 545.767578125 867 754 867 c 0
 930.083007812 867 1018 750.151367188 1018 639 c 0
 1018 549 955 491 885 491 c 0
 831.084960938 491 774 522.208007812 774 581 c 0
 774 673.73828125 873.59765625 708.784179688 956 688 c 1
 949 653 l 1
 892.748046875 667.944335938 828.4140625 651.869140625 828 590 c 0
 827.701171875 545.39453125 861.90625 533 887 533 c 0
 924.215820312 533 949 567.729492188 949 615 c 0
EndSplineSet
Refer: 9 3505 N 1 0 0 1 -10 0 2
LCarets2: 1 0
Ligature2: "si_abvs_2 subtable" si_Na si_MatraIi
EndChar

StartChar: si_NU
Encoding: 279 -1 293
GlifName: si_N_U_
Width: 1064
VWidth: 6
Flags: HMW
LayerCount: 5
Back
SplineSet
302 -117 m 5
 318.772460938 -152 l 5
 318.76953125 -143.934570312 252.1875 -188.71875 252.190429688 -228 c 4
 252.1953125 -274.552734375 279.481445312 -288 338 -288 c 5
 915 -288 l 5
 915 127 l 5
 962 127 l 5
 968 -369 l 5
 968 -369 477.048828125 -371.4765625 266 -372.586914062 c 4
 186 -373 144.755859375 -323.6015625 144 -273 c 4
 142.37109375 -163.938476562 302 -117 302 -117 c 5
EndSplineSet
Refer: 9 3505 N 1 0 0 1 0 0 2
Fore
SplineSet
191 -231 m 4
 191 -131.329101562 306 -95 306 -95 c 5
 315.44140625 -99.4765625 326.080078125 -111.609375 326 -123 c 5
 308 -133 274 -163 274 -202 c 4
 274 -243 305 -259 372 -259 c 6
 956 -262 l 5
 956 210 l 5
 1004 210 l 5
 1013 -330 l 5
 340 -334 l 6
 232.006835938 -334.919921875 191 -287.483398438 191 -231 c 4
EndSplineSet
Refer: 9 3505 N 1 0 0 1 0 0 2
LCarets2: 1 0
Ligature2: "si_blws_1 subtable" si_Na si_MatraU
EndChar

StartChar: si_PU
Encoding: 291 -1 309
GlifName: si_P_U_
Width: 818
VWidth: 6
Flags: HMW
LayerCount: 5
Back
Refer: 81 -1 S 1 0 0 1 697 0 2
Refer: 1 3508 N 1 0 0 1 0 0 2
Fore
SplineSet
67 -231 m 4
 67 -131.329101562 182 -95 182 -95 c 5
 191.44140625 -99.4765625 202.080078125 -111.609375 202 -123 c 5
 184 -133 150 -163 150 -202 c 4
 150 -243 181.003058662 -258.547317964 248 -259 c 6
 692 -262 l 5
 692 190 l 5
 740 190 l 5
 749 -330 l 5
 216 -334 l 6
 108.006014471 -334.81046143 67 -287.483398438 67 -231 c 4
EndSplineSet
Refer: 1 3508 N 1 0 0 1 0 0 2
LCarets2: 1 0
Ligature2: "si_blws_1 subtable" si_Pa si_MatraU
EndChar

StartChar: si_PhI
Encoding: 299 -1 317
GlifName: si_P_hI_
Width: 802
VWidth: 16
Flags: HMW
LayerCount: 5
Back
Refer: 48 3509 N 1 0 0 1 0 0 2
Fore
SplineSet
302 757 m 1
 341 778 l 1
 429 746 411 646 443 586 c 0
 473 531 556 522 649 563 c 1
 672 526 l 1
 599 479 441 451 389 556 c 0
 356 621 364 721 302 757 c 1
50 183 m 0
 50 339 188 384 325 384 c 1
 330 334 l 1
 199 334 120 296 120 204 c 0
 120 116 218 64 390 64 c 0
 602 64 673 222 675 376 c 0
 677 622 482 728 302 756 c 1
 296 770 294 804 307 814 c 1
 568 774 747 591 747 361 c 0
 747 131 611 -29 388 -29 c 0
 151 -29 50 74 50 183 c 0
102 462 m 0
 102 528 165 550 211 550 c 0
 286 550 364 502 368 412 c 0
 369 378 357 328 357 328 c 1
 334 331 314 332 293 332 c 0
 304 384 l 0
 312 384 320 383 328 383 c 1
 331 448 287 490 222 490 c 0
 215 490 207 489 199 488 c 1
 173 407 l 1
 168 406 164 406 160 406 c 0
 126 406 102 428 102 462 c 0
214 742 m 0
 207 846 261 961 471 961 c 0
 603 961 712 899 712 778 c 0
 712 731 664 639 573 639 c 9
 558 660 l 26
 558 660 629 678 629 766 c 0
 629 843 592 876 440 889 c 0
 350 897 260 834 260 759 c 0
 260 688 324 614 400 604 c 9
 396 558 l 17
 312 559 222 630 214 742 c 0
EndSplineSet
Ligature2: "si_abvs_1 subtable" si_Pha si_MatraI
EndChar

StartChar: si_BI
Encoding: 305 -1 323
GlifName: si_B_I_
Width: 870
VWidth: 16
Flags: HMW
LayerCount: 5
Back
Refer: 49 3510 N 1 0 0 1 0 0 2
Fore
SplineSet
483 616 m 0
 610.536467475 598.350698642 749.751183255 480.548119045 746 328 c 0
 743.0000673 206.002736883 687.908152174 72 568 72 c 0
 496.486403626 72 446 103.447058824 446 153 c 0
 446 204.041176471 499.61627907 231 533 234 c 1
 537.102352088 236.532420201 541.263513711 240.838543569 545 248 c 1
 546 252 546 256 546 260 c 0
 546 398.176165803 435.758291865 486.793192794 314 486 c 0
 167.263343167 485.044085975 47 369.134037016 47 189 c 0
 47 86.7 110.598141696 -31 245 -31 c 0
 322.975 -31 362 29.1090909091 362 83 c 0
 362 150.96039604 313.245082403 187 261 187 c 0
 201.699790659 187 148 140.463596491 148 68 c 0
 148 17.6375 185.263659699 -9.025 210 -11 c 1
 224 0 l 1
 197.033898305 4.39393939394 187 34.2727272727 187 58 c 0
 187 106.035087719 216.571428571 132 250 132 c 0
 280.153846154 132 299 108.203389831 299 78 c 0
 299 53.25 279.366666667 23 237 23 c 0
 147.256880734 23 103 96.9459459459 103 194 c 0
 103 319.902630894 191.730964467 396 293 396 c 0
 370.396551724 396 465.265086207 361.867924528 494 262 c 1
 506 271 l 1
 455.380530973 258.918367347 396 208.580801853 396 123 c 0
 396 49.8447204969 449.730418944 -28 568 -28 c 0
 728.810810811 -28 811.435610815 133.234564763 813 323 c 1
 813 525.852559853 654.890071673 653.489374115 488 672 c 0
 422.269967334 679.525547843 356.578842589 672.314950513 308 677.356445312 c 0
 237.985039529 684.622572711 187.022746188 694.964554223 186 742 c 0
 184.725877651 800.596075312 266.068530868 836 420 836 c 0
 555.381355932 836 633 784.888888889 633 721 c 0
 633 680.749067165 594.209948881 636.327425374 547 657 c 1
 579 620 l 1
 630 619.078740157 700 662.377952756 700 737 c 0
 700 827.48 606.578947368 919 416 919 c 0
 232.026479868 919 121.802594426 821.281405923 135 726 c 0
 145.683007741 648.871810572 226.308098353 628.059077886 312 622.013671875 c 0
 363.87657677 618.353874823 422.547764297 623.686336224 483 616 c 0
EndSplineSet
Ligature2: "si_abvs_1 subtable" si_Ba si_MatraI
EndChar

StartChar: si_BU
Encoding: 307 -1 325
GlifName: si_B_U_
Width: 871
VWidth: 6
Flags: HMW
LayerCount: 5
Back
Refer: 49 3510 N 1 0 0 1 0 0 2
Fore
SplineSet
121 -231 m 4
 121 -131.329101562 236 -95 236 -95 c 5
 245.44140625 -99.4765625 256.080078125 -111.609375 256 -123 c 5
 238 -133 204 -163 204 -202 c 4
 204 -243 235 -259 302 -259 c 6
 736 -262 l 1
 736 210 l 1
 784 210 l 1
 793 -330 l 1
 270 -334 l 6
 162.006835938 -334.919921875 121 -287.483398438 121 -231 c 4
EndSplineSet
Refer: 49 3510 N 1 0 0 1 0 0 2
LCarets2: 1 0
Ligature2: "si_blws_1 subtable" si_Ba si_MatraU
EndChar

